<svg xmlns="http://www.w3.org/2000/svg" xmlns:xlink="http://www.w3.org/1999/xlink" width="18" height="18" viewBox="0 0 18 18"><defs><path id="9ua7a" d="M756 1546a8 8 0 0 1 8-8h2a8 8 0 0 1 8 8v2a8 8 0 0 1-8 8h-2a8 8 0 0 1-8-8z"/><path id="9ua7b" d="M763.63 1548.7l4.22-4.08.3-.3c.5-.43 1.18-.43 1.57 0 .41.43.37 1.02-.13 1.51-1.03 1.03-2.08 2.03-3.1 3.06-.9.9-1.78 1.83-2.8 2.89-.56-.62-1-1.13-1.47-1.62-.61-.63-1.26-1.24-1.87-1.87-.46-.47-.46-1.05-.03-1.47.43-.42 1.02-.4 1.5.06l1.81 1.82"/></defs><g><g transform="translate(-756 -1538)"><use fill="#00afaf" xlink:href="#9ua7a"/></g><g transform="translate(-756 -1538)"><use fill="#fff" xlink:href="#9ua7b"/></g></g></svg>