<?xml version="1.0" encoding="iso-8859-1"?>
<!-- Generator: Adobe Illustrator 18.1.1, SVG Export Plug-In . SVG Version: 6.00 Build 0)  -->
<svg version="1.1" id="Capa_1" xmlns="http://www.w3.org/2000/svg" xmlns:xlink="http://www.w3.org/1999/xlink" x="0px" y="0px"
	 viewBox="0 0 54.001 54.001" style="enable-background:new 0 0 54.001 54.001;" xml:space="preserve">
<g>
	<g>
		<path style="fill:#010002;" d="M31,20.301V13h-6.457C24.835,13.729,25,14.522,25,15.354v1.292c0,1.541-0.552,2.954-1.467,4.055
			C25.588,21.755,27,23.891,27,26.354v1.292c0,2.249-1.178,4.224-2.946,5.354C25.823,34.13,27,36.104,27,38.354v1.293
			c0,2.255-1.185,4.235-2.962,5.363C24.644,45.982,25,47.126,25,48.354v1.293c0,1.686-0.664,3.215-1.739,4.354h11.439
			c2.665,0,6.391-1.401,9.491-3.569c1.113-0.778,2.065-1.598,2.846-2.431H43V35.8C31.166,33.619,31,20.442,31,20.301z"/>
		<path style="fill:#010002;" d="M5.613,20h15.034c0.235,0,0.466,0.015,0.694,0.04c1.003-0.799,1.66-2.015,1.66-3.394v-1.292
			C23,12.953,21.048,11,18.646,11H8.354C5.953,11,4,12.953,4,15.354v1.292C4,18.002,4.636,19.201,5.613,20z"/>
		<path style="fill:#010002;" d="M11.354,54h7.292C21.048,54,23,52.047,23,49.646v-1.293c0-0.952-0.316-1.827-0.837-2.544
			C21.677,45.93,21.17,46,20.646,46H7.702C7.262,46.68,7,47.485,7,48.354v1.293C7,52.047,8.953,54,11.354,54z"/>
		<path style="fill:#010002;" d="M5.354,32h15.292C23.048,32,25,30.047,25,27.646v-1.292C25,23.953,23.048,22,20.646,22h-2H8.354h-3
			C2.953,22,1,23.953,1,26.354v1.292C1,30.047,2.953,32,5.354,32z"/>
		<path style="fill:#010002;" d="M5.354,44h6h7.292h2C23.048,44,25,42.047,25,39.646v-1.293c0-2.4-1.953-4.354-4.354-4.354H5.354
			C2.953,34,1,35.953,1,38.354v1.293C1,42.047,2.953,44,5.354,44z"/>
		<path style="fill:#010002;" d="M44,5.826C44,2.614,41.559,0,38.557,0h-0.352C35.237,0,33,2.505,33,5.826V20.3
			c0.002,0.494,0.172,11.371,10,13.459V16h1V5.826z"/>
		<polygon style="fill:#010002;" points="53,16 46,16 44,16 43,16 43,33.759 43,35.8 43,48 47.037,48 49.634,48 53,48 		"/>
	</g>
</g>
<g>
</g>
<g>
</g>
<g>
</g>
<g>
</g>
<g>
</g>
<g>
</g>
<g>
</g>
<g>
</g>
<g>
</g>
<g>
</g>
<g>
</g>
<g>
</g>
<g>
</g>
<g>
</g>
<g>
</g>
</svg>
