<svg xmlns="http://www.w3.org/2000/svg" xmlns:xlink="http://www.w3.org/1999/xlink" width="10.12" height="11" viewBox="0 0 10.12 11"><defs><path id="ksk9a" d="M398.46 332.32a.72.72 0 0 1 0-1.1c.33-.3.87-.3 1.2 0l4.21 3.83c.34.3.34.8 0 1.1-.33.3-.87.3-1.2 0z"/><path id="ksk9b" d="M399.66 332.32c.34-.3.34-.8 0-1.1a.91.91 0 0 0-1.2 0l-4.21 3.83c-.33.3-.33.8 0 1.1.33.3.87.3 1.2 0z"/></defs><g><g transform="rotate(90 366.06 -27.31)"><g><use fill="#00afaf" xlink:href="#ksk9a"/></g><g><use fill="#00afaf" xlink:href="#ksk9b"/></g></g></g></svg>