<svg id="SVGDoc" width="21" height="14" xmlns="http://www.w3.org/2000/svg" version="1.1" xmlns:xlink="http://www.w3.org/1999/xlink" xmlns:avocode="https://avocode.com/" viewBox="0 0 21 14"><defs><path d="M1128.83175,2328.39142c-0.67939,-0.65553 -1.31408,-1.26711 -1.94778,-1.87969c-0.8345,-0.80664 -1.66746,-1.61478 -2.50279,-2.42058c-0.17489,-0.16866 -0.27119,-0.36181 -0.21436,-0.60217c0.11347,-0.48014 0.69588,-0.65267 1.06638,-0.30818c0.44177,0.41082 0.87009,0.83522 1.30352,1.25445c1.40275,1.35694 2.80526,2.71404 4.20753,4.0714c0.33688,0.32612 0.34167,0.66242 0.01009,0.98334c-1.82174,1.76328 -3.64391,3.52611 -5.46739,5.28771c-0.39716,0.38365 -0.98289,0.25179 -1.11625,-0.25004c-0.06585,-0.24777 0.0352,-0.44513 0.21531,-0.61873c0.82176,-0.79199 1.64115,-1.58628 2.46141,-2.37976c0.6012,-0.58159 1.20243,-1.16311 1.80335,-1.74496c0.0456,-0.04415 0.08887,-0.09048 0.1669,-0.17016h-0.3811c-5.25311,0 -10.50618,0.00023 -15.75928,-0.00038c-0.52506,-0.00008 -0.8413,-0.48909 -0.58878,-0.91234c0.12929,-0.21676 0.32949,-0.31193 0.59151,-0.31159c1.96411,0.00268 3.92827,0.00057 5.89242,0.00065c3.34183,0.00008 6.6837,0.00065 10.02553,0.00103c0.05758,0 0.11513,0 0.23378,0" id="Path-0"/></defs><desc>Generated with Avocode.</desc><g transform="matrix(1,0,0,1,-1111,-2322)"><g><title>Fill 1</title><use xlink:href="#Path-0" fill="#00afaf" fill-opacity="1"/><use xlink:href="#Path-0" fill-opacity="0" fill="#ffffff" stroke-linejoin="miter" stroke-linecap="butt" stroke-opacity="1" stroke="#00afaf" stroke-miterlimit="50" stroke-width="1"/></g></g></svg>