<svg id="SVGDoc" width="15" height="12" xmlns="http://www.w3.org/2000/svg" version="1.1" xmlns:xlink="http://www.w3.org/1999/xlink" xmlns:avocode="https://avocode.com/" viewBox="0 0 15 12"><defs><path d="M795.25715,2167.93818c0.61801,-0.82757 1.21868,-1.63219 1.81961,-2.43654c1.77927,-2.3815 3.55801,-4.76332 5.33848,-7.1438c0.30796,-0.41175 0.87875,-0.47632 1.27155,-0.15123c0.3675,0.30417 0.41767,0.82522 0.1183,1.21396c-2.59302,3.36785 -5.18588,6.7358 -7.77853,10.1039c-0.33487,0.43503 -0.67036,0.57058 -1.07336,0.41074c-0.11747,-0.04654 -0.23025,-0.12528 -0.32362,-0.21339c-1.76923,-1.66996 -3.5359,-3.34286 -5.30137,-5.01699c-0.38957,-0.36939 -0.43475,-0.86101 -0.12263,-1.23494c0.31842,-0.38147 0.92149,-0.45053 1.31668,-0.12748c0.24353,0.199 0.46108,0.43192 0.68738,0.6528c1.29539,1.26447 2.58984,2.5299 3.88482,3.79474c0.04356,0.04253 0.08988,0.08206 0.16269,0.14823" id="Path-0"/></defs><desc>Generated with Avocode.</desc><g transform="matrix(1,0,0,1,-789,-2158)"><g><title>Fill 1</title><use xlink:href="#Path-0" fill="#00afaf" fill-opacity="1"/></g></g></svg>