<svg id="SVGDoc" width="10.120000000000005" height="11" xmlns="http://www.w3.org/2000/svg" version="1.1" xmlns:xlink="http://www.w3.org/1999/xlink" xmlns:avocode="https://avocode.com/" viewBox="0 0 10.120000000000005 11"><defs><path d="M398.45916,332.31876c-0.33221,-0.30169 -0.33221,-0.79081 0,-1.0925c0.33222,-0.30168 0.87085,-0.30168 1.20307,0l4.21074,3.82373c0.33222,0.30168 0.33222,0.79081 0,1.09249c-0.33221,0.30168 -0.87085,0.30168 -1.20307,0z" id="Path-0"/><path d="M399.66298,332.31876c0.33221,-0.30169 0.33221,-0.79081 0,-1.0925c-0.33222,-0.30168 -0.87085,-0.30168 -1.20307,0l-4.21074,3.82373c-0.33222,0.30168 -0.33222,0.79081 0,1.09249c0.33221,0.30168 0.87085,0.30168 1.20307,0z" id="Path-1"/></defs><desc>Generated with Avocode.</desc><g transform="matrix(1,0,0,1,-394,-328)"><g transform="matrix(-1.8369701987210297e-16,1,-1,-1.8369701987210297e-16,732.7450000000001,-65.37499999999994)"><title>Group 20</title><g><title>Line 6</title><use xlink:href="#Path-0" fill="#00afaf" fill-opacity="1"/></g><g><title>Line 6 Copy</title><use xlink:href="#Path-1" fill="#00afaf" fill-opacity="1"/></g></g></g></svg>