<svg id="SVGDoc" width="154.01" height="39" xmlns="http://www.w3.org/2000/svg" version="1.1" xmlns:xlink="http://www.w3.org/1999/xlink" xmlns:avocode="https://avocode.com/" viewBox="0 0 154.01 39"><defs><path d="M85.4722,121.08705c-3.69695,3.69881 -8.60476,5.54543 -13.46304,5.54543c-12.46329,0 -18.95648,-8.71867 -19.00786,-18.70329c-0.10648,-9.88186 6.33348,-19.12919 19.00786,-19.12919c4.85828,0 9.76609,1.84848 13.46304,5.54729l-1.95495,1.69c-3.16767,-3.16767 -7.33881,-4.70167 -11.50809,-4.70167c-10.77267,0 -16.3181,7.60871 -16.263,16.48524c0.10647,8.66728 5.59681,16.17138 16.263,16.17138c4.16928,0 8.38995,-1.58786 11.56319,-4.70414z" id="Path-0"/><path d="M92.7999,106.33305h21.64872v2.61114h-21.64872v14.48943h23.34429v2.74362h-26.21419v-36.94724h26.73976v2.74176h-23.86986z" id="Path-1"/><path d="M145.2019,89.23h3.02839v0.07738l-12.54624,17.91091l13.58995,18.91809v0.04024h-3.38495l-11.93215,-16.91114l-11.934,16.91114h-3.4029v-0.04024l13.58748,-18.91809l-12.54377,-17.91091v-0.07738h3.09586l11.19733,15.80181z" id="Path-2"/><path d="M149.45,107.7249c0,1.11677 0.90629,2.02429 2.02305,2.02429v0c1.11738,0 2.02305,-0.90752 2.02305,-2.02429v0c0,-1.11738 -0.90567,-2.0249 -2.02305,-2.0249v0c-1.11676,0 -2.02305,0.90752 -2.02305,2.0249" id="Path-3"/><path d="M207.00719,107.74733c-0.05324,9.724 -6.23257,19.07843 -18.6389,19.07843c-12.40634,0 -18.63829,-9.40581 -18.63829,-19.1849c0,-9.93324 6.18305,-19.02086 18.63829,-19.02086c12.46328,0 18.69214,9.14148 18.6389,19.12733zM172.52995,107.69595c0.05138,8.346 5.33,16.484 15.83834,16.484c10.56033,0 15.8959,-8.138 15.8959,-16.484c0,-8.56205 -5.27862,-16.43385 -15.8959,-16.43385c-10.61234,0 -15.89158,7.71519 -15.83834,16.43385z" id="Path-4"/><path d="M161.8,89.23h2.74114v36.94724h-2.74114z" id="Path-5"/><path d="M182.36467,106.63867c-0.00867,0.27733 -0.19067,0.77133 -0.63267,0.99666c0.84067,0.42467 0.94467,1.21334 0.86667,1.68134c-0.156,0.988 -0.82334,1.586 -2.184,1.586h-2.50467v-6.136h2.46133c1.17,0 2.028,0.702 1.99334,1.872zM179.47,107.16733h0.90133c0.754,0 0.78,-1.092 0,-1.092h-0.90133zM179.47,109.542h0.90133c0.936,0 0.91867,-1.25667 0,-1.25667h-0.90133zM183.84861,110.90267v-6.136h1.56v4.602h2.496v1.534zM188.84256,108.88333v-2.09733c0,-1.41267 1.26533,-2.106 2.53933,-2.106c1.274,0 2.548,0.702 2.548,2.106v2.09733c0,1.404 -1.26533,2.106 -2.53933,2.106c-1.274,0 -2.548,-0.702 -2.548,-2.106zM190.39389,106.786v2.09733c0,0.45067 0.50267,0.66734 0.99667,0.66734c0.494,0 0.988,-0.22534 0.988,-0.66734v-2.09733c0,-0.47667 -0.51134,-0.69333 -1.014,-0.69333c-0.48534,0 -0.97067,0.24266 -0.97067,0.69333zM199.69517,105.98867l-1.3,0.598c-0.338,-0.82334 -1.70733,-0.63267 -1.70733,0.17333v2.106c0,0.962 1.794,0.95333 1.794,0v-0.22533h-0.97934v-1.3h2.47v1.52533c0,1.41267 -1.17866,2.12333 -2.40933,2.12333c-1.21333,0 -2.42667,-0.71066 -2.42667,-2.12333v-2.106c0,-1.38667 1.21334,-2.08 2.42667,-2.08c0.79733,0 1.70733,0.32933 2.132,1.30867z" id="Path-6"/></defs><desc>Generated with Avocode.</desc><g transform="matrix(1,0,0,1,-53,-88)"><g><title>logo</title><g><title>cex.io</title><g><title>Fill 1</title><use xlink:href="#Path-0" fill="#ffffff" fill-opacity="1"/></g><g><title>Fill 3</title><use xlink:href="#Path-1" fill="#ffffff" fill-opacity="1"/></g><g><title>Fill 5</title><use xlink:href="#Path-2" fill="#ffffff" fill-opacity="1"/></g><g><title>Fill 14</title><use xlink:href="#Path-3" fill="#ffffff" fill-opacity="1"/></g><g><title>Fill 11</title><use xlink:href="#Path-4" fill="#ffffff" fill-opacity="1"/></g><g><title>Fill 8</title><use xlink:href="#Path-5" fill="#ffffff" fill-opacity="1"/></g></g><g><title>BLOG</title><use xlink:href="#Path-6" fill="#ffffff" fill-opacity="1"/></g></g></g></svg>