<?xml version="1.0" encoding="UTF-8" standalone="no"?>
<svg width="167px" height="178px" viewBox="0 0 167 178" version="1.1" xmlns="http://www.w3.org/2000/svg" xmlns:xlink="http://www.w3.org/1999/xlink">
    <!-- Generator: Sketch 3.8.2 (29753) - http://www.bohemiancoding.com/sketch -->
    <title>satisfaction-sprite</title>
    <desc>Created with Sketch.</desc>
    <defs></defs>
    <g id="Page-1" stroke="none" stroke-width="1" fill="none" fill-rule="evenodd">
        <g id="satisfaction-sprite">
            <g id="Page-1">
                <g id="satisfaction-sprite">
                    <g id="Page-1">
                        <g id="satisfaction-sprite">
                            <g id="Page-1">
                                <g id="satisfaction-sprite">
                                    <g id="Group">
                                        <g id="social-facebook" transform="translate(87.000000, 87.000000)">
                                            <g id="Page-1">
                                                <g id="Group">
                                                    <g id="Layer_1" fill="#6D7A8D">
                                                        <path d="M12,24 C18.627417,24 24,18.627417 24,12 C24,5.372583 18.627417,0 12,0 C5.372583,0 0,5.372583 0,12 C0,18.627417 5.372583,24 12,24 L12,24 L12,24 L12,24 L12,24 Z M14.8575,9.85444898 L12.94625,9.85444898 L12.94625,8.62653061 C12.94625,8.16538776 13.25825,8.05787755 13.478,8.05787755 L14.82675,8.05787755 L14.82675,6.03061224 L12.96925,6.0235102 C10.90725,6.0235102 10.438,7.5355102 10.438,8.50310204 L10.438,9.85444898 L9.2455,9.85444898 L9.2455,11.9434286 L10.438,11.9434286 L10.438,17.8545306 L12.94625,17.8545306 L12.94625,11.9434286 L14.63875,11.9434286 L14.8575,9.85444898 L14.8575,9.85444898 L14.8575,9.85444898 L14.8575,9.85444898 L14.8575,9.85444898 Z" id="Combined-Shape"></path>
                                                    </g>
                                                    <g id="Layer_1-Copy" transform="translate(0.000000, 26.000000)" fill="#19C9B7">
                                                        <path d="M12,24 C18.627417,24 24,18.627417 24,12 C24,5.372583 18.627417,0 12,0 C5.372583,0 0,5.372583 0,12 C0,18.627417 5.372583,24 12,24 L12,24 L12,24 L12,24 L12,24 Z M14.8575,9.85444898 L12.94625,9.85444898 L12.94625,8.62653061 C12.94625,8.16538776 13.25825,8.05787755 13.478,8.05787755 L14.82675,8.05787755 L14.82675,6.03061224 L12.96925,6.0235102 C10.90725,6.0235102 10.438,7.5355102 10.438,8.50310204 L10.438,9.85444898 L9.2455,9.85444898 L9.2455,11.9434286 L10.438,11.9434286 L10.438,17.8545306 L12.94625,17.8545306 L12.94625,11.9434286 L14.63875,11.9434286 L14.8575,9.85444898 L14.8575,9.85444898 L14.8575,9.85444898 L14.8575,9.85444898 L14.8575,9.85444898 Z" id="Combined-Shape"></path>
                                                    </g>
                                                    <g id="Layer_1-Copy-2" transform="translate(0.000000, 52.000000)" fill="#214669">
                                                        <path d="M12,24 C18.627417,24 24,18.627417 24,12 C24,5.372583 18.627417,0 12,0 C5.372583,0 0,5.372583 0,12 C0,18.627417 5.372583,24 12,24 L12,24 L12,24 L12,24 L12,24 Z M14.8575,9.85444898 L12.94625,9.85444898 L12.94625,8.62653061 C12.94625,8.16538776 13.25825,8.05787755 13.478,8.05787755 L14.82675,8.05787755 L14.82675,6.03061224 L12.96925,6.0235102 C10.90725,6.0235102 10.438,7.5355102 10.438,8.50310204 L10.438,9.85444898 L9.2455,9.85444898 L9.2455,11.9434286 L10.438,11.9434286 L10.438,17.8545306 L12.94625,17.8545306 L12.94625,11.9434286 L14.63875,11.9434286 L14.8575,9.85444898 L14.8575,9.85444898 L14.8575,9.85444898 L14.8575,9.85444898 L14.8575,9.85444898 Z" id="Combined-Shape"></path>
                                                    </g>
                                                </g>
                                            </g>
                                        </g>
                                        <g id="social-twitter" transform="translate(143.000000, 87.000000)">
                                            <g id="Page-1">
                                                <g id="social-twitter">
                                                    <g id="Group">
                                                        <g id="Page-1">
                                                            <g id="Group">
                                                                <g id="Shape">
                                                                    <g id="1467658791_03-twitter">
                                                                        <g id="Layer_1" transform="translate(0.000000, 26.000000)" fill="#19C9B7">
                                                                            <path d="M12,24 C18.627417,24 24,18.627417 24,12 C24,5.372583 18.627417,0 12,0 C5.372583,0 0,5.372583 0,12 C0,18.627417 5.372583,24 12,24 L12,24 L12,24 L12,24 L12,24 L12,24 Z M17.96088,8.23536585 C17.52624,8.43170732 17.05848,8.56414634 16.56768,8.62341463 C17.0688,8.31853659 17.45304,7.83560976 17.63424,7.2595122 C17.16552,7.54219512 16.64664,7.74731707 16.09392,7.85804878 C15.6516,7.37902439 15.02112,7.0795122 14.32344,7.0795122 C12.984,7.0795122 11.898,8.18317073 11.898,9.54463415 C11.898,9.73756098 11.91936,9.92560976 11.96088,10.1063415 C9.94488,10.0034146 8.15736,9.02219512 6.96096,7.53073171 C6.75216,7.89463415 6.63264,8.31804878 6.63264,8.7702439 C6.63264,9.62536585 7.0608,10.38 7.71168,10.8219512 C7.31424,10.8090244 6.94008,10.6980488 6.61296,10.5134146 C6.61272,10.5236585 6.61272,10.5341463 6.61272,10.5446341 C6.61272,11.7387805 7.44888,12.734878 8.55864,12.9617073 C8.35512,13.0178049 8.1408,13.0480488 7.91952,13.0480488 C7.76304,13.0480488 7.61112,13.0326829 7.46304,13.0036585 C7.77192,13.9829268 8.6676,14.6958537 9.72888,14.7156098 C8.89872,15.3768293 7.85304,15.7709756 6.7164,15.7709756 C6.5208,15.7709756 6.3276,15.7592683 6.13776,15.7363415 C7.21152,16.4360976 8.4864,16.8439024 9.85608,16.8439024 C14.31792,16.8439024 16.75752,13.0878049 16.75752,9.8302439 C16.75752,9.72341463 16.75536,9.61682927 16.7508,9.51097561 C17.22456,9.16414634 17.63592,8.7297561 17.96088,8.23536585 L17.96088,8.23536585 L17.96088,8.23536585 L17.96088,8.23536585 L17.96088,8.23536585 L17.96088,8.23536585 Z" id="Combined-Shape"></path>
                                                                        </g>
                                                                        <g id="Layer_1-Copy-2" transform="translate(0.000000, 52.000000)" fill="#214669">
                                                                            <path d="M12,24 C18.627417,24 24,18.627417 24,12 C24,5.372583 18.627417,0 12,0 C5.372583,0 0,5.372583 0,12 C0,18.627417 5.372583,24 12,24 L12,24 L12,24 L12,24 L12,24 L12,24 Z M17.96088,8.23536585 C17.52624,8.43170732 17.05848,8.56414634 16.56768,8.62341463 C17.0688,8.31853659 17.45304,7.83560976 17.63424,7.2595122 C17.16552,7.54219512 16.64664,7.74731707 16.09392,7.85804878 C15.6516,7.37902439 15.02112,7.0795122 14.32344,7.0795122 C12.984,7.0795122 11.898,8.18317073 11.898,9.54463415 C11.898,9.73756098 11.91936,9.92560976 11.96088,10.1063415 C9.94488,10.0034146 8.15736,9.02219512 6.96096,7.53073171 C6.75216,7.89463415 6.63264,8.31804878 6.63264,8.7702439 C6.63264,9.62536585 7.0608,10.38 7.71168,10.8219512 C7.31424,10.8090244 6.94008,10.6980488 6.61296,10.5134146 C6.61272,10.5236585 6.61272,10.5341463 6.61272,10.5446341 C6.61272,11.7387805 7.44888,12.734878 8.55864,12.9617073 C8.35512,13.0178049 8.1408,13.0480488 7.91952,13.0480488 C7.76304,13.0480488 7.61112,13.0326829 7.46304,13.0036585 C7.77192,13.9829268 8.6676,14.6958537 9.72888,14.7156098 C8.89872,15.3768293 7.85304,15.7709756 6.7164,15.7709756 C6.5208,15.7709756 6.3276,15.7592683 6.13776,15.7363415 C7.21152,16.4360976 8.4864,16.8439024 9.85608,16.8439024 C14.31792,16.8439024 16.75752,13.0878049 16.75752,9.8302439 C16.75752,9.72341463 16.75536,9.61682927 16.7508,9.51097561 C17.22456,9.16414634 17.63592,8.7297561 17.96088,8.23536585 L17.96088,8.23536585 L17.96088,8.23536585 L17.96088,8.23536585 L17.96088,8.23536585 L17.96088,8.23536585 Z" id="Combined-Shape"></path>
                                                                        </g>
                                                                        <g id="Layer_1-Copy" fill="#6D7A8D">
                                                                            <path d="M12,24 C18.627417,24 24,18.627417 24,12 C24,5.372583 18.627417,0 12,0 C5.372583,0 0,5.372583 0,12 C0,18.627417 5.372583,24 12,24 L12,24 L12,24 L12,24 L12,24 L12,24 Z M17.96088,8.23536585 C17.52624,8.43170732 17.05848,8.56414634 16.56768,8.62341463 C17.0688,8.31853659 17.45304,7.83560976 17.63424,7.2595122 C17.16552,7.54219512 16.64664,7.74731707 16.09392,7.85804878 C15.6516,7.37902439 15.02112,7.0795122 14.32344,7.0795122 C12.984,7.0795122 11.898,8.18317073 11.898,9.54463415 C11.898,9.73756098 11.91936,9.92560976 11.96088,10.1063415 C9.94488,10.0034146 8.15736,9.02219512 6.96096,7.53073171 C6.75216,7.89463415 6.63264,8.31804878 6.63264,8.7702439 C6.63264,9.62536585 7.0608,10.38 7.71168,10.8219512 C7.31424,10.8090244 6.94008,10.6980488 6.61296,10.5134146 C6.61272,10.5236585 6.61272,10.5341463 6.61272,10.5446341 C6.61272,11.7387805 7.44888,12.734878 8.55864,12.9617073 C8.35512,13.0178049 8.1408,13.0480488 7.91952,13.0480488 C7.76304,13.0480488 7.61112,13.0326829 7.46304,13.0036585 C7.77192,13.9829268 8.6676,14.6958537 9.72888,14.7156098 C8.89872,15.3768293 7.85304,15.7709756 6.7164,15.7709756 C6.5208,15.7709756 6.3276,15.7592683 6.13776,15.7363415 C7.21152,16.4360976 8.4864,16.8439024 9.85608,16.8439024 C14.31792,16.8439024 16.75752,13.0878049 16.75752,9.8302439 C16.75752,9.72341463 16.75536,9.61682927 16.7508,9.51097561 C17.22456,9.16414634 17.63592,8.7297561 17.96088,8.23536585 L17.96088,8.23536585 L17.96088,8.23536585 L17.96088,8.23536585 L17.96088,8.23536585 L17.96088,8.23536585 Z" id="Combined-Shape"></path>
                                                                        </g>
                                                                    </g>
                                                                </g>
                                                            </g>
                                                        </g>
                                                    </g>
                                                </g>
                                            </g>
                                        </g>
                                        <g id="pcidss" stroke="none" stroke-width="1" fill="none" fill-rule="evenodd" font-weight="bold" transform="translate(11.000000, 36.000000)">
                                            <g id="Group-56" transform="translate(-1.000000, 1.000000)">
                                                <text id="PCI" font-family="DINCondensed-Bold, DIN Condensed" font-size="28" fill="#FFFFFF">
                                                    <tspan x="0.248" y="20">PCI</tspan>
                                                </text>
                                                <text id="DSS" font-family="Arial-BoldMT, Arial" font-size="10" fill="#8198B3">
                                                    <tspan x="30.2192383" y="11">DSS</tspan>
                                                </text>
                                                <text id="Compliant" font-family="Arial-BoldMT, Arial" font-size="3.5" fill="#8198B3">
                                                    <tspan x="32.9448242" y="16">Compliant</tspan>
                                                </text>
                                            </g>
                                        </g>
                                        <g id="visa" transform="translate(11.000000, 83.000000)">
                                            <g id="visa_pos_fc">
                                                <g id="Page-1">
                                                    <g id="Group">
                                                        <g id="visa_pos_fc" transform="translate(0.204082, 0.781026)">
                                                            <polygon id="Fill-1" fill="#FFFFFF" points="0 37.6052644 58 37.6052644 58 0.215370153 0 0.215370153"></polygon>
                                                            <polygon id="Fill-3" fill="#F1AD2B" points="0.965861111 36.6470035 57.0330648 36.6470035 57.0330648 31.5435488 0.965861111 31.5435488"></polygon>
                                                            <polygon id="Fill-4" fill="#172E66" points="0.965861111 6.2999859 57.0330648 6.2999859 57.0330648 1.19653114 0.965861111 1.19653114"></polygon>
                                                            <path d="M28.5158611,11.92251 L25.5605463,25.9501951 L21.9860278,25.9501951 L24.9416111,11.92251 L28.5158611,11.92251 L28.5158611,11.92251 L28.5158611,11.92251 L28.5158611,11.92251 L28.5158611,11.92251 L28.5158611,11.92251 Z M43.5539722,20.9805969 L45.43575,15.7124794 L46.5181481,20.9805969 L43.5539722,20.9805969 L43.5539722,20.9805969 L43.5539722,20.9805969 L43.5539722,20.9805969 L43.5539722,20.9805969 L43.5539722,20.9805969 Z M47.5441574,25.9501951 L50.8490833,25.9501951 L47.9614352,11.92251 L44.9126759,11.92251 C44.2252685,11.92251 43.6463426,12.3270787 43.3899074,12.9508343 L38.02625,25.9501951 L41.7804074,25.9501951 L42.5255463,23.8553796 L47.1107685,23.8553796 L47.5441574,25.9501951 L47.5441574,25.9501951 L47.5441574,25.9501951 L47.5441574,25.9501951 L47.5441574,25.9501951 L47.5441574,25.9501951 Z M38.2126019,21.3707168 C38.2281759,17.6688038 33.1719722,17.4635206 33.205537,15.8092597 C33.2165463,15.3065476 33.6886019,14.7713937 34.7213241,14.6345382 C35.2331204,14.5674736 36.6455278,14.5132221 38.2467037,15.2621105 L38.8728889,12.2861857 C38.0125556,11.9704912 36.9059907,11.6662468 35.5292963,11.6662468 C31.9955926,11.6662468 29.5096481,13.5718637 29.4897778,16.3029753 C29.4672222,18.3225476 31.2657593,19.4487427 32.61775,20.1212973 C34.0116296,20.8085734 34.4788519,21.2496733 34.4721389,21.8638872 C34.4624722,22.804973 33.3602037,23.2218096 32.334463,23.237349 C30.5361944,23.2659741 29.4940741,22.7441786 28.6632778,22.3507873 L28.014537,25.4262186 C28.8509722,25.8147027 30.392537,26.1532973 31.9883426,26.1704724 C35.7449167,26.1704724 38.2015926,24.2872103 38.2126019,21.3707168 L38.2126019,21.3707168 L38.2126019,21.3707168 L38.2126019,21.3707168 L38.2126019,21.3707168 L38.2126019,21.3707168 Z M23.4083704,11.92251 L17.6166944,25.9501951 L13.8386389,25.9501951 L10.9883148,14.7550364 C10.8156574,14.0669424 10.6650185,13.813678 10.1395278,13.5230646 C9.28,13.0487051 7.86087963,12.6054242 6.61334259,12.3298049 L6.69765741,11.92251 L12.7801389,11.92251 C13.5550833,11.92251 14.2518889,12.4459412 14.4291111,13.3521316 L15.9346944,21.4699506 L19.6531389,11.92251 L23.4083704,11.92251 L23.4083704,11.92251 L23.4083704,11.92251 L23.4083704,11.92251 L23.4083704,11.92251 L23.4083704,11.92251 Z" id="Fill-5" fill="#172E66"></path>
                                                        </g>
                                                    </g>
                                                </g>
                                            </g>
                                        </g>
                                        <g id="stars" transform="translate(11.000000, 0.000000)" fill="#FFFFFF">
                                            <g id="Layer_1">
                                                <path d="M18.509,6.055 L16.375,5.768 L14.242,5.48 L14.242,5.48 L12.809,5.287 L11.214,2.29 L10.26,0.497 C9.908,-0.166 9.331,-0.166 8.978,0.497 L8.024,2.29 L6.43,5.287 L4.997,5.48 L4.997,5.48 L2.863,5.768 L0.73,6.055 C-0.058,6.162 -0.236,6.67 0.334,7.186 L1.878,8.581 L4.458,10.914 L4.213,12.237 L4.213,12.238 L3.848,14.209 L3.483,16.182 C3.35,16.909 3.816,17.222 4.52,16.879 L7.582,15.386 L9.618,14.393 L11.654,15.386 L14.716,16.879 C15.42,17.223 15.886,16.909 15.753,16.182 L15.388,14.209 L15.023,12.238 L15.023,12.237 L14.778,10.914 L17.358,8.581 L18.901,7.186 C19.474,6.67 19.296,6.162 18.509,6.055 L18.509,6.055 L18.509,6.055 L18.509,6.055 L18.509,6.055 Z M51.873,6.055 L49.739,5.768 L47.606,5.48 L47.606,5.48 L46.173,5.287 L44.578,2.29 L43.624,0.497 C43.271,-0.166 42.695,-0.166 42.342,0.497 L41.389,2.29 L39.794,5.287 L38.361,5.48 L38.361,5.48 L36.228,5.768 L34.094,6.055 C33.306,6.161 33.128,6.67 33.698,7.186 L35.242,8.581 L37.822,10.914 L37.577,12.237 L37.577,12.238 L37.213,14.209 L36.848,16.182 C36.715,16.909 37.181,17.222 37.885,16.879 L40.947,15.386 L42.983,14.393 L45.019,15.386 L48.081,16.879 C48.785,17.223 49.252,16.909 49.118,16.182 L48.753,14.209 L48.389,12.238 L48.389,12.237 L48.144,10.914 L50.725,8.581 L52.268,7.186 C52.839,6.67 52.66,6.162 51.873,6.055 L51.873,6.055 L51.873,6.055 L51.873,6.055 L51.873,6.055 Z M85.234,6.055 L83.1,5.768 L80.968,5.48 L80.968,5.48 L79.535,5.287 L77.94,2.29 L76.986,0.497 C76.634,-0.166 76.057,-0.166 75.704,0.497 L74.75,2.29 L73.155,5.287 L71.722,5.48 L71.722,5.48 L69.589,5.768 L67.455,6.055 C66.668,6.161 66.489,6.67 67.06,7.186 L68.604,8.581 L71.184,10.914 L70.939,12.237 L70.939,12.238 L70.574,14.209 L70.209,16.182 C70.076,16.909 70.542,17.222 71.246,16.879 L74.308,15.386 L76.344,14.393 L78.38,15.386 L81.442,16.879 C82.146,17.223 82.613,16.909 82.479,16.182 L82.114,14.209 L81.749,12.238 L81.749,12.237 L81.504,10.914 L84.084,8.581 L85.627,7.186 C86.2,6.67 86.022,6.162 85.234,6.055 L85.234,6.055 L85.234,6.055 L85.234,6.055 L85.234,6.055 Z M118.599,6.055 L116.465,5.768 L114.332,5.48 L114.332,5.48 L112.899,5.287 L111.304,2.29 L110.35,0.497 C109.997,-0.166 109.421,-0.166 109.068,0.497 L108.114,2.29 L106.519,5.287 L105.086,5.48 L105.086,5.48 L102.953,5.768 L100.819,6.055 C100.031,6.161 99.853,6.67 100.423,7.186 L101.966,8.581 L104.546,10.914 L104.301,12.237 L104.301,12.238 L103.936,14.209 L103.571,16.182 C103.438,16.909 103.904,17.222 104.608,16.879 L107.67,15.386 L109.706,14.393 L111.742,15.386 L114.804,16.879 C115.508,17.223 115.974,16.909 115.841,16.182 L115.476,14.209 L115.111,12.238 L115.111,12.237 L114.866,10.914 L117.446,8.581 L118.99,7.186 C119.565,6.67 119.386,6.162 118.599,6.055 L118.599,6.055 L118.599,6.055 L118.599,6.055 L118.599,6.055 Z M152.272,6.055 L150.138,5.768 L148.005,5.48 L148.005,5.48 L146.572,5.287 L144.977,2.29 L144.023,0.497 C143.67,-0.166 143.094,-0.166 142.741,0.497 L141.787,2.29 L140.192,5.287 L138.76,5.48 L138.76,5.48 L136.627,5.768 L134.493,6.055 C133.706,6.161 133.527,6.67 134.098,7.186 L135.641,8.581 L138.221,10.914 L137.976,12.237 L137.976,12.238 L137.611,14.209 L137.246,16.182 C137.113,16.909 137.579,17.222 138.283,16.879 L141.345,15.386 L143.381,14.393 L145.417,15.386 L148.479,16.879 C149.183,17.223 149.649,16.909 149.516,16.182 L149.151,14.209 L148.787,12.238 L148.787,12.237 L148.542,10.914 L151.122,8.581 L152.666,7.186 C153.237,6.67 153.059,6.162 152.272,6.055 L152.272,6.055 L152.272,6.055 L152.272,6.055 L152.272,6.055 Z" id="Shape"></path>
                                            </g>
                                        </g>
                                        <g id="social-gplus" transform="translate(115.000000, 87.000000)">
                                            <g id="Group-2">
                                                <g id="Page-1">
                                                    <g id="Group-2">
                                                        <g id="Group" transform="translate(0.000000, 26.000000)" fill="#19C9B7">
                                                            <g id="Combined-Shape">
                                                                <path d="M12,24 C18.627417,24 24,18.627417 24,12 C24,5.372583 18.627417,0 12,0 C5.372583,0 0,5.372583 0,12 C0,18.627417 5.372583,24 12,24 L12,24 L12,24 L12,24 L12,24 Z M19.0311232,11.8656771 C19.0267062,11.4384401 19.0245123,11.0090664 19.0223184,10.5818579 L17.7107834,10.5818579 C17.7063664,11.0090949 17.7019786,11.4363034 17.6997555,11.8656771 C17.2589012,11.8678139 16.8202407,11.8699791 16.3816096,11.8742811 L16.3816096,13.1516615 C16.8202407,13.1559635 17.2610951,13.1602655 17.6997555,13.164539 C17.7041725,13.591776 17.7041725,14.0189845 17.7085895,14.4462215 L19.0223184,14.4462215 C19.0245123,14.0189845 19.0267062,13.591776 19.0311232,13.1624023 C19.4719775,13.1581003 19.910638,13.1559635 20.3492691,13.1516615 L20.3492691,11.8742811 C19.910638,11.8699791 19.4697837,11.8699791 19.0311232,11.8656771 L19.0311232,11.8656771 L19.0311232,11.8656771 L19.0311232,11.8656771 L19.0311232,11.8656771 Z M10.4301202,11.8721159 C10.4279263,12.3830851 10.4301202,12.8940259 10.4323433,13.4049667 C11.3118581,13.4328869 12.1935375,13.4199809 13.0730522,13.4328869 C12.6851145,15.3328607 10.0311838,15.9489868 8.62706673,14.7081306 C7.18325495,13.6196678 7.25158723,11.2323715 8.75270333,10.2212022 C9.80193718,9.40538925 11.2942192,9.60718437 12.3434238,10.31351 C12.7556406,9.94211354 13.1413552,9.54493358 13.5138773,9.13273936 C12.6410027,8.45433399 11.5697422,7.97128497 10.4301202,8.0228235 C8.05174176,7.94552996 5.86510904,9.97430731 5.82544356,12.2907773 C5.67333405,14.1842839 6.95181448,16.0413231 8.75712036,16.711153 C10.5557861,17.3852563 12.8614445,16.9258256 14.0098713,15.352177 C14.7681372,14.3581872 14.9312454,13.07867 14.8430804,11.8764178 C13.3706018,11.8656771 11.9003756,11.8678139 10.4301202,11.8721159 L10.4301202,11.8721159 L10.4301202,11.8721159 L10.4301202,11.8721159 L10.4301202,11.8721159 Z" id="path-1"></path>
                                                            </g>
                                                        </g>
                                                        <g id="Group-Copy" fill="#6D7A8D">
                                                            <g id="Combined-Shape">
                                                                <path d="M12,24 C18.627417,24 24,18.627417 24,12 C24,5.372583 18.627417,0 12,0 C5.372583,0 0,5.372583 0,12 C0,18.627417 5.372583,24 12,24 L12,24 L12,24 L12,24 L12,24 Z M19.0311232,11.8656771 C19.0267062,11.4384401 19.0245123,11.0090664 19.0223184,10.5818579 L17.7107834,10.5818579 C17.7063664,11.0090949 17.7019786,11.4363034 17.6997555,11.8656771 C17.2589012,11.8678139 16.8202407,11.8699791 16.3816096,11.8742811 L16.3816096,13.1516615 C16.8202407,13.1559635 17.2610951,13.1602655 17.6997555,13.164539 C17.7041725,13.591776 17.7041725,14.0189845 17.7085895,14.4462215 L19.0223184,14.4462215 C19.0245123,14.0189845 19.0267062,13.591776 19.0311232,13.1624023 C19.4719775,13.1581003 19.910638,13.1559635 20.3492691,13.1516615 L20.3492691,11.8742811 C19.910638,11.8699791 19.4697837,11.8699791 19.0311232,11.8656771 L19.0311232,11.8656771 L19.0311232,11.8656771 L19.0311232,11.8656771 L19.0311232,11.8656771 Z M10.4301202,11.8721159 C10.4279263,12.3830851 10.4301202,12.8940259 10.4323433,13.4049667 C11.3118581,13.4328869 12.1935375,13.4199809 13.0730522,13.4328869 C12.6851145,15.3328607 10.0311838,15.9489868 8.62706673,14.7081306 C7.18325495,13.6196678 7.25158723,11.2323715 8.75270333,10.2212022 C9.80193718,9.40538925 11.2942192,9.60718437 12.3434238,10.31351 C12.7556406,9.94211354 13.1413552,9.54493358 13.5138773,9.13273936 C12.6410027,8.45433399 11.5697422,7.97128497 10.4301202,8.0228235 C8.05174176,7.94552996 5.86510904,9.97430731 5.82544356,12.2907773 C5.67333405,14.1842839 6.95181448,16.0413231 8.75712036,16.711153 C10.5557861,17.3852563 12.8614445,16.9258256 14.0098713,15.352177 C14.7681372,14.3581872 14.9312454,13.07867 14.8430804,11.8764178 C13.3706018,11.8656771 11.9003756,11.8678139 10.4301202,11.8721159 L10.4301202,11.8721159 L10.4301202,11.8721159 L10.4301202,11.8721159 L10.4301202,11.8721159 Z" id="path-3"></path>
                                                            </g>
                                                        </g>
                                                        <g id="Group-Copy-2" transform="translate(0.000000, 52.000000)" fill="#214669">
                                                            <g id="Combined-Shape">
                                                                <path d="M12,24 C18.627417,24 24,18.627417 24,12 C24,5.372583 18.627417,0 12,0 C5.372583,0 0,5.372583 0,12 C0,18.627417 5.372583,24 12,24 L12,24 L12,24 L12,24 L12,24 Z M19.0311232,11.8656771 C19.0267062,11.4384401 19.0245123,11.0090664 19.0223184,10.5818579 L17.7107834,10.5818579 C17.7063664,11.0090949 17.7019786,11.4363034 17.6997555,11.8656771 C17.2589012,11.8678139 16.8202407,11.8699791 16.3816096,11.8742811 L16.3816096,13.1516615 C16.8202407,13.1559635 17.2610951,13.1602655 17.6997555,13.164539 C17.7041725,13.591776 17.7041725,14.0189845 17.7085895,14.4462215 L19.0223184,14.4462215 C19.0245123,14.0189845 19.0267062,13.591776 19.0311232,13.1624023 C19.4719775,13.1581003 19.910638,13.1559635 20.3492691,13.1516615 L20.3492691,11.8742811 C19.910638,11.8699791 19.4697837,11.8699791 19.0311232,11.8656771 L19.0311232,11.8656771 L19.0311232,11.8656771 L19.0311232,11.8656771 L19.0311232,11.8656771 Z M10.4301202,11.8721159 C10.4279263,12.3830851 10.4301202,12.8940259 10.4323433,13.4049667 C11.3118581,13.4328869 12.1935375,13.4199809 13.0730522,13.4328869 C12.6851145,15.3328607 10.0311838,15.9489868 8.62706673,14.7081306 C7.18325495,13.6196678 7.25158723,11.2323715 8.75270333,10.2212022 C9.80193718,9.40538925 11.2942192,9.60718437 12.3434238,10.31351 C12.7556406,9.94211354 13.1413552,9.54493358 13.5138773,9.13273936 C12.6410027,8.45433399 11.5697422,7.97128497 10.4301202,8.0228235 C8.05174176,7.94552996 5.86510904,9.97430731 5.82544356,12.2907773 C5.67333405,14.1842839 6.95181448,16.0413231 8.75712036,16.711153 C10.5557861,17.3852563 12.8614445,16.9258256 14.0098713,15.352177 C14.7681372,14.3581872 14.9312454,13.07867 14.8430804,11.8764178 C13.3706018,11.8656771 11.9003756,11.8678139 10.4301202,11.8721159 L10.4301202,11.8721159 L10.4301202,11.8721159 L10.4301202,11.8721159 L10.4301202,11.8721159 Z" id="path-5"></path>
                                                            </g>
                                                        </g>
                                                    </g>
                                                </g>
                                            </g>
                                        </g>
                                    </g>
                                </g>
                                <g id="mc_vrt_pos-white" transform="translate(6.000000, 127.000000)">
                                    <g id="mc_vrt_pos">
                                        <g id="Single-Bundles-Page">
                                            <g id="1.0.1-Active(loginned)">
                                                <g id="Group-12">
                                                    <g id="mc_vrt_pos">
                                                        <g id="Layer_1">
                                                            <g id="Group">
                                                                <rect id="Rectangle-path" x="0.27972973" y="0.380327869" width="68.4405405" height="57.2393442"></rect>
                                                                <g transform="translate(6.993243, 7.131148)">
                                                                    <path d="M10.2101351,43.3098361 L10.2101351,40.457377 C10.2101351,39.3639344 9.55743243,38.6508197 8.43851351,38.6508197 C7.87905405,38.6508197 7.27297297,38.8409835 6.85337838,39.4590165 C6.52702703,38.9360655 6.06081082,38.6508197 5.36148649,38.6508197 C4.89527028,38.6508197 4.42905405,38.7934427 4.05608108,39.3163934 L4.05608108,38.7459017 L3.07702703,38.7459017 L3.07702703,43.3098361 L4.05608108,43.3098361 L4.05608108,40.7901639 C4.05608108,39.9819672 4.47567567,39.6016393 5.12837838,39.6016393 C5.78108108,39.6016393 6.10743243,40.0295082 6.10743243,40.7901639 L6.10743243,43.3098361 L7.08648649,43.3098361 L7.08648649,40.7901639 C7.08648649,39.9819672 7.5527027,39.6016393 8.15878379,39.6016393 C8.81148649,39.6016393 9.13783784,40.0295082 9.13783784,40.7901639 L9.13783784,43.3098361 L10.2101351,43.3098361 L10.2101351,43.3098361 L10.2101351,43.3098361 Z M24.7094595,38.7459017 L23.1243243,38.7459017 L23.1243243,37.3672131 L22.1452703,37.3672131 L22.1452703,38.7459017 L21.2594595,38.7459017 L21.2594595,39.6491803 L22.1452703,39.6491803 L22.1452703,41.7409835 C22.1452703,42.7868852 22.5648649,43.404918 23.6837838,43.404918 C24.1033784,43.404918 24.5695946,43.2622951 24.8959459,43.0721311 L24.6162162,42.2163934 C24.3364864,42.4065573 24.0101351,42.4540983 23.777027,42.4540983 C23.3108108,42.4540983 23.1243243,42.1688524 23.1243243,41.6934427 L23.1243243,39.6491803 L24.7094595,39.6491803 L24.7094595,38.7459017 L24.7094595,38.7459017 L24.7094595,38.7459017 Z M33.0081082,38.6508197 C32.4486487,38.6508197 32.0756757,38.9360655 31.8425676,39.3163934 L31.8425676,38.7459017 L30.8635136,38.7459017 L30.8635136,43.3098361 L31.8425676,43.3098361 L31.8425676,40.742623 C31.8425676,39.9819672 32.1689189,39.5540983 32.775,39.5540983 C32.9614864,39.5540983 33.1945946,39.6016393 33.381081,39.6491803 L33.6608108,38.6983607 C33.4743243,38.6508197 33.1945946,38.6508197 33.0081082,38.6508197 L33.0081082,38.6508197 L33.0081082,38.6508197 L33.0081082,38.6508197 Z M20.4668918,39.1262296 C20.0006757,38.7934427 19.347973,38.6508197 18.6486487,38.6508197 C17.5297297,38.6508197 16.7837838,39.2213114 16.7837838,40.1245901 C16.7837838,40.8852459 17.3432433,41.3131148 18.3222972,41.4557377 L18.7885136,41.5032787 C19.3013513,41.5983607 19.581081,41.7409835 19.581081,41.9786886 C19.581081,42.3114755 19.2081082,42.5491803 18.5554054,42.5491803 C17.9027028,42.5491803 17.3898649,42.3114755 17.0635136,42.0737704 L16.5972972,42.8344262 C17.1101351,43.2147541 17.8094595,43.404918 18.5087838,43.404918 C19.8141892,43.404918 20.5601351,42.7868852 20.5601351,41.9311476 C20.5601351,41.1229508 19.9540541,40.695082 19.0216216,40.552459 L18.5554054,40.504918 C18.1358108,40.457377 17.8094595,40.3622951 17.8094595,40.0770492 C17.8094595,39.7442623 18.1358108,39.5540983 18.6486487,39.5540983 C19.2081082,39.5540983 19.7675676,39.7918033 20.0472972,39.9344262 L20.4668918,39.1262296 L20.4668918,39.1262296 L20.4668918,39.1262296 Z M46.4817567,38.6508197 C45.9222972,38.6508197 45.5493243,38.9360655 45.3162162,39.3163934 L45.3162162,38.7459017 L44.3371621,38.7459017 L44.3371621,43.3098361 L45.3162162,43.3098361 L45.3162162,40.742623 C45.3162162,39.9819672 45.6425676,39.5540983 46.2486487,39.5540983 C46.4351351,39.5540983 46.6682433,39.6016393 46.8547297,39.6491803 L47.1344595,38.6983607 C46.947973,38.6508197 46.6682433,38.6508197 46.4817567,38.6508197 L46.4817567,38.6508197 L46.4817567,38.6508197 L46.4817567,38.6508197 Z M33.9871621,41.0278689 C33.9871621,42.4065573 34.9195946,43.404918 36.3648649,43.404918 C37.0175676,43.404918 37.4837838,43.2622951 37.95,42.8819672 L37.4837838,42.0737704 C37.1108108,42.3590165 36.7378379,42.5016393 36.3182433,42.5016393 C35.5256757,42.5016393 34.9662162,41.9311476 34.9662162,41.0278689 C34.9662162,40.1721311 35.5256757,39.6016393 36.3182433,39.5540983 C36.7378379,39.5540983 37.1108108,39.6967213 37.4837838,39.9819672 L37.95,39.1737704 C37.4837838,38.7934427 37.0175676,38.6508197 36.3648649,38.6508197 C34.9195946,38.6508197 33.9871621,39.6491803 33.9871621,41.0278689 L33.9871621,41.0278689 L33.9871621,41.0278689 L33.9871621,41.0278689 Z M43.0317567,41.0278689 L43.0317567,38.7459017 L42.0527028,38.7459017 L42.0527028,39.3163934 C41.7263513,38.8885245 41.2601351,38.6508197 40.6540541,38.6508197 C39.3952703,38.6508197 38.4162162,39.6491803 38.4162162,41.0278689 C38.4162162,42.4065573 39.3952703,43.404918 40.6540541,43.404918 C41.3067567,43.404918 41.772973,43.1672131 42.0527028,42.7393442 L42.0527028,43.3098361 L43.0317567,43.3098361 L43.0317567,41.0278689 L43.0317567,41.0278689 L43.0317567,41.0278689 Z M39.4418918,41.0278689 C39.4418918,40.2196721 39.9547297,39.5540983 40.7939189,39.5540983 C41.5864864,39.5540983 42.1459459,40.1721311 42.1459459,41.0278689 C42.1459459,41.8360655 41.5864864,42.5016393 40.7939189,42.5016393 C39.9547297,42.4540983 39.4418918,41.8360655 39.4418918,41.0278689 L39.4418918,41.0278689 L39.4418918,41.0278689 L39.4418918,41.0278689 Z M27.7398649,38.6508197 C26.4344595,38.6508197 25.502027,39.6016393 25.502027,41.0278689 C25.502027,42.4540983 26.4344595,43.404918 27.7864864,43.404918 C28.4391892,43.404918 29.0918918,43.2147541 29.6047297,42.7868852 L29.1385136,42.0737704 C28.7655405,42.3590165 28.2993243,42.5491803 27.8331082,42.5491803 C27.227027,42.5491803 26.6209459,42.2639344 26.4810811,41.4557377 L29.7912162,41.4557377 L29.7912162,41.0754099 C29.8378379,39.6016393 28.9986487,38.6508197 27.7398649,38.6508197 L27.7398649,38.6508197 L27.7398649,38.6508197 L27.7398649,38.6508197 Z M27.7398649,39.5065573 C28.3459459,39.5065573 28.7655405,39.8868852 28.8587838,40.6 L26.5277028,40.6 C26.6209459,39.9819672 27.0405405,39.5065573 27.7398649,39.5065573 L27.7398649,39.5065573 L27.7398649,39.5065573 L27.7398649,39.5065573 Z M52.0297297,41.0278689 L52.0297297,36.9393442 L51.0506757,36.9393442 L51.0506757,39.3163934 C50.7243243,38.8885245 50.2581082,38.6508197 49.652027,38.6508197 C48.3932433,38.6508197 47.4141892,39.6491803 47.4141892,41.0278689 C47.4141892,42.4065573 48.3932433,43.404918 49.652027,43.404918 C50.3047297,43.404918 50.7709459,43.1672131 51.0506757,42.7393442 L51.0506757,43.3098361 L52.0297297,43.3098361 L52.0297297,41.0278689 L52.0297297,41.0278689 L52.0297297,41.0278689 Z M48.4398649,41.0278689 C48.4398649,40.2196721 48.9527028,39.5540983 49.7918918,39.5540983 C50.5844595,39.5540983 51.1439189,40.1721311 51.1439189,41.0278689 C51.1439189,41.8360655 50.5844595,42.5016393 49.7918918,42.5016393 C48.9527028,42.4540983 48.4398649,41.8360655 48.4398649,41.0278689 L48.4398649,41.0278689 L48.4398649,41.0278689 L48.4398649,41.0278689 Z M15.7114864,41.0278689 L15.7114864,38.7459017 L14.7324324,38.7459017 L14.7324324,39.3163934 C14.406081,38.8885245 13.9398649,38.6508197 13.3337838,38.6508197 C12.075,38.6508197 11.0959459,39.6491803 11.0959459,41.0278689 C11.0959459,42.4065573 12.075,43.404918 13.3337838,43.404918 C13.9864865,43.404918 14.4527028,43.1672131 14.7324324,42.7393442 L14.7324324,43.3098361 L15.7114864,43.3098361 L15.7114864,41.0278689 L15.7114864,41.0278689 L15.7114864,41.0278689 Z M12.075,41.0278689 C12.075,40.2196721 12.5878378,39.5540983 13.427027,39.5540983 C14.2195946,39.5540983 14.7790541,40.1721311 14.7790541,41.0278689 C14.7790541,41.8360655 14.2195946,42.5016393 13.427027,42.5016393 C12.5878378,42.4540983 12.075,41.8360655 12.075,41.0278689 L12.075,41.0278689 L12.075,41.0278689 Z" id="XMLID_1775_" fill="#FFFFFF"></path>
                                                                    <g id="XMLID_328_" transform="translate(-0.000000, 0.000000)">
                                                                        <rect id="Rectangle-path" fill="#FF5F00" x="20.1405405" y="4.08852459" width="14.6858108" height="26.9081966"></rect>
                                                                        <path d="M21.072973,17.542623 C21.072973,12.0754098 23.5905405,7.22622951 27.4601351,4.08852459 C24.6162162,1.80655738 21.0263513,0.427868852 17.1101351,0.427868852 C7.83243243,0.427868852 0.326351351,8.08196721 0.326351351,17.542623 C0.326351351,27.0032787 7.83243243,34.657377 17.1101351,34.657377 C21.0263513,34.657377 24.6162162,33.2786886 27.4601351,30.9967213 C23.5905405,27.9065573 21.072973,23.0098361 21.072973,17.542623 L21.072973,17.542623 L21.072973,17.542623 Z" id="XMLID_330_" fill="#EB001B"></path>
                                                                        <path d="M54.6405405,17.542623 C54.6405405,27.0032787 47.1344595,34.657377 37.8567567,34.657377 C33.9405405,34.657377 30.3506757,33.2786886 27.5067567,30.9967213 C31.422973,27.8590165 33.893919,23.0098361 33.893919,17.542623 C33.893919,12.0754098 31.3763513,7.22622951 27.5067567,4.08852459 C30.3506757,1.80655738 33.9405405,0.427868852 37.8567567,0.427868852 C47.1344595,0.427868852 54.6405405,8.1295082 54.6405405,17.542623 L54.6405405,17.542623 L54.6405405,17.542623 Z" id="Shape" fill="#F79E1B"></path>
                                                                    </g>
                                                                </g>
                                                            </g>
                                                        </g>
                                                    </g>
                                                </g>
                                            </g>
                                        </g>
                                    </g>
                                </g>
                            </g>
                        </g>
                    </g>
                </g>
            </g>
        </g>
    </g>
</svg>