<svg id="SVGDoc" width="17" height="21" xmlns="http://www.w3.org/2000/svg" version="1.1" xmlns:xlink="http://www.w3.org/1999/xlink" xmlns:avocode="https://avocode.com/" viewBox="0 0 17 21"><defs><path d="M674.46621,1894.46027c-0.36107,0.13126 -0.67705,0.25793 -0.99925,0.36144c-4.48855,1.44217 -9.22949,-1.61833 -10.2583,-6.61546c-0.31148,-1.51288 -0.27561,-3.01185 0.11687,-4.50123c0.13909,-0.52784 0.55706,-0.80536 1.01067,-0.67171c0.46648,0.13743 0.71145,0.61407 0.57355,1.14846c-0.50239,1.9468 -0.33201,3.81978 0.58397,5.575c1.05865,2.02853 2.67751,3.22421 4.786,3.56962c1.50276,0.24625 2.9262,-0.07555 4.27061,-0.93568c-0.10811,-0.05403 -0.19538,-0.10091 -0.28492,-0.1419c-0.66005,-0.30186 -1.32141,-0.60048 -1.98066,-0.90441c-0.36614,-0.1688 -0.56271,-0.51556 -0.53553,-0.92635c0.02418,-0.36522 0.26085,-0.70089 0.60131,-0.78035c0.16627,-0.03876 0.36849,-0.04036 0.52239,0.02779c1.208,0.53491 2.41162,1.08208 3.60924,1.64423c0.51151,0.2401 0.62446,0.65527 0.42489,1.24054c-0.44618,1.30851 -0.95538,2.59147 -1.44678,3.88124c-0.18104,0.4752 -0.65117,0.68709 -1.06307,0.50194c-0.40651,-0.18272 -0.59608,-0.70063 -0.42239,-1.17634c0.15366,-0.42097 0.31698,-0.83777 0.4914,-1.29683" id="Path-0"/><path d="M668.48184,1880.50117c0.656,0.29395 1.27792,0.57182 1.89919,0.85136c0.37767,0.16987 0.56383,0.5103 0.52609,0.95616c-0.03236,0.38191 -0.29242,0.70375 -0.6622,0.77811c-0.13223,0.02656 -0.28738,0.01906 -0.41229,-0.03211c-1.12124,-0.45917 -2.23766,-0.93267 -3.35639,-1.39934c-0.29896,-0.12472 -0.50128,-0.42165 -0.47373,-0.78446c0.02,-0.2641 0.04843,-0.53694 0.12768,-0.78442c0.36974,-1.1549 0.75638,-2.30319 1.14147,-3.45199c0.13949,-0.41606 0.45284,-0.64993 0.82339,-0.63369c0.34539,0.01514 0.66666,0.26969 0.74137,0.65578c0.03917,0.20249 0.01558,0.43853 -0.03797,0.64047c-0.09998,0.37696 -0.24248,0.74011 -0.38451,1.1598c0.10533,-0.04413 0.16781,-0.06839 0.22897,-0.09623c1.28616,-0.58602 2.62237,-0.80962 4.00459,-0.64853c3.60549,0.42024 6.57471,3.45885 7.21459,7.38097c0.23025,1.41129 0.17416,2.81084 -0.18316,4.19313c-0.13522,0.523 -0.55832,0.81179 -1.01643,0.68354c-0.44469,-0.12446 -0.70591,-0.63275 -0.57387,-1.15247c0.19435,-0.76502 0.28387,-1.54201 0.24971,-2.33521c-0.08448,-1.96209 -0.76807,-3.62732 -2.0475,-4.98275c-0.98623,-1.04481 -2.16579,-1.68033 -3.51366,-1.90311c-1.50601,-0.24897 -2.92828,0.04468 -4.29534,0.90499" id="Path-1"/></defs><desc>Generated with Avocode.</desc><g transform="matrix(1,0,0,1,-663,-1876)"><g><title>Page 1</title><g><title>Fill 1</title><use xlink:href="#Path-0" fill="#ffffff" fill-opacity="1"/></g><g><title>Fill 3</title><use xlink:href="#Path-1" fill="#ffffff" fill-opacity="1"/></g></g></g></svg>