<svg id="SVGDoc" width="39" height="21.42999999999995" xmlns="http://www.w3.org/2000/svg" version="1.1" xmlns:xlink="http://www.w3.org/1999/xlink" xmlns:avocode="https://avocode.com/" viewBox="0 0 39 21.42999999999995"><defs><path d="M485,860c0,-2.20914 1.79086,-4 4,-4h10c2.20914,0 4,1.79086 4,4v12.57c0,2.20914 -1.79086,4 -4,4h-10c-2.20914,0 -4,-1.79086 -4,-4z" id="Path-0"/><path d="M494.97271,870.94126c0,0.2715 -0.24238,0.4916 -0.54136,0.4916c-0.29898,0 -0.54135,-0.2201 -0.54135,-0.4916v-10.15966c0,-0.2715 0.24237,-0.4916 0.54135,-0.4916c0.29898,0 0.54136,0.2201 0.54136,0.4916z" id="Path-1"/><path d="M494.04856,861.12921c-0.21141,-0.19198 -0.21141,-0.50324 0,-0.69522c0.21141,-0.19199 0.55418,-0.19199 0.76559,0l2.67956,2.43327c0.21141,0.19198 0.21141,0.50325 0,0.69523c-0.21141,0.19198 -0.55418,0.19198 -0.76559,0z" id="Path-2"/><path d="M494.81371,861.12921c0.21141,-0.19198 0.21141,-0.50324 0,-0.69522c-0.21141,-0.19199 -0.55418,-0.19199 -0.76559,0l-2.67956,2.43327c-0.21141,0.19198 -0.21141,0.50325 0,0.69523c0.21141,0.19198 0.55418,0.19198 0.76559,0z" id="Path-3"/><path d="M506,859.57c0,-2.20914 1.79086,-4 4,-4h10c2.20914,0 4,1.79086 4,4v12.57c0,2.20914 -1.79086,4 -4,4h-10c-2.20914,0 -4,-1.79086 -4,-4z" id="Path-4"/><path d="M515.97271,870.51126c0,0.2715 -0.24238,0.4916 -0.54136,0.4916c-0.29898,0 -0.54135,-0.2201 -0.54135,-0.4916v-10.15966c0,-0.2715 0.24237,-0.4916 0.54135,-0.4916c0.29898,0 0.54136,0.2201 0.54136,0.4916z" id="Path-5"/><path d="M515.04856,860.69921c-0.21141,-0.19198 -0.21141,-0.50324 0,-0.69522c0.21141,-0.19199 0.55418,-0.19199 0.76559,0l2.67956,2.43327c0.21141,0.19198 0.21141,0.50325 0,0.69523c-0.21141,0.19198 -0.55418,0.19198 -0.76559,0z" id="Path-6"/><path d="M515.81371,860.69921c0.21141,-0.19198 0.21141,-0.50324 0,-0.69522c-0.21141,-0.19199 -0.55418,-0.19199 -0.76559,0l-2.67956,2.43327c-0.21141,0.19198 -0.21141,0.50325 0,0.69523c0.21141,0.19198 0.55418,0.19198 0.76559,0z" id="Path-7"/></defs><desc>Generated with Avocode.</desc><g transform="matrix(1,0,0,1,-485,-855.57)"><g><title>Group 16</title><g opacity="0.6"><title>Rectangle</title><use xlink:href="#Path-0" fill="#00afaf" fill-opacity="1"/></g><g><title>Group 15</title><g><title>Line 5</title><use xlink:href="#Path-1" fill="#ffffff" fill-opacity="1"/></g><g><title>Line 6</title><use xlink:href="#Path-2" fill="#ffffff" fill-opacity="1"/></g><g><title>Line 6 Copy</title><use xlink:href="#Path-3" fill="#ffffff" fill-opacity="1"/></g></g></g><g transform="matrix(1,0,0,-1,0,1731.71)"><title>Group 16 Copy</title><g opacity="0.6"><title>Rectangle</title><use xlink:href="#Path-4" fill="#00afaf" fill-opacity="1"/></g><g><title>Group 15</title><g><title>Line 5</title><use xlink:href="#Path-5" fill="#ffffff" fill-opacity="1"/></g><g><title>Line 6</title><use xlink:href="#Path-6" fill="#ffffff" fill-opacity="1"/></g><g><title>Line 6 Copy</title><use xlink:href="#Path-7" fill="#ffffff" fill-opacity="1"/></g></g></g></g></svg>