<?xml version="1.0" encoding="utf-8"?>
<!-- Generator: Adobe Illustrator 18.1.0, SVG Export Plug-In . SVG Version: 6.00 Build 0)  -->
<!DOCTYPE svg PUBLIC "-//W3C//DTD SVG 1.1//EN" "http://www.w3.org/Graphics/SVG/1.1/DTD/svg11.dtd">
<svg version="1.1" id="Layer_1" xmlns="http://www.w3.org/2000/svg" xmlns:xlink="http://www.w3.org/1999/xlink" x="0px" y="0px"
	 viewBox="0 0 64 64" enable-background="new 0 0 64 64" xml:space="preserve">
<path id="MAIL_2_" fill-rule="evenodd" clip-rule="evenodd" fill="#FFFFFF" d="M43.6,29.7l19.5-18.9c0.6,0.5,0.9,1.3,0.9,2.1v38
	c0,0.8-0.3,1.5-0.8,2L43.6,29.7z M1,10.8C1.5,10.3,2.2,10,3,10h58c0.8,0,1.5,0.3,2,0.8L32,35L1,10.8z M0.8,53C0.3,52.5,0,51.8,0,51
	V13c0-0.8,0.3-1.6,0.9-2.1l19.5,18.9L0.8,53z M32,41l8.1-7.9l22.9,20.1C62.5,53.7,61.8,54,61,54H3c-0.8,0-1.5-0.3-2.1-0.8l22.9-20.1
	L32,41z"/>
</svg>
