<?xml version="1.0" encoding="utf-8"?>
<!-- Generator: Adobe Illustrator 18.1.0, SVG Export Plug-In . SVG Version: 6.00 Build 0)  -->
<!DOCTYPE svg PUBLIC "-//W3C//DTD SVG 1.1//EN" "http://www.w3.org/Graphics/SVG/1.1/DTD/svg11.dtd">
<svg version="1.1" id="Layer_1" xmlns="http://www.w3.org/2000/svg" xmlns:xlink="http://www.w3.org/1999/xlink" x="0px" y="0px"
	 viewBox="0 0 64 64" enable-background="new 0 0 64 64" xml:space="preserve">
<path id="facebook_5_" fill-rule="evenodd" clip-rule="evenodd" fill="#FFFFFF" d="M59.1,64H4.9C2.2,64,0,62,0,59.3V4.9
	C0,2.2,2.2,0,4.9,0h54.1C61.8,0,64,2.2,64,4.9v54.4C64,62,61.8,64,59.1,64z M27.3,12.3c-2.9,0-5.8,0.5-7.7,1.4
	c-1.9,0.9-3.3,2.6-4,4.1c-0.7,1.5-1.1,3.3-1.1,6.3V27H9.8v7.5h4.8v24.9h10.2V34.5h6.4l1.8-7.5h-8.1v-2.7c0-1.8,0.3-3.1,1-3.7
	c0.7-0.6,2-1,3.5-1c1.5,0,2.8,0.7,4.4,1.6l1.9-7.1C32.6,13.3,30.3,12.3,27.3,12.3z"/>
</svg>
