<?xml version="1.0" encoding="utf-8"?>
<!-- Generator: Adobe Illustrator 18.1.0, SVG Export Plug-In . SVG Version: 6.00 Build 0)  -->
<!DOCTYPE svg PUBLIC "-//W3C//DTD SVG 1.1//EN" "http://www.w3.org/Graphics/SVG/1.1/DTD/svg11.dtd">
<svg version="1.1" id="Layer_1" xmlns="http://www.w3.org/2000/svg" xmlns:xlink="http://www.w3.org/1999/xlink" x="0px" y="0px"
	 viewBox="0 0 64 64" enable-background="new 0 0 64 64" xml:space="preserve">
<path id="twitter_2_" fill-rule="evenodd" clip-rule="evenodd" fill="#FFFFFF" d="M43.5,6c5.1-0.1,7.8,1.8,10.4,4.1
	c2.2-0.2,5-1.4,6.7-2.3c0.5-0.3,1.1-0.6,1.6-0.9c-1,2.6-2.3,4.6-4.3,6.2c-0.4,0.3-0.9,0.8-1.4,1c0,0,0,0,0,0c2.8,0,5.2-1.3,7.4-2
	c0,0,0,0,0,0c-1.2,1.9-2.8,3.8-4.5,5.1c-0.7,0.5-1.4,1.1-2,1.6c0,3,0,5.9-0.6,8.4c-3.3,14.7-12,24.7-25.7,29
	c-4.9,1.5-12.9,2.2-18.6,0.8c-2.8-0.7-5.3-1.5-7.7-2.5c-1.3-0.6-2.5-1.2-3.7-1.9C0.8,52.5,0.4,52.3,0,52c1.3,0,2.8,0.4,4.2,0.2
	c1.3-0.2,2.6-0.2,3.7-0.4c3-0.7,5.6-1.5,7.9-2.8c1.1-0.6,2.8-1.4,3.6-2.3c-1.5,0-2.8-0.3-3.9-0.7c-4.2-1.5-6.7-4.3-8.3-8.4
	c1.3,0.1,5,0.5,5.9-0.3c-1.6-0.1-3.2-1-4.3-1.7c-3.4-2.1-6.2-5.7-6.2-11.2c0.4,0.2,0.9,0.4,1.3,0.6c0.9,0.4,1.7,0.6,2.8,0.8
	c0.4,0.1,1.3,0.3,1.8,0.2c0,0,0,0-0.1,0c-0.7-0.8-1.7-1.3-2.4-2.1C3.8,21,1.7,16.8,3,11.8c0.3-1.3,0.9-2.4,1.4-3.4c0,0,0,0,0.1,0
	C4.7,9,5.3,9.4,5.7,9.8c1.1,1.4,2.5,2.6,3.9,3.7c4.8,3.7,9.1,6.1,16,7.8c1.8,0.4,3.8,0.8,5.9,0.8c-0.6-1.7-0.4-4.5,0.1-6.2
	c1.2-4.2,3.7-7.2,7.4-8.8c0.9-0.4,1.9-0.7,2.9-0.9C42.5,6.2,43,6.1,43.5,6z"/>
</svg>
