<?xml version="1.0" encoding="UTF-8" standalone="no"?>
<svg>
    <mask id="path-62-outside-7" maskUnits="userSpaceOnUse" x="70.0674" y="241.679" width="99" height="83" fill="black">
        <rect fill="white" x="70.0674" y="241.679" width="99" height="83"/>
        <path d="M94.1693 254.698L92.8646 253.11L91.2763 253.28L89.4611 254.812L88.7804 256.23L86.9084 256.797L86.171 258.896L85.1499 261.335L84.5827 263.604L84.6961 265.192L83.7318 265.873L85.1499 267.291L84.5827 269.39L84.1289 271.262L82.3137 271.829L80.4417 271.149L79.8745 269.73L78.8534 268.596L77.4353 268.709L76.9815 270.411L75.7335 271.829L73.9183 273.644L73.0674 275.176L73.9183 276.594L74.9393 277.615L76.244 276.537L77.0949 277.785L78.116 278.92L79.5341 279.09L80.5552 280.111L81.2926 281.983L81.1224 283.515L80.4417 286.067L79.5908 286.805H78.4563L77.8891 288.223L76.9247 288.96L77.9458 290.549L78.9668 292.421V294.406L78.0025 296.505L76.7545 297.923L77.2084 299.228L78.6265 300.362L79.3072 302.518L81.406 304.106L83.2213 305.411L83.7885 308.361L83.2213 310.346L84.7529 312.048L86.171 312.899L86.7383 315.054L87.0219 315.338L88.2698 316.756V318.741L89.8582 319.479L90.5956 320.216V321.407H92.2406L92.9214 322.315H94.226L95.0769 321.464H97.5161L99.7284 319.252L100.409 316.983H103.132L104.437 315.792L105.798 316.075L106.138 317.153L107.557 317.947H109.485L110.166 317.266L109.429 315.338L110.733 314.714L111.641 314.657L112.548 313.693L114.193 312.785L116.065 311.651L116.576 310.686H118.164L118.334 307.737L117.54 306.375L117.881 303.879L117.54 302.404L118.448 301.497L119.526 300.249L120.433 300.703L121.511 299.965L122.362 299.114V298.377H123.44L124.347 297.469L124.915 296.902L126.049 296.618L126.957 295.711L126.616 294.86V294.009L125.992 293.385L125.085 292.761V291.059L126.163 289.981L127.751 289.641L128.885 288.507L130.814 288.166L132.913 287.486L135.352 287.202L136.543 286.011L137.054 284.025L138.132 282.947L139.436 284.252H141.365L142.102 282.323H144.031L146.3 282.834L149.193 282.097L150.271 281.019H151.916L152.597 282.607L153.618 283.628H155.433L156.057 284.252L157.532 282.777L159.801 281.983L160.765 282.947L161.9 281.756H164.566L164.906 277.275L166.041 275.97L163.828 274.042L162.637 275.857L160.595 275.346L159.744 276.197L158.439 274.325L154.979 272.51L154.298 270.695L152.427 268.823L149.987 268.369L148.739 265.703L146.811 266.61L144.769 265.703L142.443 266.27L140.344 267.178L138.075 264.909V261.165L136.316 259.406L135.409 260.314L133.026 258.726L132.005 257.705L130.247 257.875L129.112 258.102V256.23L129.623 254.641L128.261 254.188L126.73 254.471L125.652 254.017L124.801 253.507C124.347 253.28 123.95 253.053 123.44 252.883C122.929 252.713 122.419 252.543 121.908 252.259L121.114 251.465L120.887 252.259H119.639L118.732 251.181H117.37C117.37 251.181 117.313 249.82 117.03 249.82C116.746 249.82 116.236 249.026 116.236 249.026L115.215 248.515H113.967L112.945 249.536H111.357L110.563 250.33L109.258 250.16L108.181 249.082H106.138L105.061 248.402L103.642 248.515L102.792 247.664H101.147L100.352 246.927L99.7852 245.679L98.3103 246.927L98.1401 248.118L97.2892 248.969L97.119 250.954L96.6085 252.089L96.0413 253.11H94.7366L94.1693 254.698Z"/>
    </mask>
    <path class="color" d="M94.1693 254.698L92.8646 253.11L91.2763 253.28L89.4611 254.812L88.7804 256.23L86.9084 256.797L86.171 258.896L85.1499 261.335L84.5827 263.604L84.6961 265.192L83.7318 265.873L85.1499 267.291L84.5827 269.39L84.1289 271.262L82.3137 271.829L80.4417 271.149L79.8745 269.73L78.8534 268.596L77.4353 268.709L76.9815 270.411L75.7335 271.829L73.9183 273.644L73.0674 275.176L73.9183 276.594L74.9393 277.615L76.244 276.537L77.0949 277.785L78.116 278.92L79.5341 279.09L80.5552 280.111L81.2926 281.983L81.1224 283.515L80.4417 286.067L79.5908 286.805H78.4563L77.8891 288.223L76.9247 288.96L77.9458 290.549L78.9668 292.421V294.406L78.0025 296.505L76.7545 297.923L77.2084 299.228L78.6265 300.362L79.3072 302.518L81.406 304.106L83.2213 305.411L83.7885 308.361L83.2213 310.346L84.7529 312.048L86.171 312.899L86.7383 315.054L87.0219 315.338L88.2698 316.756V318.741L89.8582 319.479L90.5956 320.216V321.407H92.2406L92.9214 322.315H94.226L95.0769 321.464H97.5161L99.7284 319.252L100.409 316.983H103.132L104.437 315.792L105.798 316.075L106.138 317.153L107.557 317.947H109.485L110.166 317.266L109.429 315.338L110.733 314.714L111.641 314.657L112.548 313.693L114.193 312.785L116.065 311.651L116.576 310.686H118.164L118.334 307.737L117.54 306.375L117.881 303.879L117.54 302.404L118.448 301.497L119.526 300.249L120.433 300.703L121.511 299.965L122.362 299.114V298.377H123.44L124.347 297.469L124.915 296.902L126.049 296.618L126.957 295.711L126.616 294.86V294.009L125.992 293.385L125.085 292.761V291.059L126.163 289.981L127.751 289.641L128.885 288.507L130.814 288.166L132.913 287.486L135.352 287.202L136.543 286.011L137.054 284.025L138.132 282.947L139.436 284.252H141.365L142.102 282.323H144.031L146.3 282.834L149.193 282.097L150.271 281.019H151.916L152.597 282.607L153.618 283.628H155.433L156.057 284.252L157.532 282.777L159.801 281.983L160.765 282.947L161.9 281.756H164.566L164.906 277.275L166.041 275.97L163.828 274.042L162.637 275.857L160.595 275.346L159.744 276.197L158.439 274.325L154.979 272.51L154.298 270.695L152.427 268.823L149.987 268.369L148.739 265.703L146.811 266.61L144.769 265.703L142.443 266.27L140.344 267.178L138.075 264.909V261.165L136.316 259.406L135.409 260.314L133.026 258.726L132.005 257.705L130.247 257.875L129.112 258.102V256.23L129.623 254.641L128.261 254.188L126.73 254.471L125.652 254.017L124.801 253.507C124.347 253.28 123.95 253.053 123.44 252.883C122.929 252.713 122.419 252.543 121.908 252.259L121.114 251.465L120.887 252.259H119.639L118.732 251.181H117.37C117.37 251.181 117.313 249.82 117.03 249.82C116.746 249.82 116.236 249.026 116.236 249.026L115.215 248.515H113.967L112.945 249.536H111.357L110.563 250.33L109.258 250.16L108.181 249.082H106.138L105.061 248.402L103.642 248.515L102.792 247.664H101.147L100.352 246.927L99.7852 245.679L98.3103 246.927L98.1401 248.118L97.2892 248.969L97.119 250.954L96.6085 252.089L96.0413 253.11H94.7366L94.1693 254.698Z" fill="#994E2E"/>
    <path d="M94.1693 254.698L92.8646 253.11L91.2763 253.28L89.4611 254.812L88.7804 256.23L86.9084 256.797L86.171 258.896L85.1499 261.335L84.5827 263.604L84.6961 265.192L83.7318 265.873L85.1499 267.291L84.5827 269.39L84.1289 271.262L82.3137 271.829L80.4417 271.149L79.8745 269.73L78.8534 268.596L77.4353 268.709L76.9815 270.411L75.7335 271.829L73.9183 273.644L73.0674 275.176L73.9183 276.594L74.9393 277.615L76.244 276.537L77.0949 277.785L78.116 278.92L79.5341 279.09L80.5552 280.111L81.2926 281.983L81.1224 283.515L80.4417 286.067L79.5908 286.805H78.4563L77.8891 288.223L76.9247 288.96L77.9458 290.549L78.9668 292.421V294.406L78.0025 296.505L76.7545 297.923L77.2084 299.228L78.6265 300.362L79.3072 302.518L81.406 304.106L83.2213 305.411L83.7885 308.361L83.2213 310.346L84.7529 312.048L86.171 312.899L86.7383 315.054L87.0219 315.338L88.2698 316.756V318.741L89.8582 319.479L90.5956 320.216V321.407H92.2406L92.9214 322.315H94.226L95.0769 321.464H97.5161L99.7284 319.252L100.409 316.983H103.132L104.437 315.792L105.798 316.075L106.138 317.153L107.557 317.947H109.485L110.166 317.266L109.429 315.338L110.733 314.714L111.641 314.657L112.548 313.693L114.193 312.785L116.065 311.651L116.576 310.686H118.164L118.334 307.737L117.54 306.375L117.881 303.879L117.54 302.404L118.448 301.497L119.526 300.249L120.433 300.703L121.511 299.965L122.362 299.114V298.377H123.44L124.347 297.469L124.915 296.902L126.049 296.618L126.957 295.711L126.616 294.86V294.009L125.992 293.385L125.085 292.761V291.059L126.163 289.981L127.751 289.641L128.885 288.507L130.814 288.166L132.913 287.486L135.352 287.202L136.543 286.011L137.054 284.025L138.132 282.947L139.436 284.252H141.365L142.102 282.323H144.031L146.3 282.834L149.193 282.097L150.271 281.019H151.916L152.597 282.607L153.618 283.628H155.433L156.057 284.252L157.532 282.777L159.801 281.983L160.765 282.947L161.9 281.756H164.566L164.906 277.275L166.041 275.97L163.828 274.042L162.637 275.857L160.595 275.346L159.744 276.197L158.439 274.325L154.979 272.51L154.298 270.695L152.427 268.823L149.987 268.369L148.739 265.703L146.811 266.61L144.769 265.703L142.443 266.27L140.344 267.178L138.075 264.909V261.165L136.316 259.406L135.409 260.314L133.026 258.726L132.005 257.705L130.247 257.875L129.112 258.102V256.23L129.623 254.641L128.261 254.188L126.73 254.471L125.652 254.017L124.801 253.507C124.347 253.28 123.95 253.053 123.44 252.883C122.929 252.713 122.419 252.543 121.908 252.259L121.114 251.465L120.887 252.259H119.639L118.732 251.181H117.37C117.37 251.181 117.313 249.82 117.03 249.82C116.746 249.82 116.236 249.026 116.236 249.026L115.215 248.515H113.967L112.945 249.536H111.357L110.563 250.33L109.258 250.16L108.181 249.082H106.138L105.061 248.402L103.642 248.515L102.792 247.664H101.147L100.352 246.927L99.7852 245.679L98.3103 246.927L98.1401 248.118L97.2892 248.969L97.119 250.954L96.6085 252.089L96.0413 253.11H94.7366L94.1693 254.698Z" stroke="white" stroke-width="4" mask="url(#path-62-outside-7)"/>
</svg>

