<?xml version="1.0" encoding="UTF-8" standalone="no"?>
<svg>
    <mask id="path-52-outside-2" maskUnits="userSpaceOnUse" x="374.02" y="69" width="269" height="333" fill="black">
        <rect fill="white" x="374.02" y="69" width="269" height="333"/>
        <path d="M610.616 326.566C610.616 326.566 611.013 327.531 610.616 327.531C610.219 327.531 608.006 326.453 608.006 326.453L607.042 327.417H604.943L604.262 329.119L604.659 330.764L606.078 332.069L607.042 334.224L605.737 335.302L604.659 333.997L603.241 332.579L600.802 330.31V328.722L599.157 327.077L597.625 325.545L596.548 324.127L595.243 321.574L593.598 320.043L591.896 319.078L590.251 318.568L588.833 315.618L585.827 311.477L583.387 309.038L581.345 306.996L579.53 304.557L578.395 302.685L575.276 301.267L572.836 300.189L571.362 300.019L569.376 297.296V296.048L567.221 293.892L566.086 291.737L563.817 290.999L564.384 289.354V288.106L566.256 288.674L566.597 287.028L565.462 285.894V285.27L564.384 284.192L562.796 283.625H562.739L562.059 283.795L561.548 282.377V281.129L563.704 281.696L564.781 282.207L565.349 283.512L566.483 284.646L568.525 285.043L569.036 286.348L571.305 287.823H572.553L573.517 289.241L574.311 291.453L575.559 292.701L577.998 295.197L579.53 295.594L581.686 296.388L583.728 298.203L586.507 299.735L588.322 301.267L590.705 302.515L592.747 303.763L594.052 304.84L596.321 305.748L595.98 306.826L595.186 307.62L593.655 308.13H592.407L592.747 309.832L592.407 311.08V312.044L593.825 314.2C593.825 314.2 595.13 315.675 594.903 315.902C594.676 316.129 595.016 318.454 595.016 318.454L596.094 319.532L597.739 321.177L599.157 322.085H601.313L602.561 323.333H603.979L604.716 324.864L606.531 324.921L607.666 323.787L609.595 324.921L610.616 326.566ZM632.342 328.268L632.512 329.913L633.136 330.14V328.835L633.646 327.757V326.283L632.001 326.51L632.342 328.268ZM637.674 328.268L638.752 328.835V327.587L637.674 327.531V328.268ZM635.859 314.597L634.497 314.2L634.1 316.356L634.611 316.866L634.157 318.454L634.327 320.894L635.291 321.291L635.632 319.986L635.121 317.377L636.029 316.469L635.859 314.597ZM636.369 310.513L636.709 311.931L637.39 310.967L636.823 310.173L636.369 310.513ZM639.319 300.699L639.035 299.168L637.957 300.302L637.617 301.664L638.184 302.968L637.787 305.124L638.865 305.351L639.432 304.046L639.092 302.231L639.319 300.699ZM639.659 288.787V287.879V286.802L638.865 286.858V288.674V290.148H640L639.659 288.787ZM455.471 314.597L455.585 314.2L455.755 313.576L454.337 312.158L453.089 310.91L452.294 308.811L451.103 308.698V307.28L449.912 305.918L448.834 304.84H447.303V306.315L445.998 307.62L443.956 307.336V305.975L443.048 305.181V303.479L441.233 303.252L439.077 302.231L437.092 302.458L435.107 302.174L433.972 303.536L433.405 305.408L432.1 306.712L432.611 308.528L431.873 310.683L430.115 312.442V315.732L427.619 317.433V319.362L426.541 317.887V316.242L425.293 314.994L424.102 315.505L423.818 317.036L420.698 318.228H419.223L418.656 319.986L417.692 321.404L415.65 321.574L413.381 319.305L413.154 314.597L413.437 311.761V309.095L413.778 306.712V304.387L412.189 303.706L410.941 303.252L410.771 302.118L410.204 300.813L409.126 299.735V298.487L409.864 297.75L410.091 295.991L409.07 294.97H407.708L406.233 294.233V292.871L406.8 292.304L406.177 291.623L405.666 289.581L404.531 287.482L403.113 286.461L401.525 286.915L399.993 287.028V285.213L401.241 284.873V283.625L399.937 282.32L399.88 281.186L398.462 281.072L397.441 282.093L396.136 281.526L394.434 282.15L393.583 281.129H392.733L391.995 281.866H390.464L389.442 281.413V279.541L390.01 278.973V277.725L389.556 276.307L390.69 274.549L391.371 272.734L389.329 270.975L388.818 268.366L387.173 267.458V265.813L387.854 265.246L387.173 264.565V263.034L385.415 262.296L384.904 262.807L384.394 261.218L385.301 260.367L386.266 258.836L387.684 258.439L387.173 254.752L386.776 252.369V251.121L385.131 248.115L384.961 244.995L383.316 243.86L382.579 242.215L382.068 240.967V240.173L384.054 239.379L386.096 236.486L387.514 236.032L389.442 236.599L390.01 235.295V233.706L388.932 232.629L389.442 230.757L390.861 230.246L390.804 226.843L392.392 225.765L394.207 223.95L394.604 222.645H395.399L395.228 220.716H393.754L392.392 218.164V215.838L391.031 214.817L388.478 212.945V211.98L386.549 211.243L385.869 209.825L386.209 207.896L385.415 207.102L384.564 205.854L384.11 204.776L384.791 204.096L384.961 203.188L384.224 202.564L383.997 200.919L385.585 201.316L387.457 202.054L387.854 200.919L389.045 199.274L390.066 200.295V202.167L391.201 203.755H392.506L391.201 202.507L392.109 201.6L393.867 199.898L396.25 198.65L399.823 197.969L402.66 197.118L403.397 198.196L402.716 198.877L404.305 200.465H407.254L407.368 199.728L407.651 198.707L408.786 200.522L410.771 199.784L412.757 198.083C412.757 198.083 414.856 197.686 415.309 197.686C415.763 197.686 415.309 195.984 415.309 195.984L415.026 194.112L413.608 191.956L414.005 189.801L414.288 188.666L415.423 189.801L416.614 188.836L417.635 189.857L419.167 190.879L419.564 189.744L420.301 189.574L421.039 190.425L421.776 189.857C421.776 189.857 421.663 188.099 422.4 188.099C423.137 188.099 423.308 187.248 423.308 187.248L425.406 188.836L426.087 188.212L428.356 188.95L427.619 191.276H428.697L429.774 192.353V194.169L431.59 193.034L432.554 193.998V196.097L431.306 196.494L430.569 197.232L431.873 198.537C431.873 198.537 432.894 198.083 432.894 197.572C432.894 197.118 433.745 198.423 433.745 198.423V199.955L435.674 199.898L437.546 201.77L438.964 202.734L440.949 203.131L441.8 202.28L443.956 203.415L444.126 201.6L443.162 198.48L442.594 197.062V195.757L441.346 194.509V192.807L443.729 193.091L445.034 194.396L447.132 193.828H449.515L449.061 191.389L450.366 188.95L452.805 188.383L454.62 188.269L456.719 188.836V187.418L454.507 186.397L455.301 185.603L456.322 184.469L458.137 184.582L459.555 183.164L458.875 182.767L457.456 181.349L455.868 180.498V178.399L455.187 177.832L454.223 180.271L453.089 179.533V177.548L455.187 175.676L454.904 174.371L452.918 173.123L454.166 171.875H455.982L458.648 170.571L459.385 168.358L462.902 167.054L465.625 165.863C465.852 166.146 466.022 166.487 466.022 166.827C466.022 167.394 464.207 168.075 464.207 168.075L463.526 170.628L465.114 169.89L466.533 168.472L468.348 169.039L467.894 172.726L469.482 171.195V169.38L468.915 166.373L469.312 165.068L470.163 162.686L472.148 161.722L474.985 160.474L476.686 161.722C476.233 162.289 475.779 162.856 475.268 163.423C474.644 164.047 475.949 164.444 475.949 164.444H478.048L479.353 162.913C479.353 162.913 480.884 164.501 481.168 164.785C481.451 165.068 480.884 162.629 480.884 162.629L483.437 161.211L485.252 162.175L487.237 162.062L489.053 160.247L490.925 157.864V155.141L493.307 151.624L495.292 149.639L497.108 147.483L500.228 147.03L502.837 146.859L504.142 148.164L506.808 150.83L509.19 149.809L510.892 148.448H512.764L511.856 147.54V146.235L513.672 144.42V141.3L514.522 139.712H515.941L517.189 138.464V136.592L519.571 134.89L520.138 132.621L519.174 131.657L519.571 130.522L518.266 128.651L519.287 126.722L520.308 125.758L522.124 127.573L520.762 128.934L522.18 130.352H524.336L525.868 129.785L527.966 128.821L529.838 128.367L530.292 126.835L529.725 125.304L528.704 125.134L525.47 123.715L523.088 124.113L522.521 122.808H520.649V121.787L521.103 119.972L522.804 119.121L522.975 117.135L524.506 116.284H525.811L525.244 114.696L525.811 112.994L527.399 110.612L528.137 107.889L531.03 105.109L534.263 101.876L535.738 100.401L538.574 99.1532L540.616 97.962L542.488 96.09L544.417 94.1614L546.799 93.197L548.501 90.7578L551.734 89.7935L553.436 87.9783L555.535 87.0139L556.84 86.2765L558.371 87.8081L560.527 87.1274L562.456 88.6023L563.76 87.2976L566.029 86.0496V84.9151L563.76 85.3689L561.094 85.1987L559.392 84.7449L559.96 83.0431L561.775 81.7952L560.243 81.3981V80.5472L561.264 80.6607L561.435 78.9589L562.399 77.6542L563.704 76.3495L565.973 75.4986H566.653L568.355 73.1162C568.355 73.1162 569.943 72.6624 570.511 72.0951C571.078 71.5278 570.511 73.6834 570.511 73.6834L571.759 74.7045L572.723 75.6688L571.702 77.8244C571.702 77.8244 573.12 77.8244 573.687 77.2571C574.255 76.6899 573.687 78.3916 573.687 78.3916V80.377L571.532 81.7952L573.233 82.0788L573.687 80.9443L575.9 81.7952V80.7741L577.658 82.5326L578.906 84.4046L579.927 84.1209L580.948 82.8162V84.0642L581.629 85.5958H579.643V86.39L581.232 86.8438L580.381 89.283L578.225 89.4531L576.24 91.6087L575.219 93.8777L573.233 94.5017L571.815 93.9345H570L568.412 96.3169L569.149 97.7351V100.118L567.561 101.706L566.313 100.742L565.065 101.706H563.25L562.229 100.855L561.264 100.288L561.094 101.195L561.832 101.933L560.981 102.33L560.413 102.897L562.059 103.181V104.485L563.363 105.79L565.462 105.223H566.88L566.994 107.038L567.845 106.13L569.319 107.605L570.908 109.194L571.645 111.916L572.042 114.072L570.511 116.511H569.093L567.107 117.362L566.426 118.894L568.015 118.213H569.036L567.504 120.028L568.469 120.936L569.716 120.482V118.667L570.851 117.816L572.893 117.759L574.084 116.625L574.652 115.66L576.07 115.774L577.204 115.604L579.303 115.49V116.738H581.005L581.459 115.831H583.104L584.125 114.809L585.373 114.639L586.394 115.49L587.925 114.356L588.663 116.001L590.024 117.419V119.404L588.152 120.142L586.904 122.808H584.919L584.352 123.659L586.564 125.134L585.827 125.871L587.415 128.31L588.096 131.373V134.607V134.777L588.663 137.443L589.627 139.712L590.081 142.718L591.045 145.668L592.861 147.257V149.979L593.825 153.78L595.413 155.595L596.434 156.616L594.846 158.034L593.144 157.184L590.762 157.921L589.514 160.757L587.528 163.594L588.549 164.615L587.812 167.281V168.699L589.4 171.138V172.67L587.585 171.819L586.28 170.514L585.146 170.628L586.167 173.407V175.222L587.925 176.016L586.167 177.775H585.032V180.214L584.011 181.235L585.429 183.618L586.564 184.752L587.869 186.057L589.684 187.872L590.081 190.538L590.365 192.637L592.974 193.998L594.562 195.587H597.228L596.491 193.998V193.204L597.399 192.297L598.079 190.879L600.518 193.318L600.972 195.473L603.412 197.175L605.851 197.742L606.815 196.778H608.403L610.275 198.65L609.538 200.465L607.666 201.032L608.233 203.301L610.219 206.592L611.977 207.045L613.338 208.407L616.572 208.01L618.444 209.541L619.124 211.243L617.99 211.98L616.402 213.002L615.437 215.1L616.118 218.901L617.99 221.851L619.635 222.475L620.429 223.269L623.152 223.95V225.084L621.053 225.368V227.07L620.316 228.771L621.28 232.175L622.868 232.856L625.308 235.295L627.123 236.996L627.52 240.003L628.484 243.974L628.938 246.526V248.398L627.917 246.98H625.194L623.436 246.073L622.074 244.711H620.202L618.501 243.009L615.21 241.478L612.091 240.173L608.517 238.301L607.496 236.883L605.794 235.749L603.922 235.351L599.838 234.103L597.172 232.685L594.619 230.984C594.109 230.246 593.711 229.509 593.371 228.715L590.648 225.992L588.776 224.006V221.964L587.472 220.66L587.188 218.504L585.6 216.235L583.841 215.838V214.817L584.635 214.023L585.316 212.604L584.408 211.016L585.259 210.165L585.94 209.541L584.976 206.705L584.522 203.699L583.387 200.182L581.572 197.799L580.835 194.679L579.984 191.729L579.019 189.347L577.885 185.83L576.75 184.866L576.637 182.994L577.318 180.725V177.775L576.183 176.64L574.935 174.258H573.687L572.496 173.804L571.418 172.726L570.114 171.025L568.128 169.777V167.564L569.943 165.863L569.319 165.239L567.845 166.713L565.746 167.848V169.833L565.178 171.365L566.313 172.386L567.958 174.031L569.546 175.619H571.418L571.248 176.867L570.397 176.754L569.49 178.002L568.015 177.945L569.319 178.115L570.511 179.307V182.37L571.475 184.639L571.645 188.212L570.964 190.368L570.227 188.496L568.525 187.645V190.028L567.107 188.61L566.143 187.645L565.405 186.057L562.739 183.618L563.477 185.717L562.739 187.986H560.187V189.517L559.336 192.637L558.315 193.885L558.428 198.026L560.13 199.16L559.846 201.827L561.548 204.493V207.329L562.059 211.073L563.647 212.661V214.363L564.952 215.668L566.199 215.497L567.277 214.476L568.071 213.682H569.49L569.376 215.497L567.845 215.951V218.504L565.008 218.958L565.689 222.248L565.405 223.666L563.59 224.46V226.446L562.909 228.261C562.909 228.261 560.697 228.771 561.094 228.374C561.491 227.977 560.243 227.523 560.243 227.523V226.162L560.64 224.914L562.229 224.403L561.491 223.666L559.789 224.347L557.974 224.63V225.481L555.308 226.729L554.003 228.317L552.472 228.715L551.224 229.963L550.77 231.381L551.224 233.196L552.245 234.217L550.997 235.522L549.012 234.784L549.636 236.826L548.161 238.301L546.856 239.549H545.722L544.587 240.57L545.324 241.818L545.892 242.385L544.303 243.406H542.148L539.992 245.562L538.631 246.923L537.099 249.476L535.454 251.064L533.866 254.298L533.582 257.418L535.114 260.424L533.696 261.842L533.242 264.849L534.093 267.004L535.397 268.309L534.263 270.181V276.137L533.696 278.52V281.753L534.66 282.774V287.596L533.809 290.829V293.495L532.391 295.878V298.26L531.654 300.359L532.504 302.288H533.923L535.057 301.153H536.645L537.893 299.905L539.255 298.544L540.219 299.508L541.354 300.075V301.323L542.261 302.968L543.396 304.103L544.417 303.082V301.607L543.112 301.04V299.622L544.133 298.487V299.451L545.268 300.302L545.835 300.132L546.402 300.699V303.649L548.274 302.912V301.947L549.295 300.529L549.976 299.962L550.997 300.699L551.224 299.111L550.316 298.203L549.465 296.615L548.444 294.743L550.146 293.779L551.167 292.758L553.266 292.304H555.705L557.747 292.531L558.655 293.438C558.655 293.438 560.811 293.041 561.321 293.041C561.945 292.928 562.569 292.758 563.136 292.474L564.328 293.665L563.42 294.573L562.739 295.254L562.172 296.275H565.462L565.859 297.523L567.277 298.941L569.036 298.714L569.943 299.622L570.908 301.437L571.191 305.011L572.439 308.811L574.368 311.591L576.807 314.03L577.772 314.994L578.225 316.583L580.097 318.454L581.402 320.724L581.856 322.028L583.614 324.751L585.089 326.226V330.197L584.522 333.6L585.543 337.004L585.429 340.521L586.451 343.244L587.188 346.25L587.755 348.973L588.322 352.66V356.234L587.755 358.106V361.793V366.331L587.188 369.734L587.755 373.251L587.585 377.789V379.945L585.713 383.065L584.465 385.731L583.047 388.397H581.799L579.417 389.362L577.431 390.496L576.07 389.929V388.397L575.332 387.66L574.595 389.248V391.007L573.801 390.212L572.553 388.964V389.929L572.156 392.311L572.553 393.9L572.042 395.771L571.248 396.566V397.53V399.062L569.433 398.948L568.695 398.211L569.376 396.055L570.511 393.786V391.914L569.49 389.702L567.447 387.66L566.426 386.639L565.576 384.483L563.76 382.668L562.059 382.101L562.002 380.229L563.193 379.037L564.214 378.016V376.144L565.519 374.84L567.05 374.102L568.639 374.613L570 373.251L570.851 371.55L569.319 369.167L570.057 367.182L569.093 365.083L568.922 362.927L567.618 361.112L568.015 359.581L566.994 357.765L566.483 355.666L564.611 353.738L566.029 352.32V350.221L564.838 349.03L563.477 347.611L563.08 346.364H561.491L559.222 347.611L558.655 349.483L557.123 351.979L555.422 354.135L556.159 356.517L554.174 358.106L552.188 359.24L550.486 359.807L550.033 361.509H548.217L546.402 360.488L545.098 360.034V357.879L543.566 356.574L539.822 354.872L539.255 355.893L537.099 355.326L535.284 354.872L532.561 355.269H530.009L528.987 356.29L526.151 357.312L523.315 356.744L522.124 354.419L520.762 353.057C520.762 353.057 519.174 352.093 519.174 351.752C519.174 351.412 517.359 349.937 517.359 349.937L515.09 349.54L514.125 347.271L511.97 345.569L510.438 344.094L508.339 343.527L507.602 341.542L505.73 340.691L504.595 339.556L500.795 339.159H498.809L496.54 340.407L493.704 339.953L491.549 340.691H489.166L485.933 343.073L484.401 344.605L481.451 346.364L479.977 347.838L478.955 350.958L478.218 352.83L479.239 354.135L480.714 352.944L481.905 354.135L483.21 355.44L483.947 358.446L483.21 360.034L482.643 364.119V366.671L481.622 369.337L483.04 372.06L483.891 372.911V375.577L481.905 376.144L480.601 379.151L478.729 381.023L475.609 382.157L472.092 381.874L469.539 381.42L467.667 382.554L465.001 384.086L463.016 383.065L461.2 382.384L458.818 383.405L455.414 386.809L454.62 389.588L452.975 391.233L450.82 392.765L447.813 394.183L445.487 396.509L444.296 397.7H441.29L438.567 398.551H434.709L431.873 398.948L429.321 398.097L428.583 396.679L427.278 395.374H423.705L420.415 394.921L419.11 394.07L414.742 394.694H412.019L409.807 396.906L407.368 397.473L404.985 398.154L401.582 397.87L399.256 396.849L397.781 395.374L396.42 392.481L394.661 390.723L392.222 389.759H389.896L387.173 390.439L385.301 388.624H381.614L379.459 387.036L378.381 388.114L378.268 386.355L377.36 385.447L377.02 383.859L378.041 382.838V381.193L379.118 380.115L381.614 377.619L382.295 376.939L383.146 376.088L384.677 377.109L384.224 378.187L385.982 379.037L387.06 380.058L389.386 380.796L390.464 381.874L391.655 382.498L393.016 383.859L396.079 383.235L397.327 384.426L398.632 385.674H400.107V387.036L401.185 388.737H402.773H403.907L404.418 390.439L406.574 389.248H408.162V386.468L410.374 384.256L412.927 381.193L414.232 377.903L417.578 374.556L421.379 369.961L421.946 363.211L423.308 358.73L421.266 358.106L420.188 353L419.28 348.803L420.018 347.441L421.039 346.42L419.394 345.286L417.805 344.775L417.238 342.223L420.244 340.01H421.719V338.082L423.137 337.458L425.18 338.195L427.335 337.401V335.529L428.81 334.451L429.604 335.302H432.043L433.462 334.281L434.369 335.189L437.319 335.813L438.51 334.621L439.815 335.359L441.687 333.487H443.162V329.743L444.863 328.892L445.941 326.68L447.7 327.134L448.551 327.984L446.508 329.913L448.21 330.083L449.628 329.289L451.784 329.856L452.635 328.211L454.11 327.304L454.45 325.432L453.769 324.751V323.56L452.238 324.184L449.515 321.461L450.252 319.532L449.401 318.681L450.139 317.036L449.458 316.356L451.103 314.711L452.635 314.824L453.542 315.732H454.734L455.471 314.597ZM593.768 181.349L592.237 180.725L591.272 181.292V183.107L591.102 184.752L592.066 185.433L592.747 186.227L592.804 187.702L594.108 188.212L593.768 186.738L593.201 185.603L593.768 183.731V181.349ZM624.4 191.503H626.385L627.633 190.255L626.102 189.744L624.57 190.425L623.095 189.857L621.961 190.255L622.528 191.503H624.4V191.503ZM629.392 252.426L629.449 250.951L628.654 250.1L628.144 251.575L627.35 252.369L628.257 253.277L628.768 254.355L628.598 255.829L628.541 257.701L629.392 258.552L630.356 258.042V256.056L631.207 255.205L630.526 253.504L629.392 252.426ZM633.59 263.828L632.171 262.92V264.168L632.966 264.565L633.59 263.828ZM630.299 186.17L631.094 185.376L630.016 185.603L628.938 186.341L629.505 186.908L630.299 186.17ZM517.586 93.7076L518.55 95.069L519.514 97.338L520.989 97.6216L522.01 96.6006L522.748 95.1824L521.897 94.2748L523.145 92.4596L522.918 90.4742V88.1485L521.67 87.1841L520.932 86.9005L520.308 87.5812L518.89 88.3186L517.699 89.5099L517.813 91.552L517.302 92.0625L517.586 93.7076ZM540.162 292.304L539.368 293.212V294.346V295.594L540.786 295.027L541.524 295.764L542.318 294.97L542.658 293.325L541.751 292.02L540.162 292.304ZM446.962 147.37L447.927 148.731L449.798 149.355L450.933 148.221H452.465L453.996 147.597L455.414 146.973L456.322 146.065V144.874L457.116 142.718L455.755 141.697L453.883 142.548L452.918 143.683L451.841 144.761H451.387L450.593 143.796L449.288 145.158L448.38 146.065L447.756 146.689L446.452 146.065L446.622 146.746L446.962 147.37ZM430.001 159.623H430.966L432.157 160.814L431.817 162.175L433.348 162.97L435.39 163.083L436.241 163.934H437.773L439.588 163.423V162.062L438.453 161.041L439.077 160.417L439.985 161.325L441.573 158.432L443.105 156.9L443.729 157.524L445.09 156.162L445.544 154.858L444.013 154.347L442.991 155.368L441.687 154.404L440.155 153.44L438.624 152.305L439.134 151.171L439.928 150.376L440.552 152.589L441.517 153.553L443.162 153.837L444.183 153.383H445.034L445.884 152.532L445.431 150.717H444.069L444.41 149.185V148.051L443.275 148.391H440.552L439.645 149.299L438.226 150.263L437.205 149.242L434.709 150.036L434.88 151.568L435.504 152.192L436.468 153.156L437.092 153.78L436.128 154.574L434.823 153.44L434.142 154.12L433.178 153.156L431.022 153.61L430.058 153.099L429.604 154.234L430.285 154.915L428.98 155.595V157.24L430.001 158.261V159.623ZM444.807 163.65L444.013 164.331L444.636 166.033L445.601 166.997L446.395 165.409V164.104L445.771 163.48L444.807 163.65ZM448.777 170.344L449.572 168.699L451.557 168.245L453.259 167.564L455.585 166.203L454.393 163.991H452.748L450.422 163.196L449.345 164.161L448.38 165.125L447.416 166.089L447.983 167.394L448.948 168.358L448.324 169.72L448.777 170.344ZM428.356 163.537H429.491V162.402L429.037 161.495L428.243 160.701L426.881 160.587L427.789 161.495L428.356 163.537ZM386.323 198.593L387.457 198.083L388.762 196.778V194.736H387.117L386.152 194.906L384.564 196.494V197.572H385.925L386.323 198.593ZM442.765 135.401L442.084 134.437L441.573 135.401L442.141 135.968L442.765 135.401ZM435.107 172.046L436.071 172.499L437.262 173.464L437.773 172.783L437.262 171.989L435.617 171.649L435.107 172.046Z"/>
    </mask>
    <path class="color" d="M610.616 326.566C610.616 326.566 611.013 327.531 610.616 327.531C610.219 327.531 608.006 326.453 608.006 326.453L607.042 327.417H604.943L604.262 329.119L604.659 330.764L606.078 332.069L607.042 334.224L605.737 335.302L604.659 333.997L603.241 332.579L600.802 330.31V328.722L599.157 327.077L597.625 325.545L596.548 324.127L595.243 321.574L593.598 320.043L591.896 319.078L590.251 318.568L588.833 315.618L585.827 311.477L583.387 309.038L581.345 306.996L579.53 304.557L578.395 302.685L575.276 301.267L572.836 300.189L571.362 300.019L569.376 297.296V296.048L567.221 293.892L566.086 291.737L563.817 290.999L564.384 289.354V288.106L566.256 288.674L566.597 287.028L565.462 285.894V285.27L564.384 284.192L562.796 283.625H562.739L562.059 283.795L561.548 282.377V281.129L563.704 281.696L564.781 282.207L565.349 283.512L566.483 284.646L568.525 285.043L569.036 286.348L571.305 287.823H572.553L573.517 289.241L574.311 291.453L575.559 292.701L577.998 295.197L579.53 295.594L581.686 296.388L583.728 298.203L586.507 299.735L588.322 301.267L590.705 302.515L592.747 303.763L594.052 304.84L596.321 305.748L595.98 306.826L595.186 307.62L593.655 308.13H592.407L592.747 309.832L592.407 311.08V312.044L593.825 314.2C593.825 314.2 595.13 315.675 594.903 315.902C594.676 316.129 595.016 318.454 595.016 318.454L596.094 319.532L597.739 321.177L599.157 322.085H601.313L602.561 323.333H603.979L604.716 324.864L606.531 324.921L607.666 323.787L609.595 324.921L610.616 326.566ZM632.342 328.268L632.512 329.913L633.136 330.14V328.835L633.646 327.757V326.283L632.001 326.51L632.342 328.268ZM637.674 328.268L638.752 328.835V327.587L637.674 327.531V328.268ZM635.859 314.597L634.497 314.2L634.1 316.356L634.611 316.866L634.157 318.454L634.327 320.894L635.291 321.291L635.632 319.986L635.121 317.377L636.029 316.469L635.859 314.597ZM636.369 310.513L636.709 311.931L637.39 310.967L636.823 310.173L636.369 310.513ZM639.319 300.699L639.035 299.168L637.957 300.302L637.617 301.664L638.184 302.968L637.787 305.124L638.865 305.351L639.432 304.046L639.092 302.231L639.319 300.699ZM639.659 288.787V287.879V286.802L638.865 286.858V288.674V290.148H640L639.659 288.787ZM455.471 314.597L455.585 314.2L455.755 313.576L454.337 312.158L453.089 310.91L452.294 308.811L451.103 308.698V307.28L449.912 305.918L448.834 304.84H447.303V306.315L445.998 307.62L443.956 307.336V305.975L443.048 305.181V303.479L441.233 303.252L439.077 302.231L437.092 302.458L435.107 302.174L433.972 303.536L433.405 305.408L432.1 306.712L432.611 308.528L431.873 310.683L430.115 312.442V315.732L427.619 317.433V319.362L426.541 317.887V316.242L425.293 314.994L424.102 315.505L423.818 317.036L420.698 318.228H419.223L418.656 319.986L417.692 321.404L415.65 321.574L413.381 319.305L413.154 314.597L413.437 311.761V309.095L413.778 306.712V304.387L412.189 303.706L410.941 303.252L410.771 302.118L410.204 300.813L409.126 299.735V298.487L409.864 297.75L410.091 295.991L409.07 294.97H407.708L406.233 294.233V292.871L406.8 292.304L406.177 291.623L405.666 289.581L404.531 287.482L403.113 286.461L401.525 286.915L399.993 287.028V285.213L401.241 284.873V283.625L399.937 282.32L399.88 281.186L398.462 281.072L397.441 282.093L396.136 281.526L394.434 282.15L393.583 281.129H392.733L391.995 281.866H390.464L389.442 281.413V279.541L390.01 278.973V277.725L389.556 276.307L390.69 274.549L391.371 272.734L389.329 270.975L388.818 268.366L387.173 267.458V265.813L387.854 265.246L387.173 264.565V263.034L385.415 262.296L384.904 262.807L384.394 261.218L385.301 260.367L386.266 258.836L387.684 258.439L387.173 254.752L386.776 252.369V251.121L385.131 248.115L384.961 244.995L383.316 243.86L382.579 242.215L382.068 240.967V240.173L384.054 239.379L386.096 236.486L387.514 236.032L389.442 236.599L390.01 235.295V233.706L388.932 232.629L389.442 230.757L390.861 230.246L390.804 226.843L392.392 225.765L394.207 223.95L394.604 222.645H395.399L395.228 220.716H393.754L392.392 218.164V215.838L391.031 214.817L388.478 212.945V211.98L386.549 211.243L385.869 209.825L386.209 207.896L385.415 207.102L384.564 205.854L384.11 204.776L384.791 204.096L384.961 203.188L384.224 202.564L383.997 200.919L385.585 201.316L387.457 202.054L387.854 200.919L389.045 199.274L390.066 200.295V202.167L391.201 203.755H392.506L391.201 202.507L392.109 201.6L393.867 199.898L396.25 198.65L399.823 197.969L402.66 197.118L403.397 198.196L402.716 198.877L404.305 200.465H407.254L407.368 199.728L407.651 198.707L408.786 200.522L410.771 199.784L412.757 198.083C412.757 198.083 414.856 197.686 415.309 197.686C415.763 197.686 415.309 195.984 415.309 195.984L415.026 194.112L413.608 191.956L414.005 189.801L414.288 188.666L415.423 189.801L416.614 188.836L417.635 189.857L419.167 190.879L419.564 189.744L420.301 189.574L421.039 190.425L421.776 189.857C421.776 189.857 421.663 188.099 422.4 188.099C423.137 188.099 423.308 187.248 423.308 187.248L425.406 188.836L426.087 188.212L428.356 188.95L427.619 191.276H428.697L429.774 192.353V194.169L431.59 193.034L432.554 193.998V196.097L431.306 196.494L430.569 197.232L431.873 198.537C431.873 198.537 432.894 198.083 432.894 197.572C432.894 197.118 433.745 198.423 433.745 198.423V199.955L435.674 199.898L437.546 201.77L438.964 202.734L440.949 203.131L441.8 202.28L443.956 203.415L444.126 201.6L443.162 198.48L442.594 197.062V195.757L441.346 194.509V192.807L443.729 193.091L445.034 194.396L447.132 193.828H449.515L449.061 191.389L450.366 188.95L452.805 188.383L454.62 188.269L456.719 188.836V187.418L454.507 186.397L455.301 185.603L456.322 184.469L458.137 184.582L459.555 183.164L458.875 182.767L457.456 181.349L455.868 180.498V178.399L455.187 177.832L454.223 180.271L453.089 179.533V177.548L455.187 175.676L454.904 174.371L452.918 173.123L454.166 171.875H455.982L458.648 170.571L459.385 168.358L462.902 167.054L465.625 165.863C465.852 166.146 466.022 166.487 466.022 166.827C466.022 167.394 464.207 168.075 464.207 168.075L463.526 170.628L465.114 169.89L466.533 168.472L468.348 169.039L467.894 172.726L469.482 171.195V169.38L468.915 166.373L469.312 165.068L470.163 162.686L472.148 161.722L474.985 160.474L476.686 161.722C476.233 162.289 475.779 162.856 475.268 163.423C474.644 164.047 475.949 164.444 475.949 164.444H478.048L479.353 162.913C479.353 162.913 480.884 164.501 481.168 164.785C481.451 165.068 480.884 162.629 480.884 162.629L483.437 161.211L485.252 162.175L487.237 162.062L489.053 160.247L490.925 157.864V155.141L493.307 151.624L495.292 149.639L497.108 147.483L500.228 147.03L502.837 146.859L504.142 148.164L506.808 150.83L509.19 149.809L510.892 148.448H512.764L511.856 147.54V146.235L513.672 144.42V141.3L514.522 139.712H515.941L517.189 138.464V136.592L519.571 134.89L520.138 132.621L519.174 131.657L519.571 130.522L518.266 128.651L519.287 126.722L520.308 125.758L522.124 127.573L520.762 128.934L522.18 130.352H524.336L525.868 129.785L527.966 128.821L529.838 128.367L530.292 126.835L529.725 125.304L528.704 125.134L525.47 123.715L523.088 124.113L522.521 122.808H520.649V121.787L521.103 119.972L522.804 119.121L522.975 117.135L524.506 116.284H525.811L525.244 114.696L525.811 112.994L527.399 110.612L528.137 107.889L531.03 105.109L534.263 101.876L535.738 100.401L538.574 99.1532L540.616 97.962L542.488 96.09L544.417 94.1614L546.799 93.197L548.501 90.7578L551.734 89.7935L553.436 87.9783L555.535 87.0139L556.84 86.2765L558.371 87.8081L560.527 87.1274L562.456 88.6023L563.76 87.2976L566.029 86.0496V84.9151L563.76 85.3689L561.094 85.1987L559.392 84.7449L559.96 83.0431L561.775 81.7952L560.243 81.3981V80.5472L561.264 80.6607L561.435 78.9589L562.399 77.6542L563.704 76.3495L565.973 75.4986H566.653L568.355 73.1162C568.355 73.1162 569.943 72.6624 570.511 72.0951C571.078 71.5278 570.511 73.6834 570.511 73.6834L571.759 74.7045L572.723 75.6688L571.702 77.8244C571.702 77.8244 573.12 77.8244 573.687 77.2571C574.255 76.6899 573.687 78.3916 573.687 78.3916V80.377L571.532 81.7952L573.233 82.0788L573.687 80.9443L575.9 81.7952V80.7741L577.658 82.5326L578.906 84.4046L579.927 84.1209L580.948 82.8162V84.0642L581.629 85.5958H579.643V86.39L581.232 86.8438L580.381 89.283L578.225 89.4531L576.24 91.6087L575.219 93.8777L573.233 94.5017L571.815 93.9345H570L568.412 96.3169L569.149 97.7351V100.118L567.561 101.706L566.313 100.742L565.065 101.706H563.25L562.229 100.855L561.264 100.288L561.094 101.195L561.832 101.933L560.981 102.33L560.413 102.897L562.059 103.181V104.485L563.363 105.79L565.462 105.223H566.88L566.994 107.038L567.845 106.13L569.319 107.605L570.908 109.194L571.645 111.916L572.042 114.072L570.511 116.511H569.093L567.107 117.362L566.426 118.894L568.015 118.213H569.036L567.504 120.028L568.469 120.936L569.716 120.482V118.667L570.851 117.816L572.893 117.759L574.084 116.625L574.652 115.66L576.07 115.774L577.204 115.604L579.303 115.49V116.738H581.005L581.459 115.831H583.104L584.125 114.809L585.373 114.639L586.394 115.49L587.925 114.356L588.663 116.001L590.024 117.419V119.404L588.152 120.142L586.904 122.808H584.919L584.352 123.659L586.564 125.134L585.827 125.871L587.415 128.31L588.096 131.373V134.607V134.777L588.663 137.443L589.627 139.712L590.081 142.718L591.045 145.668L592.861 147.257V149.979L593.825 153.78L595.413 155.595L596.434 156.616L594.846 158.034L593.144 157.184L590.762 157.921L589.514 160.757L587.528 163.594L588.549 164.615L587.812 167.281V168.699L589.4 171.138V172.67L587.585 171.819L586.28 170.514L585.146 170.628L586.167 173.407V175.222L587.925 176.016L586.167 177.775H585.032V180.214L584.011 181.235L585.429 183.618L586.564 184.752L587.869 186.057L589.684 187.872L590.081 190.538L590.365 192.637L592.974 193.998L594.562 195.587H597.228L596.491 193.998V193.204L597.399 192.297L598.079 190.879L600.518 193.318L600.972 195.473L603.412 197.175L605.851 197.742L606.815 196.778H608.403L610.275 198.65L609.538 200.465L607.666 201.032L608.233 203.301L610.219 206.592L611.977 207.045L613.338 208.407L616.572 208.01L618.444 209.541L619.124 211.243L617.99 211.98L616.402 213.002L615.437 215.1L616.118 218.901L617.99 221.851L619.635 222.475L620.429 223.269L623.152 223.95V225.084L621.053 225.368V227.07L620.316 228.771L621.28 232.175L622.868 232.856L625.308 235.295L627.123 236.996L627.52 240.003L628.484 243.974L628.938 246.526V248.398L627.917 246.98H625.194L623.436 246.073L622.074 244.711H620.202L618.501 243.009L615.21 241.478L612.091 240.173L608.517 238.301L607.496 236.883L605.794 235.749L603.922 235.351L599.838 234.103L597.172 232.685L594.619 230.984C594.109 230.246 593.711 229.509 593.371 228.715L590.648 225.992L588.776 224.006V221.964L587.472 220.66L587.188 218.504L585.6 216.235L583.841 215.838V214.817L584.635 214.023L585.316 212.604L584.408 211.016L585.259 210.165L585.94 209.541L584.976 206.705L584.522 203.699L583.387 200.182L581.572 197.799L580.835 194.679L579.984 191.729L579.019 189.347L577.885 185.83L576.75 184.866L576.637 182.994L577.318 180.725V177.775L576.183 176.64L574.935 174.258H573.687L572.496 173.804L571.418 172.726L570.114 171.025L568.128 169.777V167.564L569.943 165.863L569.319 165.239L567.845 166.713L565.746 167.848V169.833L565.178 171.365L566.313 172.386L567.958 174.031L569.546 175.619H571.418L571.248 176.867L570.397 176.754L569.49 178.002L568.015 177.945L569.319 178.115L570.511 179.307V182.37L571.475 184.639L571.645 188.212L570.964 190.368L570.227 188.496L568.525 187.645V190.028L567.107 188.61L566.143 187.645L565.405 186.057L562.739 183.618L563.477 185.717L562.739 187.986H560.187V189.517L559.336 192.637L558.315 193.885L558.428 198.026L560.13 199.16L559.846 201.827L561.548 204.493V207.329L562.059 211.073L563.647 212.661V214.363L564.952 215.668L566.199 215.497L567.277 214.476L568.071 213.682H569.49L569.376 215.497L567.845 215.951V218.504L565.008 218.958L565.689 222.248L565.405 223.666L563.59 224.46V226.446L562.909 228.261C562.909 228.261 560.697 228.771 561.094 228.374C561.491 227.977 560.243 227.523 560.243 227.523V226.162L560.64 224.914L562.229 224.403L561.491 223.666L559.789 224.347L557.974 224.63V225.481L555.308 226.729L554.003 228.317L552.472 228.715L551.224 229.963L550.77 231.381L551.224 233.196L552.245 234.217L550.997 235.522L549.012 234.784L549.636 236.826L548.161 238.301L546.856 239.549H545.722L544.587 240.57L545.324 241.818L545.892 242.385L544.303 243.406H542.148L539.992 245.562L538.631 246.923L537.099 249.476L535.454 251.064L533.866 254.298L533.582 257.418L535.114 260.424L533.696 261.842L533.242 264.849L534.093 267.004L535.397 268.309L534.263 270.181V276.137L533.696 278.52V281.753L534.66 282.774V287.596L533.809 290.829V293.495L532.391 295.878V298.26L531.654 300.359L532.504 302.288H533.923L535.057 301.153H536.645L537.893 299.905L539.255 298.544L540.219 299.508L541.354 300.075V301.323L542.261 302.968L543.396 304.103L544.417 303.082V301.607L543.112 301.04V299.622L544.133 298.487V299.451L545.268 300.302L545.835 300.132L546.402 300.699V303.649L548.274 302.912V301.947L549.295 300.529L549.976 299.962L550.997 300.699L551.224 299.111L550.316 298.203L549.465 296.615L548.444 294.743L550.146 293.779L551.167 292.758L553.266 292.304H555.705L557.747 292.531L558.655 293.438C558.655 293.438 560.811 293.041 561.321 293.041C561.945 292.928 562.569 292.758 563.136 292.474L564.328 293.665L563.42 294.573L562.739 295.254L562.172 296.275H565.462L565.859 297.523L567.277 298.941L569.036 298.714L569.943 299.622L570.908 301.437L571.191 305.011L572.439 308.811L574.368 311.591L576.807 314.03L577.772 314.994L578.225 316.583L580.097 318.454L581.402 320.724L581.856 322.028L583.614 324.751L585.089 326.226V330.197L584.522 333.6L585.543 337.004L585.429 340.521L586.451 343.244L587.188 346.25L587.755 348.973L588.322 352.66V356.234L587.755 358.106V361.793V366.331L587.188 369.734L587.755 373.251L587.585 377.789V379.945L585.713 383.065L584.465 385.731L583.047 388.397H581.799L579.417 389.362L577.431 390.496L576.07 389.929V388.397L575.332 387.66L574.595 389.248V391.007L573.801 390.212L572.553 388.964V389.929L572.156 392.311L572.553 393.9L572.042 395.771L571.248 396.566V397.53V399.062L569.433 398.948L568.695 398.211L569.376 396.055L570.511 393.786V391.914L569.49 389.702L567.447 387.66L566.426 386.639L565.576 384.483L563.76 382.668L562.059 382.101L562.002 380.229L563.193 379.037L564.214 378.016V376.144L565.519 374.84L567.05 374.102L568.639 374.613L570 373.251L570.851 371.55L569.319 369.167L570.057 367.182L569.093 365.083L568.922 362.927L567.618 361.112L568.015 359.581L566.994 357.765L566.483 355.666L564.611 353.738L566.029 352.32V350.221L564.838 349.03L563.477 347.611L563.08 346.364H561.491L559.222 347.611L558.655 349.483L557.123 351.979L555.422 354.135L556.159 356.517L554.174 358.106L552.188 359.24L550.486 359.807L550.033 361.509H548.217L546.402 360.488L545.098 360.034V357.879L543.566 356.574L539.822 354.872L539.255 355.893L537.099 355.326L535.284 354.872L532.561 355.269H530.009L528.987 356.29L526.151 357.312L523.315 356.744L522.124 354.419L520.762 353.057C520.762 353.057 519.174 352.093 519.174 351.752C519.174 351.412 517.359 349.937 517.359 349.937L515.09 349.54L514.125 347.271L511.97 345.569L510.438 344.094L508.339 343.527L507.602 341.542L505.73 340.691L504.595 339.556L500.795 339.159H498.809L496.54 340.407L493.704 339.953L491.549 340.691H489.166L485.933 343.073L484.401 344.605L481.451 346.364L479.977 347.838L478.955 350.958L478.218 352.83L479.239 354.135L480.714 352.944L481.905 354.135L483.21 355.44L483.947 358.446L483.21 360.034L482.643 364.119V366.671L481.622 369.337L483.04 372.06L483.891 372.911V375.577L481.905 376.144L480.601 379.151L478.729 381.023L475.609 382.157L472.092 381.874L469.539 381.42L467.667 382.554L465.001 384.086L463.016 383.065L461.2 382.384L458.818 383.405L455.414 386.809L454.62 389.588L452.975 391.233L450.82 392.765L447.813 394.183L445.487 396.509L444.296 397.7H441.29L438.567 398.551H434.709L431.873 398.948L429.321 398.097L428.583 396.679L427.278 395.374H423.705L420.415 394.921L419.11 394.07L414.742 394.694H412.019L409.807 396.906L407.368 397.473L404.985 398.154L401.582 397.87L399.256 396.849L397.781 395.374L396.42 392.481L394.661 390.723L392.222 389.759H389.896L387.173 390.439L385.301 388.624H381.614L379.459 387.036L378.381 388.114L378.268 386.355L377.36 385.447L377.02 383.859L378.041 382.838V381.193L379.118 380.115L381.614 377.619L382.295 376.939L383.146 376.088L384.677 377.109L384.224 378.187L385.982 379.037L387.06 380.058L389.386 380.796L390.464 381.874L391.655 382.498L393.016 383.859L396.079 383.235L397.327 384.426L398.632 385.674H400.107V387.036L401.185 388.737H402.773H403.907L404.418 390.439L406.574 389.248H408.162V386.468L410.374 384.256L412.927 381.193L414.232 377.903L417.578 374.556L421.379 369.961L421.946 363.211L423.308 358.73L421.266 358.106L420.188 353L419.28 348.803L420.018 347.441L421.039 346.42L419.394 345.286L417.805 344.775L417.238 342.223L420.244 340.01H421.719V338.082L423.137 337.458L425.18 338.195L427.335 337.401V335.529L428.81 334.451L429.604 335.302H432.043L433.462 334.281L434.369 335.189L437.319 335.813L438.51 334.621L439.815 335.359L441.687 333.487H443.162V329.743L444.863 328.892L445.941 326.68L447.7 327.134L448.551 327.984L446.508 329.913L448.21 330.083L449.628 329.289L451.784 329.856L452.635 328.211L454.11 327.304L454.45 325.432L453.769 324.751V323.56L452.238 324.184L449.515 321.461L450.252 319.532L449.401 318.681L450.139 317.036L449.458 316.356L451.103 314.711L452.635 314.824L453.542 315.732H454.734L455.471 314.597ZM593.768 181.349L592.237 180.725L591.272 181.292V183.107L591.102 184.752L592.066 185.433L592.747 186.227L592.804 187.702L594.108 188.212L593.768 186.738L593.201 185.603L593.768 183.731V181.349ZM624.4 191.503H626.385L627.633 190.255L626.102 189.744L624.57 190.425L623.095 189.857L621.961 190.255L622.528 191.503H624.4V191.503ZM629.392 252.426L629.449 250.951L628.654 250.1L628.144 251.575L627.35 252.369L628.257 253.277L628.768 254.355L628.598 255.829L628.541 257.701L629.392 258.552L630.356 258.042V256.056L631.207 255.205L630.526 253.504L629.392 252.426ZM633.59 263.828L632.171 262.92V264.168L632.966 264.565L633.59 263.828ZM630.299 186.17L631.094 185.376L630.016 185.603L628.938 186.341L629.505 186.908L630.299 186.17ZM517.586 93.7076L518.55 95.069L519.514 97.338L520.989 97.6216L522.01 96.6006L522.748 95.1824L521.897 94.2748L523.145 92.4596L522.918 90.4742V88.1485L521.67 87.1841L520.932 86.9005L520.308 87.5812L518.89 88.3186L517.699 89.5099L517.813 91.552L517.302 92.0625L517.586 93.7076ZM540.162 292.304L539.368 293.212V294.346V295.594L540.786 295.027L541.524 295.764L542.318 294.97L542.658 293.325L541.751 292.02L540.162 292.304ZM446.962 147.37L447.927 148.731L449.798 149.355L450.933 148.221H452.465L453.996 147.597L455.414 146.973L456.322 146.065V144.874L457.116 142.718L455.755 141.697L453.883 142.548L452.918 143.683L451.841 144.761H451.387L450.593 143.796L449.288 145.158L448.38 146.065L447.756 146.689L446.452 146.065L446.622 146.746L446.962 147.37ZM430.001 159.623H430.966L432.157 160.814L431.817 162.175L433.348 162.97L435.39 163.083L436.241 163.934H437.773L439.588 163.423V162.062L438.453 161.041L439.077 160.417L439.985 161.325L441.573 158.432L443.105 156.9L443.729 157.524L445.09 156.162L445.544 154.858L444.013 154.347L442.991 155.368L441.687 154.404L440.155 153.44L438.624 152.305L439.134 151.171L439.928 150.376L440.552 152.589L441.517 153.553L443.162 153.837L444.183 153.383H445.034L445.884 152.532L445.431 150.717H444.069L444.41 149.185V148.051L443.275 148.391H440.552L439.645 149.299L438.226 150.263L437.205 149.242L434.709 150.036L434.88 151.568L435.504 152.192L436.468 153.156L437.092 153.78L436.128 154.574L434.823 153.44L434.142 154.12L433.178 153.156L431.022 153.61L430.058 153.099L429.604 154.234L430.285 154.915L428.98 155.595V157.24L430.001 158.261V159.623ZM444.807 163.65L444.013 164.331L444.636 166.033L445.601 166.997L446.395 165.409V164.104L445.771 163.48L444.807 163.65ZM448.777 170.344L449.572 168.699L451.557 168.245L453.259 167.564L455.585 166.203L454.393 163.991H452.748L450.422 163.196L449.345 164.161L448.38 165.125L447.416 166.089L447.983 167.394L448.948 168.358L448.324 169.72L448.777 170.344ZM428.356 163.537H429.491V162.402L429.037 161.495L428.243 160.701L426.881 160.587L427.789 161.495L428.356 163.537ZM386.323 198.593L387.457 198.083L388.762 196.778V194.736H387.117L386.152 194.906L384.564 196.494V197.572H385.925L386.323 198.593ZM442.765 135.401L442.084 134.437L441.573 135.401L442.141 135.968L442.765 135.401ZM435.107 172.046L436.071 172.499L437.262 173.464L437.773 172.783L437.262 171.989L435.617 171.649L435.107 172.046Z" fill="#FEC06E"/>
    <path d="M610.616 326.566C610.616 326.566 611.013 327.531 610.616 327.531C610.219 327.531 608.006 326.453 608.006 326.453L607.042 327.417H604.943L604.262 329.119L604.659 330.764L606.078 332.069L607.042 334.224L605.737 335.302L604.659 333.997L603.241 332.579L600.802 330.31V328.722L599.157 327.077L597.625 325.545L596.548 324.127L595.243 321.574L593.598 320.043L591.896 319.078L590.251 318.568L588.833 315.618L585.827 311.477L583.387 309.038L581.345 306.996L579.53 304.557L578.395 302.685L575.276 301.267L572.836 300.189L571.362 300.019L569.376 297.296V296.048L567.221 293.892L566.086 291.737L563.817 290.999L564.384 289.354V288.106L566.256 288.674L566.597 287.028L565.462 285.894V285.27L564.384 284.192L562.796 283.625H562.739L562.059 283.795L561.548 282.377V281.129L563.704 281.696L564.781 282.207L565.349 283.512L566.483 284.646L568.525 285.043L569.036 286.348L571.305 287.823H572.553L573.517 289.241L574.311 291.453L575.559 292.701L577.998 295.197L579.53 295.594L581.686 296.388L583.728 298.203L586.507 299.735L588.322 301.267L590.705 302.515L592.747 303.763L594.052 304.84L596.321 305.748L595.98 306.826L595.186 307.62L593.655 308.13H592.407L592.747 309.832L592.407 311.08V312.044L593.825 314.2C593.825 314.2 595.13 315.675 594.903 315.902C594.676 316.129 595.016 318.454 595.016 318.454L596.094 319.532L597.739 321.177L599.157 322.085H601.313L602.561 323.333H603.979L604.716 324.864L606.531 324.921L607.666 323.787L609.595 324.921L610.616 326.566ZM632.342 328.268L632.512 329.913L633.136 330.14V328.835L633.646 327.757V326.283L632.001 326.51L632.342 328.268ZM637.674 328.268L638.752 328.835V327.587L637.674 327.531V328.268ZM635.859 314.597L634.497 314.2L634.1 316.356L634.611 316.866L634.157 318.454L634.327 320.894L635.291 321.291L635.632 319.986L635.121 317.377L636.029 316.469L635.859 314.597ZM636.369 310.513L636.709 311.931L637.39 310.967L636.823 310.173L636.369 310.513ZM639.319 300.699L639.035 299.168L637.957 300.302L637.617 301.664L638.184 302.968L637.787 305.124L638.865 305.351L639.432 304.046L639.092 302.231L639.319 300.699ZM639.659 288.787V287.879V286.802L638.865 286.858V288.674V290.148H640L639.659 288.787ZM455.471 314.597L455.585 314.2L455.755 313.576L454.337 312.158L453.089 310.91L452.294 308.811L451.103 308.698V307.28L449.912 305.918L448.834 304.84H447.303V306.315L445.998 307.62L443.956 307.336V305.975L443.048 305.181V303.479L441.233 303.252L439.077 302.231L437.092 302.458L435.107 302.174L433.972 303.536L433.405 305.408L432.1 306.712L432.611 308.528L431.873 310.683L430.115 312.442V315.732L427.619 317.433V319.362L426.541 317.887V316.242L425.293 314.994L424.102 315.505L423.818 317.036L420.698 318.228H419.223L418.656 319.986L417.692 321.404L415.65 321.574L413.381 319.305L413.154 314.597L413.437 311.761V309.095L413.778 306.712V304.387L412.189 303.706L410.941 303.252L410.771 302.118L410.204 300.813L409.126 299.735V298.487L409.864 297.75L410.091 295.991L409.07 294.97H407.708L406.233 294.233V292.871L406.8 292.304L406.177 291.623L405.666 289.581L404.531 287.482L403.113 286.461L401.525 286.915L399.993 287.028V285.213L401.241 284.873V283.625L399.937 282.32L399.88 281.186L398.462 281.072L397.441 282.093L396.136 281.526L394.434 282.15L393.583 281.129H392.733L391.995 281.866H390.464L389.442 281.413V279.541L390.01 278.973V277.725L389.556 276.307L390.69 274.549L391.371 272.734L389.329 270.975L388.818 268.366L387.173 267.458V265.813L387.854 265.246L387.173 264.565V263.034L385.415 262.296L384.904 262.807L384.394 261.218L385.301 260.367L386.266 258.836L387.684 258.439L387.173 254.752L386.776 252.369V251.121L385.131 248.115L384.961 244.995L383.316 243.86L382.579 242.215L382.068 240.967V240.173L384.054 239.379L386.096 236.486L387.514 236.032L389.442 236.599L390.01 235.295V233.706L388.932 232.629L389.442 230.757L390.861 230.246L390.804 226.843L392.392 225.765L394.207 223.95L394.604 222.645H395.399L395.228 220.716H393.754L392.392 218.164V215.838L391.031 214.817L388.478 212.945V211.98L386.549 211.243L385.869 209.825L386.209 207.896L385.415 207.102L384.564 205.854L384.11 204.776L384.791 204.096L384.961 203.188L384.224 202.564L383.997 200.919L385.585 201.316L387.457 202.054L387.854 200.919L389.045 199.274L390.066 200.295V202.167L391.201 203.755H392.506L391.201 202.507L392.109 201.6L393.867 199.898L396.25 198.65L399.823 197.969L402.66 197.118L403.397 198.196L402.716 198.877L404.305 200.465H407.254L407.368 199.728L407.651 198.707L408.786 200.522L410.771 199.784L412.757 198.083C412.757 198.083 414.856 197.686 415.309 197.686C415.763 197.686 415.309 195.984 415.309 195.984L415.026 194.112L413.608 191.956L414.005 189.801L414.288 188.666L415.423 189.801L416.614 188.836L417.635 189.857L419.167 190.879L419.564 189.744L420.301 189.574L421.039 190.425L421.776 189.857C421.776 189.857 421.663 188.099 422.4 188.099C423.137 188.099 423.308 187.248 423.308 187.248L425.406 188.836L426.087 188.212L428.356 188.95L427.619 191.276H428.697L429.774 192.353V194.169L431.59 193.034L432.554 193.998V196.097L431.306 196.494L430.569 197.232L431.873 198.537C431.873 198.537 432.894 198.083 432.894 197.572C432.894 197.118 433.745 198.423 433.745 198.423V199.955L435.674 199.898L437.546 201.77L438.964 202.734L440.949 203.131L441.8 202.28L443.956 203.415L444.126 201.6L443.162 198.48L442.594 197.062V195.757L441.346 194.509V192.807L443.729 193.091L445.034 194.396L447.132 193.828H449.515L449.061 191.389L450.366 188.95L452.805 188.383L454.62 188.269L456.719 188.836V187.418L454.507 186.397L455.301 185.603L456.322 184.469L458.137 184.582L459.555 183.164L458.875 182.767L457.456 181.349L455.868 180.498V178.399L455.187 177.832L454.223 180.271L453.089 179.533V177.548L455.187 175.676L454.904 174.371L452.918 173.123L454.166 171.875H455.982L458.648 170.571L459.385 168.358L462.902 167.054L465.625 165.863C465.852 166.146 466.022 166.487 466.022 166.827C466.022 167.394 464.207 168.075 464.207 168.075L463.526 170.628L465.114 169.89L466.533 168.472L468.348 169.039L467.894 172.726L469.482 171.195V169.38L468.915 166.373L469.312 165.068L470.163 162.686L472.148 161.722L474.985 160.474L476.686 161.722C476.233 162.289 475.779 162.856 475.268 163.423C474.644 164.047 475.949 164.444 475.949 164.444H478.048L479.353 162.913C479.353 162.913 480.884 164.501 481.168 164.785C481.451 165.068 480.884 162.629 480.884 162.629L483.437 161.211L485.252 162.175L487.237 162.062L489.053 160.247L490.925 157.864V155.141L493.307 151.624L495.292 149.639L497.108 147.483L500.228 147.03L502.837 146.859L504.142 148.164L506.808 150.83L509.19 149.809L510.892 148.448H512.764L511.856 147.54V146.235L513.672 144.42V141.3L514.522 139.712H515.941L517.189 138.464V136.592L519.571 134.89L520.138 132.621L519.174 131.657L519.571 130.522L518.266 128.651L519.287 126.722L520.308 125.758L522.124 127.573L520.762 128.934L522.18 130.352H524.336L525.868 129.785L527.966 128.821L529.838 128.367L530.292 126.835L529.725 125.304L528.704 125.134L525.47 123.715L523.088 124.113L522.521 122.808H520.649V121.787L521.103 119.972L522.804 119.121L522.975 117.135L524.506 116.284H525.811L525.244 114.696L525.811 112.994L527.399 110.612L528.137 107.889L531.03 105.109L534.263 101.876L535.738 100.401L538.574 99.1532L540.616 97.962L542.488 96.09L544.417 94.1614L546.799 93.197L548.501 90.7578L551.734 89.7935L553.436 87.9783L555.535 87.0139L556.84 86.2765L558.371 87.8081L560.527 87.1274L562.456 88.6023L563.76 87.2976L566.029 86.0496V84.9151L563.76 85.3689L561.094 85.1987L559.392 84.7449L559.96 83.0431L561.775 81.7952L560.243 81.3981V80.5472L561.264 80.6607L561.435 78.9589L562.399 77.6542L563.704 76.3495L565.973 75.4986H566.653L568.355 73.1162C568.355 73.1162 569.943 72.6624 570.511 72.0951C571.078 71.5278 570.511 73.6834 570.511 73.6834L571.759 74.7045L572.723 75.6688L571.702 77.8244C571.702 77.8244 573.12 77.8244 573.687 77.2571C574.255 76.6899 573.687 78.3916 573.687 78.3916V80.377L571.532 81.7952L573.233 82.0788L573.687 80.9443L575.9 81.7952V80.7741L577.658 82.5326L578.906 84.4046L579.927 84.1209L580.948 82.8162V84.0642L581.629 85.5958H579.643V86.39L581.232 86.8438L580.381 89.283L578.225 89.4531L576.24 91.6087L575.219 93.8777L573.233 94.5017L571.815 93.9345H570L568.412 96.3169L569.149 97.7351V100.118L567.561 101.706L566.313 100.742L565.065 101.706H563.25L562.229 100.855L561.264 100.288L561.094 101.195L561.832 101.933L560.981 102.33L560.413 102.897L562.059 103.181V104.485L563.363 105.79L565.462 105.223H566.88L566.994 107.038L567.845 106.13L569.319 107.605L570.908 109.194L571.645 111.916L572.042 114.072L570.511 116.511H569.093L567.107 117.362L566.426 118.894L568.015 118.213H569.036L567.504 120.028L568.469 120.936L569.716 120.482V118.667L570.851 117.816L572.893 117.759L574.084 116.625L574.652 115.66L576.07 115.774L577.204 115.604L579.303 115.49V116.738H581.005L581.459 115.831H583.104L584.125 114.809L585.373 114.639L586.394 115.49L587.925 114.356L588.663 116.001L590.024 117.419V119.404L588.152 120.142L586.904 122.808H584.919L584.352 123.659L586.564 125.134L585.827 125.871L587.415 128.31L588.096 131.373V134.607V134.777L588.663 137.443L589.627 139.712L590.081 142.718L591.045 145.668L592.861 147.257V149.979L593.825 153.78L595.413 155.595L596.434 156.616L594.846 158.034L593.144 157.184L590.762 157.921L589.514 160.757L587.528 163.594L588.549 164.615L587.812 167.281V168.699L589.4 171.138V172.67L587.585 171.819L586.28 170.514L585.146 170.628L586.167 173.407V175.222L587.925 176.016L586.167 177.775H585.032V180.214L584.011 181.235L585.429 183.618L586.564 184.752L587.869 186.057L589.684 187.872L590.081 190.538L590.365 192.637L592.974 193.998L594.562 195.587H597.228L596.491 193.998V193.204L597.399 192.297L598.079 190.879L600.518 193.318L600.972 195.473L603.412 197.175L605.851 197.742L606.815 196.778H608.403L610.275 198.65L609.538 200.465L607.666 201.032L608.233 203.301L610.219 206.592L611.977 207.045L613.338 208.407L616.572 208.01L618.444 209.541L619.124 211.243L617.99 211.98L616.402 213.002L615.437 215.1L616.118 218.901L617.99 221.851L619.635 222.475L620.429 223.269L623.152 223.95V225.084L621.053 225.368V227.07L620.316 228.771L621.28 232.175L622.868 232.856L625.308 235.295L627.123 236.996L627.52 240.003L628.484 243.974L628.938 246.526V248.398L627.917 246.98H625.194L623.436 246.073L622.074 244.711H620.202L618.501 243.009L615.21 241.478L612.091 240.173L608.517 238.301L607.496 236.883L605.794 235.749L603.922 235.351L599.838 234.103L597.172 232.685L594.619 230.984C594.109 230.246 593.711 229.509 593.371 228.715L590.648 225.992L588.776 224.006V221.964L587.472 220.66L587.188 218.504L585.6 216.235L583.841 215.838V214.817L584.635 214.023L585.316 212.604L584.408 211.016L585.259 210.165L585.94 209.541L584.976 206.705L584.522 203.699L583.387 200.182L581.572 197.799L580.835 194.679L579.984 191.729L579.019 189.347L577.885 185.83L576.75 184.866L576.637 182.994L577.318 180.725V177.775L576.183 176.64L574.935 174.258H573.687L572.496 173.804L571.418 172.726L570.114 171.025L568.128 169.777V167.564L569.943 165.863L569.319 165.239L567.845 166.713L565.746 167.848V169.833L565.178 171.365L566.313 172.386L567.958 174.031L569.546 175.619H571.418L571.248 176.867L570.397 176.754L569.49 178.002L568.015 177.945L569.319 178.115L570.511 179.307V182.37L571.475 184.639L571.645 188.212L570.964 190.368L570.227 188.496L568.525 187.645V190.028L567.107 188.61L566.143 187.645L565.405 186.057L562.739 183.618L563.477 185.717L562.739 187.986H560.187V189.517L559.336 192.637L558.315 193.885L558.428 198.026L560.13 199.16L559.846 201.827L561.548 204.493V207.329L562.059 211.073L563.647 212.661V214.363L564.952 215.668L566.199 215.497L567.277 214.476L568.071 213.682H569.49L569.376 215.497L567.845 215.951V218.504L565.008 218.958L565.689 222.248L565.405 223.666L563.59 224.46V226.446L562.909 228.261C562.909 228.261 560.697 228.771 561.094 228.374C561.491 227.977 560.243 227.523 560.243 227.523V226.162L560.64 224.914L562.229 224.403L561.491 223.666L559.789 224.347L557.974 224.63V225.481L555.308 226.729L554.003 228.317L552.472 228.715L551.224 229.963L550.77 231.381L551.224 233.196L552.245 234.217L550.997 235.522L549.012 234.784L549.636 236.826L548.161 238.301L546.856 239.549H545.722L544.587 240.57L545.324 241.818L545.892 242.385L544.303 243.406H542.148L539.992 245.562L538.631 246.923L537.099 249.476L535.454 251.064L533.866 254.298L533.582 257.418L535.114 260.424L533.696 261.842L533.242 264.849L534.093 267.004L535.397 268.309L534.263 270.181V276.137L533.696 278.52V281.753L534.66 282.774V287.596L533.809 290.829V293.495L532.391 295.878V298.26L531.654 300.359L532.504 302.288H533.923L535.057 301.153H536.645L537.893 299.905L539.255 298.544L540.219 299.508L541.354 300.075V301.323L542.261 302.968L543.396 304.103L544.417 303.082V301.607L543.112 301.04V299.622L544.133 298.487V299.451L545.268 300.302L545.835 300.132L546.402 300.699V303.649L548.274 302.912V301.947L549.295 300.529L549.976 299.962L550.997 300.699L551.224 299.111L550.316 298.203L549.465 296.615L548.444 294.743L550.146 293.779L551.167 292.758L553.266 292.304H555.705L557.747 292.531L558.655 293.438C558.655 293.438 560.811 293.041 561.321 293.041C561.945 292.928 562.569 292.758 563.136 292.474L564.328 293.665L563.42 294.573L562.739 295.254L562.172 296.275H565.462L565.859 297.523L567.277 298.941L569.036 298.714L569.943 299.622L570.908 301.437L571.191 305.011L572.439 308.811L574.368 311.591L576.807 314.03L577.772 314.994L578.225 316.583L580.097 318.454L581.402 320.724L581.856 322.028L583.614 324.751L585.089 326.226V330.197L584.522 333.6L585.543 337.004L585.429 340.521L586.451 343.244L587.188 346.25L587.755 348.973L588.322 352.66V356.234L587.755 358.106V361.793V366.331L587.188 369.734L587.755 373.251L587.585 377.789V379.945L585.713 383.065L584.465 385.731L583.047 388.397H581.799L579.417 389.362L577.431 390.496L576.07 389.929V388.397L575.332 387.66L574.595 389.248V391.007L573.801 390.212L572.553 388.964V389.929L572.156 392.311L572.553 393.9L572.042 395.771L571.248 396.566V397.53V399.062L569.433 398.948L568.695 398.211L569.376 396.055L570.511 393.786V391.914L569.49 389.702L567.447 387.66L566.426 386.639L565.576 384.483L563.76 382.668L562.059 382.101L562.002 380.229L563.193 379.037L564.214 378.016V376.144L565.519 374.84L567.05 374.102L568.639 374.613L570 373.251L570.851 371.55L569.319 369.167L570.057 367.182L569.093 365.083L568.922 362.927L567.618 361.112L568.015 359.581L566.994 357.765L566.483 355.666L564.611 353.738L566.029 352.32V350.221L564.838 349.03L563.477 347.611L563.08 346.364H561.491L559.222 347.611L558.655 349.483L557.123 351.979L555.422 354.135L556.159 356.517L554.174 358.106L552.188 359.24L550.486 359.807L550.033 361.509H548.217L546.402 360.488L545.098 360.034V357.879L543.566 356.574L539.822 354.872L539.255 355.893L537.099 355.326L535.284 354.872L532.561 355.269H530.009L528.987 356.29L526.151 357.312L523.315 356.744L522.124 354.419L520.762 353.057C520.762 353.057 519.174 352.093 519.174 351.752C519.174 351.412 517.359 349.937 517.359 349.937L515.09 349.54L514.125 347.271L511.97 345.569L510.438 344.094L508.339 343.527L507.602 341.542L505.73 340.691L504.595 339.556L500.795 339.159H498.809L496.54 340.407L493.704 339.953L491.549 340.691H489.166L485.933 343.073L484.401 344.605L481.451 346.364L479.977 347.838L478.955 350.958L478.218 352.83L479.239 354.135L480.714 352.944L481.905 354.135L483.21 355.44L483.947 358.446L483.21 360.034L482.643 364.119V366.671L481.622 369.337L483.04 372.06L483.891 372.911V375.577L481.905 376.144L480.601 379.151L478.729 381.023L475.609 382.157L472.092 381.874L469.539 381.42L467.667 382.554L465.001 384.086L463.016 383.065L461.2 382.384L458.818 383.405L455.414 386.809L454.62 389.588L452.975 391.233L450.82 392.765L447.813 394.183L445.487 396.509L444.296 397.7H441.29L438.567 398.551H434.709L431.873 398.948L429.321 398.097L428.583 396.679L427.278 395.374H423.705L420.415 394.921L419.11 394.07L414.742 394.694H412.019L409.807 396.906L407.368 397.473L404.985 398.154L401.582 397.87L399.256 396.849L397.781 395.374L396.42 392.481L394.661 390.723L392.222 389.759H389.896L387.173 390.439L385.301 388.624H381.614L379.459 387.036L378.381 388.114L378.268 386.355L377.36 385.447L377.02 383.859L378.041 382.838V381.193L379.118 380.115L381.614 377.619L382.295 376.939L383.146 376.088L384.677 377.109L384.224 378.187L385.982 379.037L387.06 380.058L389.386 380.796L390.464 381.874L391.655 382.498L393.016 383.859L396.079 383.235L397.327 384.426L398.632 385.674H400.107V387.036L401.185 388.737H402.773H403.907L404.418 390.439L406.574 389.248H408.162V386.468L410.374 384.256L412.927 381.193L414.232 377.903L417.578 374.556L421.379 369.961L421.946 363.211L423.308 358.73L421.266 358.106L420.188 353L419.28 348.803L420.018 347.441L421.039 346.42L419.394 345.286L417.805 344.775L417.238 342.223L420.244 340.01H421.719V338.082L423.137 337.458L425.18 338.195L427.335 337.401V335.529L428.81 334.451L429.604 335.302H432.043L433.462 334.281L434.369 335.189L437.319 335.813L438.51 334.621L439.815 335.359L441.687 333.487H443.162V329.743L444.863 328.892L445.941 326.68L447.7 327.134L448.551 327.984L446.508 329.913L448.21 330.083L449.628 329.289L451.784 329.856L452.635 328.211L454.11 327.304L454.45 325.432L453.769 324.751V323.56L452.238 324.184L449.515 321.461L450.252 319.532L449.401 318.681L450.139 317.036L449.458 316.356L451.103 314.711L452.635 314.824L453.542 315.732H454.734L455.471 314.597ZM593.768 181.349L592.237 180.725L591.272 181.292V183.107L591.102 184.752L592.066 185.433L592.747 186.227L592.804 187.702L594.108 188.212L593.768 186.738L593.201 185.603L593.768 183.731V181.349ZM624.4 191.503H626.385L627.633 190.255L626.102 189.744L624.57 190.425L623.095 189.857L621.961 190.255L622.528 191.503H624.4V191.503ZM629.392 252.426L629.449 250.951L628.654 250.1L628.144 251.575L627.35 252.369L628.257 253.277L628.768 254.355L628.598 255.829L628.541 257.701L629.392 258.552L630.356 258.042V256.056L631.207 255.205L630.526 253.504L629.392 252.426ZM633.59 263.828L632.171 262.92V264.168L632.966 264.565L633.59 263.828ZM630.299 186.17L631.094 185.376L630.016 185.603L628.938 186.341L629.505 186.908L630.299 186.17ZM517.586 93.7076L518.55 95.069L519.514 97.338L520.989 97.6216L522.01 96.6006L522.748 95.1824L521.897 94.2748L523.145 92.4596L522.918 90.4742V88.1485L521.67 87.1841L520.932 86.9005L520.308 87.5812L518.89 88.3186L517.699 89.5099L517.813 91.552L517.302 92.0625L517.586 93.7076ZM540.162 292.304L539.368 293.212V294.346V295.594L540.786 295.027L541.524 295.764L542.318 294.97L542.658 293.325L541.751 292.02L540.162 292.304ZM446.962 147.37L447.927 148.731L449.798 149.355L450.933 148.221H452.465L453.996 147.597L455.414 146.973L456.322 146.065V144.874L457.116 142.718L455.755 141.697L453.883 142.548L452.918 143.683L451.841 144.761H451.387L450.593 143.796L449.288 145.158L448.38 146.065L447.756 146.689L446.452 146.065L446.622 146.746L446.962 147.37ZM430.001 159.623H430.966L432.157 160.814L431.817 162.175L433.348 162.97L435.39 163.083L436.241 163.934H437.773L439.588 163.423V162.062L438.453 161.041L439.077 160.417L439.985 161.325L441.573 158.432L443.105 156.9L443.729 157.524L445.09 156.162L445.544 154.858L444.013 154.347L442.991 155.368L441.687 154.404L440.155 153.44L438.624 152.305L439.134 151.171L439.928 150.376L440.552 152.589L441.517 153.553L443.162 153.837L444.183 153.383H445.034L445.884 152.532L445.431 150.717H444.069L444.41 149.185V148.051L443.275 148.391H440.552L439.645 149.299L438.226 150.263L437.205 149.242L434.709 150.036L434.88 151.568L435.504 152.192L436.468 153.156L437.092 153.78L436.128 154.574L434.823 153.44L434.142 154.12L433.178 153.156L431.022 153.61L430.058 153.099L429.604 154.234L430.285 154.915L428.98 155.595V157.24L430.001 158.261V159.623ZM444.807 163.65L444.013 164.331L444.636 166.033L445.601 166.997L446.395 165.409V164.104L445.771 163.48L444.807 163.65ZM448.777 170.344L449.572 168.699L451.557 168.245L453.259 167.564L455.585 166.203L454.393 163.991H452.748L450.422 163.196L449.345 164.161L448.38 165.125L447.416 166.089L447.983 167.394L448.948 168.358L448.324 169.72L448.777 170.344ZM428.356 163.537H429.491V162.402L429.037 161.495L428.243 160.701L426.881 160.587L427.789 161.495L428.356 163.537ZM386.323 198.593L387.457 198.083L388.762 196.778V194.736H387.117L386.152 194.906L384.564 196.494V197.572H385.925L386.323 198.593ZM442.765 135.401L442.084 134.437L441.573 135.401L442.141 135.968L442.765 135.401ZM435.107 172.046L436.071 172.499L437.262 173.464L437.773 172.783L437.262 171.989L435.617 171.649L435.107 172.046Z" stroke="white" stroke-width="4" mask="url(#path-52-outside-2)"/>
</svg>
