<?xml version="1.0" encoding="UTF-8" standalone="no"?>
<svg>
    <mask id="path-50-outside-1" maskUnits="userSpaceOnUse" x="106.405" y="335.397" width="215" height="134" fill="black">
        <rect fill="white" x="106.405" y="335.397" width="215" height="134"/>
        <path d="M318.717 411.517L317.696 409.645L317.185 407.716L315.71 409.191L313.271 410.155L311.002 409.418L308.449 408.737V406.468L306.464 405.22L305.727 403.518L304.138 402.497L303.741 400.228L302.437 398.98L300.678 398.186L299.487 397.052H297.048L295.856 398.243L293.474 398.64L292.51 397.676L290.411 398.073L289.276 396.938L288.255 395.917V394.499L287.234 393.251L285.702 393.705L284.681 395.861L282.583 396.258L281.335 393.818L280.654 391.663L280.2 389.224L278.612 386.387V384.118L277.08 382.7V379.58L275.946 375.78L274.357 374.191L273.336 373.17L272.259 370.845L271.067 369.653L269.479 368.973V367.271H270.784L271.918 365.739L271.464 364.435H269.763L268.344 365.853L266.359 365.966L264.884 366.023L263.296 367.611L260.63 368.349L258.361 369.597L257.34 368.065L255.354 369.029H253.766L254.333 366.477L256.602 365.456V364.151H254.73L253.029 363.13L252.007 364.151L250.136 363.584L250.759 361.371L249.398 360.01L247.526 361.144L245.427 360.577L244.917 358.932L246.108 357.741V355.926L246.562 354.621L245.824 352.239L244.406 351.558H242.704L241.854 349.856H239.471L237.599 348.722L235.5 348.551L234.366 350.14H231.983L229.884 350.707L228.183 349.743L226.084 350.14H223.531L221.092 348.835H220.071L218.993 349.913L217.121 350.31L215.306 349.345H213.718L211.562 348.665L208.329 348.778L205.946 348.324L204.244 348.778L202.713 347.474L200.557 346.339H198.572L197.891 348.438L198.572 349.856L197.267 351.161L198.288 351.841L199.309 352.862L200.614 354.167L199.423 355.358H198.118L196.53 353.77L194.091 353.884L192.502 354.564L193.183 356.947L192.502 358.649L190.914 359.102L189.042 358.649L188.305 360.634L188.872 361.995L190.177 363.3L191.084 364.208L191.481 365.796L192.786 367.101L191.481 368.916L190.233 370.164H188.021L185.865 370.334L184.788 369.256L184.05 367.725H183.029L182.008 368.746H180.363L178.491 366.874L178.151 365.796L176.733 364.378V361.939L175.541 360.747H173.386L171.571 361.428L170.89 360.01L169.075 358.592L167.486 357.741L165.331 358.762L163.345 359.046L161.757 358.592L160.622 356.436L159.034 355.018L157.9 356.89H156.652V355.358L157.786 354.224L157.049 352.636L156.084 350.196L155.687 347.644L154.269 345.942L152 345.091L151.319 343.503L150.072 342.255L147.802 342.652H146.611V340.837L145.931 338.965L143.605 338.511L142.414 339.702L140.258 340.44L138.386 339.419H136.401L135.436 340.837H133.451H131.295L130.842 341.858L129.594 343.106L129.423 344.921L127.098 344.524L125.736 343.162V341.29L126.36 339.419L125.339 338.397H123.751L123.07 339.929L121.822 340.837H119.95L118.475 342.312L117.227 343.559V345.261L115.639 345.942L113.937 345.829L112.689 347.02L111.214 348.041L111.838 349.913L113.2 351.331L112.633 353.77L111.385 355.018L112.576 355.755L115.526 358.592L115.072 361.031L115.582 364.264V366.874L114.561 367.895L114.221 367.498L113.654 366.874L112.236 366.704L112.462 368.405L113.2 369.937C113.257 369.994 113.313 370.107 113.37 370.164L114.448 371.242L114.051 371.639C114.391 371.979 114.448 371.922 114.561 371.525C114.561 371.469 114.618 371.355 114.618 371.298C114.675 371.355 114.731 371.355 114.845 371.412C115.129 371.582 115.469 371.752 115.753 372.036C116.206 372.433 116.717 372.66 117.284 372.319C117.851 373.624 117.965 373.567 119.156 372.943C119.893 372.546 120.858 372.546 121.709 372.319C123.013 372.036 124.375 372.49 125.679 372.036C126.077 371.922 126.36 372.376 126.757 372.49C129.196 372.943 130.671 374.815 132.146 376.517C132.203 376.631 132.316 376.801 132.373 376.801C133.337 376.574 133.678 377.368 134.188 377.935C134.302 378.105 134.529 378.219 134.699 378.332C136.06 378.9 135.947 379.353 135.833 380.998C135.72 382.36 134.982 383.438 134.642 384.686C134.302 385.877 133.167 386.501 132.089 387.068C130.161 388.146 128.062 388.203 125.963 388.656C125.396 388.77 124.999 388.6 124.602 388.146C123.921 387.295 122.957 386.955 121.822 387.011C121.255 387.011 120.688 386.898 120.12 386.898C119.61 386.898 119.269 387.068 119.043 387.465C118.475 388.543 117.908 389.677 117.398 390.755C117.057 391.493 117.171 392.117 117.795 392.627C117.965 392.741 118.248 392.911 118.078 393.308C117.795 393.081 117.398 392.968 117.227 392.684C116.944 392.173 116.603 392.173 116.15 392.23C115.753 392.344 115.355 392.117 115.299 391.72C115.242 390.131 113.881 389.791 112.973 388.997C112.689 388.77 112.406 388.373 111.895 388.429C110.931 388.543 110.988 389.507 110.59 390.074C110.25 390.528 110.59 391.152 111.101 391.549C111.441 391.833 111.838 392.117 112.122 392.457C112.462 392.797 112.746 393.308 112.519 393.762C111.838 395.18 111.725 396.768 111.838 398.186C111.952 399.831 111.782 401.136 110.534 402.214C110.25 402.441 110.477 402.781 110.817 402.838C111.385 402.894 111.782 403.292 112.349 403.462C112.406 404.426 112.519 405.39 112.462 406.298C112.406 406.922 112.633 407.035 113.143 407.149C113.824 407.262 114.618 407.376 114.221 408.51C115.469 408.624 115.809 408.907 116.036 410.042C115.809 410.099 115.696 409.815 115.412 409.815C115.696 411.857 114.334 412.595 112.916 413.332C112.576 413.502 112.179 413.786 112.065 414.183C111.782 415.034 111.668 415.998 110.704 416.509C111.214 416.962 111.612 416.736 111.895 416.622C114.675 415.544 117.511 415.941 120.234 416.509C121.595 416.792 123.127 417.303 123.637 419.061C123.808 419.629 124.148 420.082 124.375 420.593C124.829 421.784 125.396 422.862 125.226 424.337C125.056 426.039 125.509 427.74 125.736 429.442C125.793 430.066 126.303 430.066 126.644 430.293C127.325 430.747 128.119 430.69 128.799 430.917C129.31 431.087 129.367 430.52 129.537 430.236C131.012 427.343 132.43 424.394 133.905 421.444C136.741 415.714 139.521 409.985 142.357 404.313C143.208 402.668 143.208 402.668 144.966 402.838C149.334 403.178 153.645 403.916 158.013 404.54C158.807 404.653 159.318 404.993 159.715 405.731C161.87 409.702 164.31 413.445 167.032 417.076C167.77 418.097 168.394 419.175 169.018 420.253C169.075 420.366 169.188 420.479 169.188 420.593C169.075 423.146 170.606 425.188 171.173 427.513C171.514 428.988 172.308 429.726 173.726 429.953C174.577 430.066 175.428 430.463 176.335 430.406C179.115 430.236 181.271 431.768 183.653 432.846C184.391 433.186 185.128 433.526 185.865 433.923C186.773 434.377 187.624 434.377 188.588 433.98C189.779 433.47 190.063 433.697 190.233 434.944C190.347 435.795 190.687 436.533 191.311 437.1C191.878 437.611 192.105 438.235 192.219 438.972C192.389 440.163 192.616 441.354 192.843 442.489C193.353 442.716 193.864 442.319 194.431 442.489C194.204 443.283 193.92 444.134 193.694 444.928C193.183 446.63 192.843 448.388 192.162 450.033C191.935 450.601 192.048 450.998 192.672 451.168C192.956 451.225 193.183 451.395 193.41 451.508C194.941 452.246 194.941 452.246 194.658 454.061C194.488 455.309 194.318 456.614 194.091 457.862C193.977 458.429 194.204 458.713 194.658 458.883C196.587 459.393 198.402 460.244 200.387 460.414C201.295 460.528 201.295 461.492 201.635 462.003C201.862 462.286 201.408 462.797 200.841 462.967C200.33 463.137 200.387 463.534 200.784 463.931C201.578 464.669 202.373 465.349 202.883 466.314C203.223 466.427 203.564 466.541 203.904 466.654C204.131 466.484 204.415 466.314 204.358 465.917C204.188 465.009 204.585 464.101 204.642 463.194C205.095 463.137 205.039 463.648 205.322 463.648C206.797 462.57 208.272 461.492 209.747 460.414C210.257 460.074 210.598 460.698 211.108 460.698C211.619 459.28 212.753 459.393 213.945 459.28C215.363 459.166 216.667 458.542 217.688 457.465C218.142 457.011 218.483 456.954 218.88 457.294C219.22 457.578 219.504 457.635 219.844 457.294C220.355 456.727 220.922 456.273 221.716 456.387C221.829 455.876 221.319 455.763 221.319 455.309C221.886 454.628 222.85 454.118 223.304 453.38C223.985 452.303 224.949 452.926 225.63 452.303C225.8 452.132 226.027 452.359 226.197 452.473C226.481 452.643 226.765 452.813 227.048 452.7C227.842 452.416 228.41 452.813 229.034 453.267C229.431 453.55 229.828 453.777 230.338 453.777C230.735 453.777 231.076 454.061 231.359 454.345C231.643 454.685 232.04 454.912 232.437 454.969C232.777 455.025 233.118 455.196 233.231 455.536C233.572 456.614 234.479 456.67 235.33 456.897C235.841 457.011 236.238 457.124 236.408 457.748C236.578 458.372 237.202 458.089 237.656 458.372C237.372 457.124 237.883 456.046 238.11 454.912C238.45 453.607 239.187 453.097 240.322 452.983C240.946 452.87 241.456 452.756 241.627 451.849C242.08 452.473 242.478 452.7 243.102 452.416C243.215 452.359 243.385 452.303 243.442 452.359C244.066 453.04 245.144 453.324 245.484 454.345C245.654 454.855 245.881 454.969 246.392 455.025C247.072 455.082 247.469 455.763 247.98 456.16C248.888 456.841 249.795 457.465 251.043 457.351C251.44 457.294 251.781 457.294 252.007 456.954C252.405 456.387 252.858 456.5 253.369 456.67C255.184 457.124 256.943 457.918 258.871 457.238C259.552 457.011 260.176 457.238 260.686 457.805C260.97 458.145 261.424 458.315 261.821 458.315C263.75 458.372 265.508 459.11 267.38 459.166C268.571 459.223 269.592 459.677 270.67 460.131C271.521 460.471 272.372 460.698 273.223 460.131C272.939 461.605 274.13 463.477 275.549 463.648C276.797 463.818 277.818 464.215 278.442 465.463C278.498 465.576 278.555 465.69 278.668 465.746C278.952 466.03 279.292 466.257 279.633 466.03C280.03 465.746 279.86 465.293 279.69 465.009C279.406 464.442 279.009 463.931 279.86 463.534C279.066 462.683 279.519 461.322 280.654 460.925C281.164 460.755 281.845 460.755 282.242 460.301C282.129 459.677 281.278 459.734 281.108 459.053C281.618 458.826 282.072 458.542 282.639 458.486C283.66 458.429 283.604 458.089 283.547 457.011C283.433 454.345 281.902 452.076 281.902 449.41C281.902 448.275 281.902 447.197 282.242 446.119C282.412 445.495 282.356 445.042 281.845 444.701C281.391 444.418 281.051 444.077 281.335 443.453C280.881 443.283 280.597 443.737 280.2 443.68C279.916 443.51 279.86 443.113 279.69 442.773C280.2 442.149 280.711 441.808 281.562 441.865C282.526 441.922 283.547 441.638 284.511 441.298C285.079 441.128 285.759 441.241 286.383 441.014C287.064 440.73 287.801 440.787 288.425 440.163C288.936 439.596 289.276 440.277 289.446 440.73C289.787 441.865 290.241 442.092 291.262 441.638C291.829 441.411 292.396 441.354 292.907 441.695C293.531 442.092 294.041 441.865 294.438 441.298C294.835 440.73 294.722 439.936 294.211 439.709C292.566 438.915 292.963 437.497 292.907 436.079C292.907 435.568 293.36 435.398 293.474 435.001C294.155 433.016 295.176 431.144 295.97 429.158C296.48 427.854 297.048 426.549 297.558 425.244C297.728 424.791 297.955 424.734 298.352 424.847C298.749 425.017 299.146 425.188 299.487 425.471C301.132 426.946 303.004 427.4 305.159 427.003C305.216 427.003 305.273 427.003 305.33 427.003C306.748 426.946 306.918 427.116 306.748 428.534C307.201 428.875 307.599 428.705 307.996 428.421C308.449 428.137 308.96 427.797 309.414 427.457C309.811 427.173 310.095 427.003 310.605 427.003C311.966 427.003 313.271 424.62 312.59 423.259C312.193 422.465 312.137 421.727 312.137 420.877C312.137 420.423 312.193 419.969 312.08 419.515C311.853 418.324 312.42 417.53 312.931 416.452C313.611 415.034 314.462 415.147 315.597 414.92C316.448 414.75 317.526 414.523 318.15 413.502C318.433 413.105 318.603 412.651 318.717 412.254V411.517ZM115.979 410.439C115.809 410.099 115.639 409.815 116.036 409.531C116.376 409.815 116.32 410.099 115.979 410.439Z"/>
    </mask>
    <path class="color" d="M318.717 411.517L317.696 409.645L317.185 407.716L315.71 409.191L313.271 410.155L311.002 409.418L308.449 408.737V406.468L306.464 405.22L305.727 403.518L304.138 402.497L303.741 400.228L302.437 398.98L300.678 398.186L299.487 397.052H297.048L295.856 398.243L293.474 398.64L292.51 397.676L290.411 398.073L289.276 396.938L288.255 395.917V394.499L287.234 393.251L285.702 393.705L284.681 395.861L282.583 396.258L281.335 393.818L280.654 391.663L280.2 389.224L278.612 386.387V384.118L277.08 382.7V379.58L275.946 375.78L274.357 374.191L273.336 373.17L272.259 370.845L271.067 369.653L269.479 368.973V367.271H270.784L271.918 365.739L271.464 364.435H269.763L268.344 365.853L266.359 365.966L264.884 366.023L263.296 367.611L260.63 368.349L258.361 369.597L257.34 368.065L255.354 369.029H253.766L254.333 366.477L256.602 365.456V364.151H254.73L253.029 363.13L252.007 364.151L250.136 363.584L250.759 361.371L249.398 360.01L247.526 361.144L245.427 360.577L244.917 358.932L246.108 357.741V355.926L246.562 354.621L245.824 352.239L244.406 351.558H242.704L241.854 349.856H239.471L237.599 348.722L235.5 348.551L234.366 350.14H231.983L229.884 350.707L228.183 349.743L226.084 350.14H223.531L221.092 348.835H220.071L218.993 349.913L217.121 350.31L215.306 349.345H213.718L211.562 348.665L208.329 348.778L205.946 348.324L204.244 348.778L202.713 347.474L200.557 346.339H198.572L197.891 348.438L198.572 349.856L197.267 351.161L198.288 351.841L199.309 352.862L200.614 354.167L199.423 355.358H198.118L196.53 353.77L194.091 353.884L192.502 354.564L193.183 356.947L192.502 358.649L190.914 359.102L189.042 358.649L188.305 360.634L188.872 361.995L190.177 363.3L191.084 364.208L191.481 365.796L192.786 367.101L191.481 368.916L190.233 370.164H188.021L185.865 370.334L184.788 369.256L184.05 367.725H183.029L182.008 368.746H180.363L178.491 366.874L178.151 365.796L176.733 364.378V361.939L175.541 360.747H173.386L171.571 361.428L170.89 360.01L169.075 358.592L167.486 357.741L165.331 358.762L163.345 359.046L161.757 358.592L160.622 356.436L159.034 355.018L157.9 356.89H156.652V355.358L157.786 354.224L157.049 352.636L156.084 350.196L155.687 347.644L154.269 345.942L152 345.091L151.319 343.503L150.072 342.255L147.802 342.652H146.611V340.837L145.931 338.965L143.605 338.511L142.414 339.702L140.258 340.44L138.386 339.419H136.401L135.436 340.837H133.451H131.295L130.842 341.858L129.594 343.106L129.423 344.921L127.098 344.524L125.736 343.162V341.29L126.36 339.419L125.339 338.397H123.751L123.07 339.929L121.822 340.837H119.95L118.475 342.312L117.227 343.559V345.261L115.639 345.942L113.937 345.829L112.689 347.02L111.214 348.041L111.838 349.913L113.2 351.331L112.633 353.77L111.385 355.018L112.576 355.755L115.526 358.592L115.072 361.031L115.582 364.264V366.874L114.561 367.895L114.221 367.498L113.654 366.874L112.236 366.704L112.462 368.405L113.2 369.937C113.257 369.994 113.313 370.107 113.37 370.164L114.448 371.242L114.051 371.639C114.391 371.979 114.448 371.922 114.561 371.525C114.561 371.469 114.618 371.355 114.618 371.298C114.675 371.355 114.731 371.355 114.845 371.412C115.129 371.582 115.469 371.752 115.753 372.036C116.206 372.433 116.717 372.66 117.284 372.319C117.851 373.624 117.965 373.567 119.156 372.943C119.893 372.546 120.858 372.546 121.709 372.319C123.013 372.036 124.375 372.49 125.679 372.036C126.077 371.922 126.36 372.376 126.757 372.49C129.196 372.943 130.671 374.815 132.146 376.517C132.203 376.631 132.316 376.801 132.373 376.801C133.337 376.574 133.678 377.368 134.188 377.935C134.302 378.105 134.529 378.219 134.699 378.332C136.06 378.9 135.947 379.353 135.833 380.998C135.72 382.36 134.982 383.438 134.642 384.686C134.302 385.877 133.167 386.501 132.089 387.068C130.161 388.146 128.062 388.203 125.963 388.656C125.396 388.77 124.999 388.6 124.602 388.146C123.921 387.295 122.957 386.955 121.822 387.011C121.255 387.011 120.688 386.898 120.12 386.898C119.61 386.898 119.269 387.068 119.043 387.465C118.475 388.543 117.908 389.677 117.398 390.755C117.057 391.493 117.171 392.117 117.795 392.627C117.965 392.741 118.248 392.911 118.078 393.308C117.795 393.081 117.398 392.968 117.227 392.684C116.944 392.173 116.603 392.173 116.15 392.23C115.753 392.344 115.355 392.117 115.299 391.72C115.242 390.131 113.881 389.791 112.973 388.997C112.689 388.77 112.406 388.373 111.895 388.429C110.931 388.543 110.988 389.507 110.59 390.074C110.25 390.528 110.59 391.152 111.101 391.549C111.441 391.833 111.838 392.117 112.122 392.457C112.462 392.797 112.746 393.308 112.519 393.762C111.838 395.18 111.725 396.768 111.838 398.186C111.952 399.831 111.782 401.136 110.534 402.214C110.25 402.441 110.477 402.781 110.817 402.838C111.385 402.894 111.782 403.292 112.349 403.462C112.406 404.426 112.519 405.39 112.462 406.298C112.406 406.922 112.633 407.035 113.143 407.149C113.824 407.262 114.618 407.376 114.221 408.51C115.469 408.624 115.809 408.907 116.036 410.042C115.809 410.099 115.696 409.815 115.412 409.815C115.696 411.857 114.334 412.595 112.916 413.332C112.576 413.502 112.179 413.786 112.065 414.183C111.782 415.034 111.668 415.998 110.704 416.509C111.214 416.962 111.612 416.736 111.895 416.622C114.675 415.544 117.511 415.941 120.234 416.509C121.595 416.792 123.127 417.303 123.637 419.061C123.808 419.629 124.148 420.082 124.375 420.593C124.829 421.784 125.396 422.862 125.226 424.337C125.056 426.039 125.509 427.74 125.736 429.442C125.793 430.066 126.303 430.066 126.644 430.293C127.325 430.747 128.119 430.69 128.799 430.917C129.31 431.087 129.367 430.52 129.537 430.236C131.012 427.343 132.43 424.394 133.905 421.444C136.741 415.714 139.521 409.985 142.357 404.313C143.208 402.668 143.208 402.668 144.966 402.838C149.334 403.178 153.645 403.916 158.013 404.54C158.807 404.653 159.318 404.993 159.715 405.731C161.87 409.702 164.31 413.445 167.032 417.076C167.77 418.097 168.394 419.175 169.018 420.253C169.075 420.366 169.188 420.479 169.188 420.593C169.075 423.146 170.606 425.188 171.173 427.513C171.514 428.988 172.308 429.726 173.726 429.953C174.577 430.066 175.428 430.463 176.335 430.406C179.115 430.236 181.271 431.768 183.653 432.846C184.391 433.186 185.128 433.526 185.865 433.923C186.773 434.377 187.624 434.377 188.588 433.98C189.779 433.47 190.063 433.697 190.233 434.944C190.347 435.795 190.687 436.533 191.311 437.1C191.878 437.611 192.105 438.235 192.219 438.972C192.389 440.163 192.616 441.354 192.843 442.489C193.353 442.716 193.864 442.319 194.431 442.489C194.204 443.283 193.92 444.134 193.694 444.928C193.183 446.63 192.843 448.388 192.162 450.033C191.935 450.601 192.048 450.998 192.672 451.168C192.956 451.225 193.183 451.395 193.41 451.508C194.941 452.246 194.941 452.246 194.658 454.061C194.488 455.309 194.318 456.614 194.091 457.862C193.977 458.429 194.204 458.713 194.658 458.883C196.587 459.393 198.402 460.244 200.387 460.414C201.295 460.528 201.295 461.492 201.635 462.003C201.862 462.286 201.408 462.797 200.841 462.967C200.33 463.137 200.387 463.534 200.784 463.931C201.578 464.669 202.373 465.349 202.883 466.314C203.223 466.427 203.564 466.541 203.904 466.654C204.131 466.484 204.415 466.314 204.358 465.917C204.188 465.009 204.585 464.101 204.642 463.194C205.095 463.137 205.039 463.648 205.322 463.648C206.797 462.57 208.272 461.492 209.747 460.414C210.257 460.074 210.598 460.698 211.108 460.698C211.619 459.28 212.753 459.393 213.945 459.28C215.363 459.166 216.667 458.542 217.688 457.465C218.142 457.011 218.483 456.954 218.88 457.294C219.22 457.578 219.504 457.635 219.844 457.294C220.355 456.727 220.922 456.273 221.716 456.387C221.829 455.876 221.319 455.763 221.319 455.309C221.886 454.628 222.85 454.118 223.304 453.38C223.985 452.303 224.949 452.926 225.63 452.303C225.8 452.132 226.027 452.359 226.197 452.473C226.481 452.643 226.765 452.813 227.048 452.7C227.842 452.416 228.41 452.813 229.034 453.267C229.431 453.55 229.828 453.777 230.338 453.777C230.735 453.777 231.076 454.061 231.359 454.345C231.643 454.685 232.04 454.912 232.437 454.969C232.777 455.025 233.118 455.196 233.231 455.536C233.572 456.614 234.479 456.67 235.33 456.897C235.841 457.011 236.238 457.124 236.408 457.748C236.578 458.372 237.202 458.089 237.656 458.372C237.372 457.124 237.883 456.046 238.11 454.912C238.45 453.607 239.187 453.097 240.322 452.983C240.946 452.87 241.456 452.756 241.627 451.849C242.08 452.473 242.478 452.7 243.102 452.416C243.215 452.359 243.385 452.303 243.442 452.359C244.066 453.04 245.144 453.324 245.484 454.345C245.654 454.855 245.881 454.969 246.392 455.025C247.072 455.082 247.469 455.763 247.98 456.16C248.888 456.841 249.795 457.465 251.043 457.351C251.44 457.294 251.781 457.294 252.007 456.954C252.405 456.387 252.858 456.5 253.369 456.67C255.184 457.124 256.943 457.918 258.871 457.238C259.552 457.011 260.176 457.238 260.686 457.805C260.97 458.145 261.424 458.315 261.821 458.315C263.75 458.372 265.508 459.11 267.38 459.166C268.571 459.223 269.592 459.677 270.67 460.131C271.521 460.471 272.372 460.698 273.223 460.131C272.939 461.605 274.13 463.477 275.549 463.648C276.797 463.818 277.818 464.215 278.442 465.463C278.498 465.576 278.555 465.69 278.668 465.746C278.952 466.03 279.292 466.257 279.633 466.03C280.03 465.746 279.86 465.293 279.69 465.009C279.406 464.442 279.009 463.931 279.86 463.534C279.066 462.683 279.519 461.322 280.654 460.925C281.164 460.755 281.845 460.755 282.242 460.301C282.129 459.677 281.278 459.734 281.108 459.053C281.618 458.826 282.072 458.542 282.639 458.486C283.66 458.429 283.604 458.089 283.547 457.011C283.433 454.345 281.902 452.076 281.902 449.41C281.902 448.275 281.902 447.197 282.242 446.119C282.412 445.495 282.356 445.042 281.845 444.701C281.391 444.418 281.051 444.077 281.335 443.453C280.881 443.283 280.597 443.737 280.2 443.68C279.916 443.51 279.86 443.113 279.69 442.773C280.2 442.149 280.711 441.808 281.562 441.865C282.526 441.922 283.547 441.638 284.511 441.298C285.079 441.128 285.759 441.241 286.383 441.014C287.064 440.73 287.801 440.787 288.425 440.163C288.936 439.596 289.276 440.277 289.446 440.73C289.787 441.865 290.241 442.092 291.262 441.638C291.829 441.411 292.396 441.354 292.907 441.695C293.531 442.092 294.041 441.865 294.438 441.298C294.835 440.73 294.722 439.936 294.211 439.709C292.566 438.915 292.963 437.497 292.907 436.079C292.907 435.568 293.36 435.398 293.474 435.001C294.155 433.016 295.176 431.144 295.97 429.158C296.48 427.854 297.048 426.549 297.558 425.244C297.728 424.791 297.955 424.734 298.352 424.847C298.749 425.017 299.146 425.188 299.487 425.471C301.132 426.946 303.004 427.4 305.159 427.003C305.216 427.003 305.273 427.003 305.33 427.003C306.748 426.946 306.918 427.116 306.748 428.534C307.201 428.875 307.599 428.705 307.996 428.421C308.449 428.137 308.96 427.797 309.414 427.457C309.811 427.173 310.095 427.003 310.605 427.003C311.966 427.003 313.271 424.62 312.59 423.259C312.193 422.465 312.137 421.727 312.137 420.877C312.137 420.423 312.193 419.969 312.08 419.515C311.853 418.324 312.42 417.53 312.931 416.452C313.611 415.034 314.462 415.147 315.597 414.92C316.448 414.75 317.526 414.523 318.15 413.502C318.433 413.105 318.603 412.651 318.717 412.254V411.517ZM115.979 410.439C115.809 410.099 115.639 409.815 116.036 409.531C116.376 409.815 116.32 410.099 115.979 410.439Z" fill="#FEC77F"/>
    <path d="M318.717 411.517L317.696 409.645L317.185 407.716L315.71 409.191L313.271 410.155L311.002 409.418L308.449 408.737V406.468L306.464 405.22L305.727 403.518L304.138 402.497L303.741 400.228L302.437 398.98L300.678 398.186L299.487 397.052H297.048L295.856 398.243L293.474 398.64L292.51 397.676L290.411 398.073L289.276 396.938L288.255 395.917V394.499L287.234 393.251L285.702 393.705L284.681 395.861L282.583 396.258L281.335 393.818L280.654 391.663L280.2 389.224L278.612 386.387V384.118L277.08 382.7V379.58L275.946 375.78L274.357 374.191L273.336 373.17L272.259 370.845L271.067 369.653L269.479 368.973V367.271H270.784L271.918 365.739L271.464 364.435H269.763L268.344 365.853L266.359 365.966L264.884 366.023L263.296 367.611L260.63 368.349L258.361 369.597L257.34 368.065L255.354 369.029H253.766L254.333 366.477L256.602 365.456V364.151H254.73L253.029 363.13L252.007 364.151L250.136 363.584L250.759 361.371L249.398 360.01L247.526 361.144L245.427 360.577L244.917 358.932L246.108 357.741V355.926L246.562 354.621L245.824 352.239L244.406 351.558H242.704L241.854 349.856H239.471L237.599 348.722L235.5 348.551L234.366 350.14H231.983L229.884 350.707L228.183 349.743L226.084 350.14H223.531L221.092 348.835H220.071L218.993 349.913L217.121 350.31L215.306 349.345H213.718L211.562 348.665L208.329 348.778L205.946 348.324L204.244 348.778L202.713 347.474L200.557 346.339H198.572L197.891 348.438L198.572 349.856L197.267 351.161L198.288 351.841L199.309 352.862L200.614 354.167L199.423 355.358H198.118L196.53 353.77L194.091 353.884L192.502 354.564L193.183 356.947L192.502 358.649L190.914 359.102L189.042 358.649L188.305 360.634L188.872 361.995L190.177 363.3L191.084 364.208L191.481 365.796L192.786 367.101L191.481 368.916L190.233 370.164H188.021L185.865 370.334L184.788 369.256L184.05 367.725H183.029L182.008 368.746H180.363L178.491 366.874L178.151 365.796L176.733 364.378V361.939L175.541 360.747H173.386L171.571 361.428L170.89 360.01L169.075 358.592L167.486 357.741L165.331 358.762L163.345 359.046L161.757 358.592L160.622 356.436L159.034 355.018L157.9 356.89H156.652V355.358L157.786 354.224L157.049 352.636L156.084 350.196L155.687 347.644L154.269 345.942L152 345.091L151.319 343.503L150.072 342.255L147.802 342.652H146.611V340.837L145.931 338.965L143.605 338.511L142.414 339.702L140.258 340.44L138.386 339.419H136.401L135.436 340.837H133.451H131.295L130.842 341.858L129.594 343.106L129.423 344.921L127.098 344.524L125.736 343.162V341.29L126.36 339.419L125.339 338.397H123.751L123.07 339.929L121.822 340.837H119.95L118.475 342.312L117.227 343.559V345.261L115.639 345.942L113.937 345.829L112.689 347.02L111.214 348.041L111.838 349.913L113.2 351.331L112.633 353.77L111.385 355.018L112.576 355.755L115.526 358.592L115.072 361.031L115.582 364.264V366.874L114.561 367.895L114.221 367.498L113.654 366.874L112.236 366.704L112.462 368.405L113.2 369.937C113.257 369.994 113.313 370.107 113.37 370.164L114.448 371.242L114.051 371.639C114.391 371.979 114.448 371.922 114.561 371.525C114.561 371.469 114.618 371.355 114.618 371.298C114.675 371.355 114.731 371.355 114.845 371.412C115.129 371.582 115.469 371.752 115.753 372.036C116.206 372.433 116.717 372.66 117.284 372.319C117.851 373.624 117.965 373.567 119.156 372.943C119.893 372.546 120.858 372.546 121.709 372.319C123.013 372.036 124.375 372.49 125.679 372.036C126.077 371.922 126.36 372.376 126.757 372.49C129.196 372.943 130.671 374.815 132.146 376.517C132.203 376.631 132.316 376.801 132.373 376.801C133.337 376.574 133.678 377.368 134.188 377.935C134.302 378.105 134.529 378.219 134.699 378.332C136.06 378.9 135.947 379.353 135.833 380.998C135.72 382.36 134.982 383.438 134.642 384.686C134.302 385.877 133.167 386.501 132.089 387.068C130.161 388.146 128.062 388.203 125.963 388.656C125.396 388.77 124.999 388.6 124.602 388.146C123.921 387.295 122.957 386.955 121.822 387.011C121.255 387.011 120.688 386.898 120.12 386.898C119.61 386.898 119.269 387.068 119.043 387.465C118.475 388.543 117.908 389.677 117.398 390.755C117.057 391.493 117.171 392.117 117.795 392.627C117.965 392.741 118.248 392.911 118.078 393.308C117.795 393.081 117.398 392.968 117.227 392.684C116.944 392.173 116.603 392.173 116.15 392.23C115.753 392.344 115.355 392.117 115.299 391.72C115.242 390.131 113.881 389.791 112.973 388.997C112.689 388.77 112.406 388.373 111.895 388.429C110.931 388.543 110.988 389.507 110.59 390.074C110.25 390.528 110.59 391.152 111.101 391.549C111.441 391.833 111.838 392.117 112.122 392.457C112.462 392.797 112.746 393.308 112.519 393.762C111.838 395.18 111.725 396.768 111.838 398.186C111.952 399.831 111.782 401.136 110.534 402.214C110.25 402.441 110.477 402.781 110.817 402.838C111.385 402.894 111.782 403.292 112.349 403.462C112.406 404.426 112.519 405.39 112.462 406.298C112.406 406.922 112.633 407.035 113.143 407.149C113.824 407.262 114.618 407.376 114.221 408.51C115.469 408.624 115.809 408.907 116.036 410.042C115.809 410.099 115.696 409.815 115.412 409.815C115.696 411.857 114.334 412.595 112.916 413.332C112.576 413.502 112.179 413.786 112.065 414.183C111.782 415.034 111.668 415.998 110.704 416.509C111.214 416.962 111.612 416.736 111.895 416.622C114.675 415.544 117.511 415.941 120.234 416.509C121.595 416.792 123.127 417.303 123.637 419.061C123.808 419.629 124.148 420.082 124.375 420.593C124.829 421.784 125.396 422.862 125.226 424.337C125.056 426.039 125.509 427.74 125.736 429.442C125.793 430.066 126.303 430.066 126.644 430.293C127.325 430.747 128.119 430.69 128.799 430.917C129.31 431.087 129.367 430.52 129.537 430.236C131.012 427.343 132.43 424.394 133.905 421.444C136.741 415.714 139.521 409.985 142.357 404.313C143.208 402.668 143.208 402.668 144.966 402.838C149.334 403.178 153.645 403.916 158.013 404.54C158.807 404.653 159.318 404.993 159.715 405.731C161.87 409.702 164.31 413.445 167.032 417.076C167.77 418.097 168.394 419.175 169.018 420.253C169.075 420.366 169.188 420.479 169.188 420.593C169.075 423.146 170.606 425.188 171.173 427.513C171.514 428.988 172.308 429.726 173.726 429.953C174.577 430.066 175.428 430.463 176.335 430.406C179.115 430.236 181.271 431.768 183.653 432.846C184.391 433.186 185.128 433.526 185.865 433.923C186.773 434.377 187.624 434.377 188.588 433.98C189.779 433.47 190.063 433.697 190.233 434.944C190.347 435.795 190.687 436.533 191.311 437.1C191.878 437.611 192.105 438.235 192.219 438.972C192.389 440.163 192.616 441.354 192.843 442.489C193.353 442.716 193.864 442.319 194.431 442.489C194.204 443.283 193.92 444.134 193.694 444.928C193.183 446.63 192.843 448.388 192.162 450.033C191.935 450.601 192.048 450.998 192.672 451.168C192.956 451.225 193.183 451.395 193.41 451.508C194.941 452.246 194.941 452.246 194.658 454.061C194.488 455.309 194.318 456.614 194.091 457.862C193.977 458.429 194.204 458.713 194.658 458.883C196.587 459.393 198.402 460.244 200.387 460.414C201.295 460.528 201.295 461.492 201.635 462.003C201.862 462.286 201.408 462.797 200.841 462.967C200.33 463.137 200.387 463.534 200.784 463.931C201.578 464.669 202.373 465.349 202.883 466.314C203.223 466.427 203.564 466.541 203.904 466.654C204.131 466.484 204.415 466.314 204.358 465.917C204.188 465.009 204.585 464.101 204.642 463.194C205.095 463.137 205.039 463.648 205.322 463.648C206.797 462.57 208.272 461.492 209.747 460.414C210.257 460.074 210.598 460.698 211.108 460.698C211.619 459.28 212.753 459.393 213.945 459.28C215.363 459.166 216.667 458.542 217.688 457.465C218.142 457.011 218.483 456.954 218.88 457.294C219.22 457.578 219.504 457.635 219.844 457.294C220.355 456.727 220.922 456.273 221.716 456.387C221.829 455.876 221.319 455.763 221.319 455.309C221.886 454.628 222.85 454.118 223.304 453.38C223.985 452.303 224.949 452.926 225.63 452.303C225.8 452.132 226.027 452.359 226.197 452.473C226.481 452.643 226.765 452.813 227.048 452.7C227.842 452.416 228.41 452.813 229.034 453.267C229.431 453.55 229.828 453.777 230.338 453.777C230.735 453.777 231.076 454.061 231.359 454.345C231.643 454.685 232.04 454.912 232.437 454.969C232.777 455.025 233.118 455.196 233.231 455.536C233.572 456.614 234.479 456.67 235.33 456.897C235.841 457.011 236.238 457.124 236.408 457.748C236.578 458.372 237.202 458.089 237.656 458.372C237.372 457.124 237.883 456.046 238.11 454.912C238.45 453.607 239.187 453.097 240.322 452.983C240.946 452.87 241.456 452.756 241.627 451.849C242.08 452.473 242.478 452.7 243.102 452.416C243.215 452.359 243.385 452.303 243.442 452.359C244.066 453.04 245.144 453.324 245.484 454.345C245.654 454.855 245.881 454.969 246.392 455.025C247.072 455.082 247.469 455.763 247.98 456.16C248.888 456.841 249.795 457.465 251.043 457.351C251.44 457.294 251.781 457.294 252.007 456.954C252.405 456.387 252.858 456.5 253.369 456.67C255.184 457.124 256.943 457.918 258.871 457.238C259.552 457.011 260.176 457.238 260.686 457.805C260.97 458.145 261.424 458.315 261.821 458.315C263.75 458.372 265.508 459.11 267.38 459.166C268.571 459.223 269.592 459.677 270.67 460.131C271.521 460.471 272.372 460.698 273.223 460.131C272.939 461.605 274.13 463.477 275.549 463.648C276.797 463.818 277.818 464.215 278.442 465.463C278.498 465.576 278.555 465.69 278.668 465.746C278.952 466.03 279.292 466.257 279.633 466.03C280.03 465.746 279.86 465.293 279.69 465.009C279.406 464.442 279.009 463.931 279.86 463.534C279.066 462.683 279.519 461.322 280.654 460.925C281.164 460.755 281.845 460.755 282.242 460.301C282.129 459.677 281.278 459.734 281.108 459.053C281.618 458.826 282.072 458.542 282.639 458.486C283.66 458.429 283.604 458.089 283.547 457.011C283.433 454.345 281.902 452.076 281.902 449.41C281.902 448.275 281.902 447.197 282.242 446.119C282.412 445.495 282.356 445.042 281.845 444.701C281.391 444.418 281.051 444.077 281.335 443.453C280.881 443.283 280.597 443.737 280.2 443.68C279.916 443.51 279.86 443.113 279.69 442.773C280.2 442.149 280.711 441.808 281.562 441.865C282.526 441.922 283.547 441.638 284.511 441.298C285.079 441.128 285.759 441.241 286.383 441.014C287.064 440.73 287.801 440.787 288.425 440.163C288.936 439.596 289.276 440.277 289.446 440.73C289.787 441.865 290.241 442.092 291.262 441.638C291.829 441.411 292.396 441.354 292.907 441.695C293.531 442.092 294.041 441.865 294.438 441.298C294.835 440.73 294.722 439.936 294.211 439.709C292.566 438.915 292.963 437.497 292.907 436.079C292.907 435.568 293.36 435.398 293.474 435.001C294.155 433.016 295.176 431.144 295.97 429.158C296.48 427.854 297.048 426.549 297.558 425.244C297.728 424.791 297.955 424.734 298.352 424.847C298.749 425.017 299.146 425.188 299.487 425.471C301.132 426.946 303.004 427.4 305.159 427.003C305.216 427.003 305.273 427.003 305.33 427.003C306.748 426.946 306.918 427.116 306.748 428.534C307.201 428.875 307.599 428.705 307.996 428.421C308.449 428.137 308.96 427.797 309.414 427.457C309.811 427.173 310.095 427.003 310.605 427.003C311.966 427.003 313.271 424.62 312.59 423.259C312.193 422.465 312.137 421.727 312.137 420.877C312.137 420.423 312.193 419.969 312.08 419.515C311.853 418.324 312.42 417.53 312.931 416.452C313.611 415.034 314.462 415.147 315.597 414.92C316.448 414.75 317.526 414.523 318.15 413.502C318.433 413.105 318.603 412.651 318.717 412.254V411.517ZM115.979 410.439C115.809 410.099 115.639 409.815 116.036 409.531C116.376 409.815 116.32 410.099 115.979 410.439Z" stroke="white" stroke-width="4" mask="url(#path-50-outside-1)"/>
</svg>


