<?xml version="1.0" encoding="UTF-8" standalone="no"?>
<svg>
    <mask id="path-58-outside-5" maskUnits="userSpaceOnUse" x="48.2256" y="121.582" width="252" height="167" fill="black">
        <rect fill="white" x="48.2256" y="121.582" width="252" height="167"/>
        <path d="M270.279 128.021L268.407 128.645L268.123 127.68L267.272 126.886L267.896 125.582L268.861 126.546H270.392L271.016 126.773H271.811L272.605 127.567V128.645L272.094 128.134L270.903 128.645L270.279 128.021Z"/>
        <path d="M290.473 126.546L291.494 127.397L290.814 128.134L290.02 127.397L290.473 126.546Z"/>
        <path d="M296.77 131.765H295.806V131.084L295.238 130.29L295.919 130.063L296.77 130.403V131.765Z"/>
        <path d="M259.218 242.663H258.31L258.537 243.514L257.799 243.911L257.516 245.67L259.388 246.634V247.882L257.629 248.619L259.104 250.094L256.835 251.229L255.133 252.93H253.205L252.524 255.029H249.291L246.284 255.71L243.278 257.412V259.511L240.838 259.397L239.023 259.681L238.002 260.815L236.244 261.723L234.485 263.481L232.84 263.708V262.233L231.649 261.78L228.245 265.183L227.394 266.828L227.735 268.87L225.466 270.289L225.239 271.99L223.31 273.182L222.006 275.621L222.346 277.266L221.552 278.741V279.932L219.226 282.258L218.886 283.903L218.035 284.81L217.524 286.115L214.234 285.661L211.795 284.754L209.639 283.619L207.427 282.144H206.406L205.839 283.335L204.874 283.676L204.194 282.995L203.229 282.655L202.265 283.619L200.563 282.995L199.088 283.789L197.727 282.428L195.685 281.52L194.494 281.974L193.473 280.783L193.699 279.592L193.189 278.797L191.998 278.344L191.09 279.251L190.409 278.57L189.729 279.251L187.8 278.173L186.892 279.932L187.857 280.896V282.031L186.439 282.598H184.907L184.056 283.449L182.638 283.619L182.184 282.598L181.39 281.804L179.915 283.222L178.837 282.144L177.079 281.293L175.434 281.69L174.753 283.619L173.675 284.924L172.995 284.243L173.562 282.938L173.165 281.463V280.045L172.144 279.024V277.606L173.392 276.358V275.11L175.207 274.713V272.784L176.341 271.65L176.171 270.232L175.32 269.778L175.661 268.757L174.413 267.509L173.902 266.658L173.165 266.431L172.144 267.282L168.74 270.686L166.925 269.891L165.904 270.799L168.003 272.955L166.698 273.635V275.337L166.074 275.961L163.862 274.032L162.671 275.848L160.628 275.337L159.778 276.188L158.473 274.316L155.013 272.501L154.332 270.686L152.46 268.814L150.021 268.36L148.773 265.694L146.844 266.601L144.802 265.694L142.476 266.261L140.377 267.169L138.108 264.9V261.156L136.35 259.397L135.442 260.305L133.06 258.716L132.039 257.695L130.28 257.866L129.089 258.092V256.221L129.6 254.632L128.238 254.178L126.706 254.462L124.721 253.554L123.133 252.93L121.828 252.306L121.034 251.512L120.807 252.306H119.559L118.651 251.229H117.29L116.95 249.867L116.212 249.13L115.191 248.619H113.943L112.922 249.64H111.334L110.54 250.435L109.235 250.264L108.157 249.187H106.115L105.037 248.506L103.619 248.619L102.768 247.768H101.123L100.272 246.918L99.7051 245.67L98.2302 246.918L98.0601 248.109L97.2092 248.96L97.039 250.945L96.5285 252.08L95.9612 253.101H94.6565L94.0893 254.689L92.7846 253.101L91.1963 253.271V250.037L89.6079 248.506L87.7927 248.052L88.36 246.634L88.8138 245.102L87.5091 243.798L86.6582 241.926L86.9418 240.621L88.757 238.806L89.7781 236.934L89.3243 235.232L90.8559 234.835L93.1249 233.417V231.431L94.0893 230.297L96.4717 230.183L97.4928 228.936L97.6062 227.517L99.5916 226.78L101.18 224.624L103.336 224.738L105.207 223.603L107.76 224.171L108.157 222.752L109.008 221.902L110.596 222.639L111.901 224.057L114 224.738L114.737 226.496L115.475 228.368L116.609 227.234L116.439 224.511L115.475 223.66H115.532L114.794 223.036V219.803L116.326 219.406L116.78 218.952L114.681 218.101L113.433 216.683H122.112L134.648 216.569L138.619 215.151V212.712L139.3 206.472H141.966L144.235 204.657V202.218L145.936 201.537V198.304L147.468 198.19L150.758 195.524L152.346 196.262L155.863 189.738L156.09 187.98L158.983 185.087H163.805L165.337 182.421V177.315L168.343 175.784L172.314 173.798L175.037 174.819H176.625L177.93 176.124L179.575 174.989L179.178 176.975L180.766 176.805L183.035 176.918V178.45L183.489 180.151L182.468 179.471L181.39 178.393L180.369 179.414L180.823 181.229V183.044L182.411 183.895L183.659 185.143V187.129L185.02 187.809V190.022L186.609 191.61L187.346 194.276V196.999L186.892 199.381L187.46 200.686L187.516 203.579L189.161 205.224L189.048 207.323L188.651 210.727L187.006 213.62L184.51 216.116H181.844L178.894 216.683L176.341 215.718L173.562 214.13L171.803 212.372V209.819L169.988 208.004L169.137 206.018L168.457 204.146L167.209 202.048L166.528 198.531L165.223 197.963L165.677 195.808L166.755 194.73L165.45 193.425L164.826 195.07L163.919 195.978L164.316 198.077L164.372 200.516L163.351 201.537L164.713 202.898L164.316 204.997L163.011 207.947L160.685 208.684L158.813 210.556L158.076 213.903L156.317 215.662L157.735 220.086L156.374 222.526L160.402 226.553L162.784 224.851L163.238 222.469L161.99 221.221L162.16 219.122V217.534L163.748 215.832H165.337L165.904 220.086L166.414 222.866L168.059 224.511L169.081 226.667L171.803 227.461L172.598 226.667L171.917 225.078L173.505 223.773L173.619 220.483L176.568 220.937L179.291 219.916L181.56 221.164L184.113 220.37H185.871L186.949 221.448L188.537 223.887L187.233 225.192V227.29L188.424 225.816L190.069 224.171L192.338 223.717L194.21 220.994V218.611L194.947 217.137L197.387 215.889V214.357L199.769 212.939V210.556L199.372 208.287H200.96L201.471 209.479L203.626 211.634L205.215 214.073V217.363L204.647 219.065L203.797 219.916L202.378 218.498L200.393 218.044L197.387 219.065V221.504L198.124 223.773V225.645L200.28 226.213L202.378 227.177L204.761 226.043V224.341L207.2 223.773L209.583 224.908L209.186 223.376L212.873 224.057L214.858 223.66L218.432 224.114H220.531L221.552 225.986H222.516V224.284L225.523 223.32H227.168L227.848 225.759H226.033L225.466 227.461L224.048 227.914L226.203 229.9H227.735L230.571 228.652L233.294 229.162L236.244 232.112L237.265 231.091H239.25L241.746 230.297L242.767 231.318L242.483 232.623L240.952 233.644V235.232L242.767 236.764L242.937 235.005L243.731 234.211L245.603 234.665V233.19L247.419 232.906L247.816 230.637L247.532 227.914L249.234 227.064L250.709 226.61L252.467 228.368L253.205 227.631L255.133 230.07L259.161 234.098L259.671 235.005L258.877 236.14L257.402 237.615L258.253 238.465L258.537 239.203L259.161 239.43L259.218 242.663Z"/>
        <path d="M215.028 217.25L216.333 217.761L217.524 216.91L218.942 217.137L219.737 215.321L218.545 213.79L218.432 212.485L216.9 211.975L215.028 212.485L213.894 213.96L213.043 215.095L213.667 216.74L215.028 217.25Z"/>
        <path d="M247.305 219.462L245.887 220.143L244.866 220.483L245.15 222.696L245.32 223.944L246.228 224.171L246.568 225.986L248.383 226.156L249.007 224.681L248.156 223.263L248.213 221.618L247.305 219.462Z"/>
        <path d="M287.07 173.969L284.858 174.876L283.213 175.727L281.795 177.145H279.639L278.108 177.599L277.2 176.748H275.442L274.647 175.614L273.002 175.5L271.584 176.918H269.429L267.954 176.408L265.912 177.315H264.72L263.756 178.45L262.792 179.471L260.92 178.79V180.095H259.615L258.594 179.074L258.027 179.981L258.934 181.116L258.084 181.967L258.197 183.669L257.516 182.988L255.701 183.101L256.779 184.179L254.737 184.293V185.314H253.262L252.184 186.448L249.915 187.015L247.816 187.639V188.32L249.631 188.944L250.369 189.682L248.213 190.135L247.986 191.043L247.022 192.007L246.058 191.043H244.129V192.348L243.675 193.652L242.144 193.028L240.782 193.879L241.803 195.014L240.272 196.659L238.286 197.226L238.003 198.361L237.435 198.077L236.925 197.51L235.28 197.339L233.918 199.211L233.578 201.083L234.599 202.558L235.847 202.672L236.471 204.203L237.095 204.373L236.982 206.416L237.946 207.21L237.435 208.061L236.017 208.458L235.507 210.046L238.683 213.223L239.307 212.882L240.328 214.414H241.293L242.654 215.151V216.286L244.129 215.605L244.64 215.095L244.186 213.563L243.221 212.088L243.959 209.876L243.165 207.607L243.789 206.075V203.92L244.98 202.728L245.491 201.027L246.909 200.403V198.814L248.384 197.566H250.199L251.333 195.694L252.184 194.56H253.262L254.113 193.766L255.077 192.801L255.815 193.539V191.44L256.552 192.177H257.573L257.346 190.476L258.367 189.511V190.986L259.615 190.022L261.204 188.944V187.356L262.735 187.81L262.905 186.845H264.38L265.968 187.015L267.33 186.505L266.763 185.143L268.748 184.009H271.414L272.662 182.648H276.122L278.788 182.761L279.866 181.626L282.192 182.477L284.801 181.286L286.9 181.116L288.545 179.584L290.36 177.939V175.897L289.169 173.969H287.07Z"/>
        <path d="M296.826 135.962L295.692 136.076L295.238 136.87L293.366 137.21L292.175 137.891L293.082 138.288L292.685 139.309L293.423 139.479H295.011L297.167 137.324L296.826 135.962Z"/>
        <path d="M289.452 135.225L289.849 134.828L290.757 134.317H291.551V135.452L290.19 135.962L289.452 135.225Z"/>
        <path d="M288.829 137.04L287.751 135.906L287.014 136.643L286.446 137.777V139.196L287.638 139.423L287.921 140.273L289.396 139.933L291.098 138.231L291.438 137.097H290.417L288.829 137.04Z"/>
        <path d="M285.083 143.337H284.119V142.429L284.573 141.975L285.424 142.202L285.083 143.337Z"/>
        <path d="M281.908 139.933L282.532 140.557L284.006 140.217L284.46 139.196L285.481 139.593L284.914 138.288L284.006 137.324L282.588 138.345L282.078 137.891H280.546V138.912L279.695 139.763L280.206 140.273L281.908 139.933Z"/>
        <path d="M288.998 131.992L290.019 131.481L289.395 130.12L288.885 128.531H287.75V129.779L288.998 130.97V131.992Z"/>
        <path d="M280.828 132.218H281.793L281.452 133.239L280.602 132.389L280.828 132.218Z"/>
        <path d="M282.645 133.807L282.021 134.487L282.645 135.225L283.44 135.168L282.645 133.807Z"/>
        <path d="M283.325 130.687L284.063 130.573L284.29 131.651H283.325V130.687Z"/>
        <path d="M284.687 133.013V133.807H285.481L284.687 133.013Z"/>
        <path d="M286.503 134.601L285.879 135.225L285.481 134.885L286.503 134.601Z"/>
        <path d="M287.354 131.141H286.503V132.105L287.354 132.219V131.141Z"/>
        <path d="M285.708 129.155L286.162 129.609L285.708 130.063L285.197 129.155H285.708Z"/>
        <path d="M276.064 135.111L275.554 135.622L276.461 136.53L277.482 136.586V134.885L276.802 133.977L276.064 135.111Z"/>
        <path d="M279.469 134.941H278.789L278.392 133.977L279.469 134.09V134.941Z"/>
        <path d="M270.28 130.233V131.084L268.749 130.006L267.614 130.403L268.011 132.105L269.032 131.765V132.899L270.167 133.183L271.245 132.162L272.663 131.538L273.854 131.935H275.669L276.917 130.63L275.726 129.439L276.52 128.588L275.159 127.794L274.421 128.304L273.741 128.985V129.779L272.946 130.573L271.472 129.552L270.28 130.233Z"/>
        <path d="M271.81 133.977H271.187L271.413 134.885L272.661 134.941L271.81 133.977Z"/>
        <path d="M272.322 136.53L273.116 137.324L271.868 137.04L271.414 136.53L272.038 135.906L272.322 136.53Z"/>
        <path d="M278.617 126.943L277.199 126.716V127.68H277.937L278.617 126.943Z"/>
        <path d="M61.8122 222.923L62.5497 224.114L63.3438 224.625L63.5707 226.496L62.9467 227.858L59.7701 229.446L55.0051 223.774L52.2256 217.42L53.7005 217.761L55.0051 217.42L55.4589 216.456L56.5935 216.626L57.6712 217.704L57.728 219.179L58.5789 219.463L58.749 220.597L60.1104 220.824L60.3941 219.746L59.6566 219.009L60.2806 218.385L60.7344 218.782L61.9824 219.86V221.505L61.8122 222.923Z"/>
    </mask>
    <path class="color" d="M270.279 128.021L268.407 128.645L268.123 127.68L267.272 126.886L267.896 125.582L268.861 126.546H270.392L271.016 126.773H271.811L272.605 127.567V128.645L272.094 128.134L270.903 128.645L270.279 128.021Z" fill="#BA6C3B"/>
    <path class="color" d="M290.473 126.546L291.494 127.397L290.814 128.134L290.02 127.397L290.473 126.546Z" fill="#BA6C3B"/>
    <path class="color" d="M296.77 131.765H295.806V131.084L295.238 130.29L295.919 130.063L296.77 130.403V131.765Z" fill="#BA6C3B"/>
    <path class="color" d="M259.218 242.663H258.31L258.537 243.514L257.799 243.911L257.516 245.67L259.388 246.634V247.882L257.629 248.619L259.104 250.094L256.835 251.229L255.133 252.93H253.205L252.524 255.029H249.291L246.284 255.71L243.278 257.412V259.511L240.838 259.397L239.023 259.681L238.002 260.815L236.244 261.723L234.485 263.481L232.84 263.708V262.233L231.649 261.78L228.245 265.183L227.394 266.828L227.735 268.87L225.466 270.289L225.239 271.99L223.31 273.182L222.006 275.621L222.346 277.266L221.552 278.741V279.932L219.226 282.258L218.886 283.903L218.035 284.81L217.524 286.115L214.234 285.661L211.795 284.754L209.639 283.619L207.427 282.144H206.406L205.839 283.335L204.874 283.676L204.194 282.995L203.229 282.655L202.265 283.619L200.563 282.995L199.088 283.789L197.727 282.428L195.685 281.52L194.494 281.974L193.473 280.783L193.699 279.592L193.189 278.797L191.998 278.344L191.09 279.251L190.409 278.57L189.729 279.251L187.8 278.173L186.892 279.932L187.857 280.896V282.031L186.439 282.598H184.907L184.056 283.449L182.638 283.619L182.184 282.598L181.39 281.804L179.915 283.222L178.837 282.144L177.079 281.293L175.434 281.69L174.753 283.619L173.675 284.924L172.995 284.243L173.562 282.938L173.165 281.463V280.045L172.144 279.024V277.606L173.392 276.358V275.11L175.207 274.713V272.784L176.341 271.65L176.171 270.232L175.32 269.778L175.661 268.757L174.413 267.509L173.902 266.658L173.165 266.431L172.144 267.282L168.74 270.686L166.925 269.891L165.904 270.799L168.003 272.955L166.698 273.635V275.337L166.074 275.961L163.862 274.032L162.671 275.848L160.628 275.337L159.778 276.188L158.473 274.316L155.013 272.501L154.332 270.686L152.46 268.814L150.021 268.36L148.773 265.694L146.844 266.601L144.802 265.694L142.476 266.261L140.377 267.169L138.108 264.9V261.156L136.35 259.397L135.442 260.305L133.06 258.716L132.039 257.695L130.28 257.866L129.089 258.092V256.221L129.6 254.632L128.238 254.178L126.706 254.462L124.721 253.554L123.133 252.93L121.828 252.306L121.034 251.512L120.807 252.306H119.559L118.651 251.229H117.29L116.95 249.867L116.212 249.13L115.191 248.619H113.943L112.922 249.64H111.334L110.54 250.435L109.235 250.264L108.157 249.187H106.115L105.037 248.506L103.619 248.619L102.768 247.768H101.123L100.272 246.918L99.7051 245.67L98.2302 246.918L98.0601 248.109L97.2092 248.96L97.039 250.945L96.5285 252.08L95.9612 253.101H94.6565L94.0893 254.689L92.7846 253.101L91.1963 253.271V250.037L89.6079 248.506L87.7927 248.052L88.36 246.634L88.8138 245.102L87.5091 243.798L86.6582 241.926L86.9418 240.621L88.757 238.806L89.7781 236.934L89.3243 235.232L90.8559 234.835L93.1249 233.417V231.431L94.0893 230.297L96.4717 230.183L97.4928 228.936L97.6062 227.517L99.5916 226.78L101.18 224.624L103.336 224.738L105.207 223.603L107.76 224.171L108.157 222.752L109.008 221.902L110.596 222.639L111.901 224.057L114 224.738L114.737 226.496L115.475 228.368L116.609 227.234L116.439 224.511L115.475 223.66H115.532L114.794 223.036V219.803L116.326 219.406L116.78 218.952L114.681 218.101L113.433 216.683H122.112L134.648 216.569L138.619 215.151V212.712L139.3 206.472H141.966L144.235 204.657V202.218L145.936 201.537V198.304L147.468 198.19L150.758 195.524L152.346 196.262L155.863 189.738L156.09 187.98L158.983 185.087H163.805L165.337 182.421V177.315L168.343 175.784L172.314 173.798L175.037 174.819H176.625L177.93 176.124L179.575 174.989L179.178 176.975L180.766 176.805L183.035 176.918V178.45L183.489 180.151L182.468 179.471L181.39 178.393L180.369 179.414L180.823 181.229V183.044L182.411 183.895L183.659 185.143V187.129L185.02 187.809V190.022L186.609 191.61L187.346 194.276V196.999L186.892 199.381L187.46 200.686L187.516 203.579L189.161 205.224L189.048 207.323L188.651 210.727L187.006 213.62L184.51 216.116H181.844L178.894 216.683L176.341 215.718L173.562 214.13L171.803 212.372V209.819L169.988 208.004L169.137 206.018L168.457 204.146L167.209 202.048L166.528 198.531L165.223 197.963L165.677 195.808L166.755 194.73L165.45 193.425L164.826 195.07L163.919 195.978L164.316 198.077L164.372 200.516L163.351 201.537L164.713 202.898L164.316 204.997L163.011 207.947L160.685 208.684L158.813 210.556L158.076 213.903L156.317 215.662L157.735 220.086L156.374 222.526L160.402 226.553L162.784 224.851L163.238 222.469L161.99 221.221L162.16 219.122V217.534L163.748 215.832H165.337L165.904 220.086L166.414 222.866L168.059 224.511L169.081 226.667L171.803 227.461L172.598 226.667L171.917 225.078L173.505 223.773L173.619 220.483L176.568 220.937L179.291 219.916L181.56 221.164L184.113 220.37H185.871L186.949 221.448L188.537 223.887L187.233 225.192V227.29L188.424 225.816L190.069 224.171L192.338 223.717L194.21 220.994V218.611L194.947 217.137L197.387 215.889V214.357L199.769 212.939V210.556L199.372 208.287H200.96L201.471 209.479L203.626 211.634L205.215 214.073V217.363L204.647 219.065L203.797 219.916L202.378 218.498L200.393 218.044L197.387 219.065V221.504L198.124 223.773V225.645L200.28 226.213L202.378 227.177L204.761 226.043V224.341L207.2 223.773L209.583 224.908L209.186 223.376L212.873 224.057L214.858 223.66L218.432 224.114H220.531L221.552 225.986H222.516V224.284L225.523 223.32H227.168L227.848 225.759H226.033L225.466 227.461L224.048 227.914L226.203 229.9H227.735L230.571 228.652L233.294 229.162L236.244 232.112L237.265 231.091H239.25L241.746 230.297L242.767 231.318L242.483 232.623L240.952 233.644V235.232L242.767 236.764L242.937 235.005L243.731 234.211L245.603 234.665V233.19L247.419 232.906L247.816 230.637L247.532 227.914L249.234 227.064L250.709 226.61L252.467 228.368L253.205 227.631L255.133 230.07L259.161 234.098L259.671 235.005L258.877 236.14L257.402 237.615L258.253 238.465L258.537 239.203L259.161 239.43L259.218 242.663Z" fill="#BA6C3B"/>
    <path class="color" d="M215.028 217.25L216.333 217.761L217.524 216.91L218.942 217.137L219.737 215.321L218.545 213.79L218.432 212.485L216.9 211.975L215.028 212.485L213.894 213.96L213.043 215.095L213.667 216.74L215.028 217.25Z" fill="#BA6C3B"/>
    <path class="color" d="M247.305 219.462L245.887 220.143L244.866 220.483L245.15 222.696L245.32 223.944L246.228 224.171L246.568 225.986L248.383 226.156L249.007 224.681L248.156 223.263L248.213 221.618L247.305 219.462Z" fill="#BA6C3B"/>
    <path class="color" d="M287.07 173.969L284.858 174.876L283.213 175.727L281.795 177.145H279.639L278.108 177.599L277.2 176.748H275.442L274.647 175.614L273.002 175.5L271.584 176.918H269.429L267.954 176.408L265.912 177.315H264.72L263.756 178.45L262.792 179.471L260.92 178.79V180.095H259.615L258.594 179.074L258.027 179.981L258.934 181.116L258.084 181.967L258.197 183.669L257.516 182.988L255.701 183.101L256.779 184.179L254.737 184.293V185.314H253.262L252.184 186.448L249.915 187.015L247.816 187.639V188.32L249.631 188.944L250.369 189.682L248.213 190.135L247.986 191.043L247.022 192.007L246.058 191.043H244.129V192.348L243.675 193.652L242.144 193.028L240.782 193.879L241.803 195.014L240.272 196.659L238.286 197.226L238.003 198.361L237.435 198.077L236.925 197.51L235.28 197.339L233.918 199.211L233.578 201.083L234.599 202.558L235.847 202.672L236.471 204.203L237.095 204.373L236.982 206.416L237.946 207.21L237.435 208.061L236.017 208.458L235.507 210.046L238.683 213.223L239.307 212.882L240.328 214.414H241.293L242.654 215.151V216.286L244.129 215.605L244.64 215.095L244.186 213.563L243.221 212.088L243.959 209.876L243.165 207.607L243.789 206.075V203.92L244.98 202.728L245.491 201.027L246.909 200.403V198.814L248.384 197.566H250.199L251.333 195.694L252.184 194.56H253.262L254.113 193.766L255.077 192.801L255.815 193.539V191.44L256.552 192.177H257.573L257.346 190.476L258.367 189.511V190.986L259.615 190.022L261.204 188.944V187.356L262.735 187.81L262.905 186.845H264.38L265.968 187.015L267.33 186.505L266.763 185.143L268.748 184.009H271.414L272.662 182.648H276.122L278.788 182.761L279.866 181.626L282.192 182.477L284.801 181.286L286.9 181.116L288.545 179.584L290.36 177.939V175.897L289.169 173.969H287.07Z" fill="#BA6C3B"/>
    <path class="color" d="M296.826 135.962L295.692 136.076L295.238 136.87L293.366 137.21L292.175 137.891L293.082 138.288L292.685 139.309L293.423 139.479H295.011L297.167 137.324L296.826 135.962Z" fill="#BA6C3B"/>
    <path class="color" d="M289.452 135.225L289.849 134.828L290.757 134.317H291.551V135.452L290.19 135.962L289.452 135.225Z" fill="#BA6C3B"/>
    <path class="color" d="M288.829 137.04L287.751 135.906L287.014 136.643L286.446 137.777V139.196L287.638 139.423L287.921 140.273L289.396 139.933L291.098 138.231L291.438 137.097H290.417L288.829 137.04Z" fill="#BA6C3B"/>
    <path class="color" d="M285.083 143.337H284.119V142.429L284.573 141.975L285.424 142.202L285.083 143.337Z" fill="#BA6C3B"/>
    <path class="color" d="M281.908 139.933L282.532 140.557L284.006 140.217L284.46 139.196L285.481 139.593L284.914 138.288L284.006 137.324L282.588 138.345L282.078 137.891H280.546V138.912L279.695 139.763L280.206 140.273L281.908 139.933Z" fill="#BA6C3B"/>
    <path class="color" d="M288.998 131.992L290.019 131.481L289.395 130.12L288.885 128.531H287.75V129.779L288.998 130.97V131.992Z" fill="#BA6C3B"/>
    <path class="color" d="M280.828 132.218H281.793L281.452 133.239L280.602 132.389L280.828 132.218Z" fill="#BA6C3B"/>
    <path class="color" d="M282.645 133.807L282.021 134.487L282.645 135.225L283.44 135.168L282.645 133.807Z" fill="#BA6C3B"/>
    <path class="color" d="M283.325 130.687L284.063 130.573L284.29 131.651H283.325V130.687Z" fill="#BA6C3B"/>
    <path class="color" d="M284.687 133.013V133.807H285.481L284.687 133.013Z" fill="#BA6C3B"/>
    <path class="color" d="M286.503 134.601L285.879 135.225L285.481 134.885L286.503 134.601Z" fill="#BA6C3B"/>
    <path class="color" d="M287.354 131.141H286.503V132.105L287.354 132.219V131.141Z" fill="#BA6C3B"/>
    <path class="color" d="M285.708 129.155L286.162 129.609L285.708 130.063L285.197 129.155H285.708Z" fill="#BA6C3B"/>
    <path class="color" d="M276.064 135.111L275.554 135.622L276.461 136.53L277.482 136.586V134.885L276.802 133.977L276.064 135.111Z" fill="#BA6C3B"/>
    <path class="color" d="M279.469 134.941H278.789L278.392 133.977L279.469 134.09V134.941Z" fill="#BA6C3B"/>
    <path class="color" d="M270.28 130.233V131.084L268.749 130.006L267.614 130.403L268.011 132.105L269.032 131.765V132.899L270.167 133.183L271.245 132.162L272.663 131.538L273.854 131.935H275.669L276.917 130.63L275.726 129.439L276.52 128.588L275.159 127.794L274.421 128.304L273.741 128.985V129.779L272.946 130.573L271.472 129.552L270.28 130.233Z" fill="#BA6C3B"/>
    <path class="color" d="M271.81 133.977H271.187L271.413 134.885L272.661 134.941L271.81 133.977Z" fill="#BA6C3B"/>
    <path class="color" d="M272.322 136.53L273.116 137.324L271.868 137.04L271.414 136.53L272.038 135.906L272.322 136.53Z" fill="#BA6C3B"/>
    <path class="color" d="M278.617 126.943L277.199 126.716V127.68H277.937L278.617 126.943Z" fill="#BA6C3B"/>
    <path class="color" d="M61.8122 222.923L62.5497 224.114L63.3438 224.625L63.5707 226.496L62.9467 227.858L59.7701 229.446L55.0051 223.774L52.2256 217.42L53.7005 217.761L55.0051 217.42L55.4589 216.456L56.5935 216.626L57.6712 217.704L57.728 219.179L58.5789 219.463L58.749 220.597L60.1104 220.824L60.3941 219.746L59.6566 219.009L60.2806 218.385L60.7344 218.782L61.9824 219.86V221.505L61.8122 222.923Z" fill="#BA6C3B"/>
    <path d="M270.279 128.021L268.407 128.645L268.123 127.68L267.272 126.886L267.896 125.582L268.861 126.546H270.392L271.016 126.773H271.811L272.605 127.567V128.645L272.094 128.134L270.903 128.645L270.279 128.021Z" stroke="white" stroke-width="4" mask="url(#path-58-outside-5)"/>
    <path d="M290.473 126.546L291.494 127.397L290.814 128.134L290.02 127.397L290.473 126.546Z" stroke="white" stroke-width="4" mask="url(#path-58-outside-5)"/>
    <path d="M296.77 131.765H295.806V131.084L295.238 130.29L295.919 130.063L296.77 130.403V131.765Z" stroke="white" stroke-width="4" mask="url(#path-58-outside-5)"/>
    <path d="M259.218 242.663H258.31L258.537 243.514L257.799 243.911L257.516 245.67L259.388 246.634V247.882L257.629 248.619L259.104 250.094L256.835 251.229L255.133 252.93H253.205L252.524 255.029H249.291L246.284 255.71L243.278 257.412V259.511L240.838 259.397L239.023 259.681L238.002 260.815L236.244 261.723L234.485 263.481L232.84 263.708V262.233L231.649 261.78L228.245 265.183L227.394 266.828L227.735 268.87L225.466 270.289L225.239 271.99L223.31 273.182L222.006 275.621L222.346 277.266L221.552 278.741V279.932L219.226 282.258L218.886 283.903L218.035 284.81L217.524 286.115L214.234 285.661L211.795 284.754L209.639 283.619L207.427 282.144H206.406L205.839 283.335L204.874 283.676L204.194 282.995L203.229 282.655L202.265 283.619L200.563 282.995L199.088 283.789L197.727 282.428L195.685 281.52L194.494 281.974L193.473 280.783L193.699 279.592L193.189 278.797L191.998 278.344L191.09 279.251L190.409 278.57L189.729 279.251L187.8 278.173L186.892 279.932L187.857 280.896V282.031L186.439 282.598H184.907L184.056 283.449L182.638 283.619L182.184 282.598L181.39 281.804L179.915 283.222L178.837 282.144L177.079 281.293L175.434 281.69L174.753 283.619L173.675 284.924L172.995 284.243L173.562 282.938L173.165 281.463V280.045L172.144 279.024V277.606L173.392 276.358V275.11L175.207 274.713V272.784L176.341 271.65L176.171 270.232L175.32 269.778L175.661 268.757L174.413 267.509L173.902 266.658L173.165 266.431L172.144 267.282L168.74 270.686L166.925 269.891L165.904 270.799L168.003 272.955L166.698 273.635V275.337L166.074 275.961L163.862 274.032L162.671 275.848L160.628 275.337L159.778 276.188L158.473 274.316L155.013 272.501L154.332 270.686L152.46 268.814L150.021 268.36L148.773 265.694L146.844 266.601L144.802 265.694L142.476 266.261L140.377 267.169L138.108 264.9V261.156L136.35 259.397L135.442 260.305L133.06 258.716L132.039 257.695L130.28 257.866L129.089 258.092V256.221L129.6 254.632L128.238 254.178L126.706 254.462L124.721 253.554L123.133 252.93L121.828 252.306L121.034 251.512L120.807 252.306H119.559L118.651 251.229H117.29L116.95 249.867L116.212 249.13L115.191 248.619H113.943L112.922 249.64H111.334L110.54 250.435L109.235 250.264L108.157 249.187H106.115L105.037 248.506L103.619 248.619L102.768 247.768H101.123L100.272 246.918L99.7051 245.67L98.2302 246.918L98.0601 248.109L97.2092 248.96L97.039 250.945L96.5285 252.08L95.9612 253.101H94.6565L94.0893 254.689L92.7846 253.101L91.1963 253.271V250.037L89.6079 248.506L87.7927 248.052L88.36 246.634L88.8138 245.102L87.5091 243.798L86.6582 241.926L86.9418 240.621L88.757 238.806L89.7781 236.934L89.3243 235.232L90.8559 234.835L93.1249 233.417V231.431L94.0893 230.297L96.4717 230.183L97.4928 228.936L97.6062 227.517L99.5916 226.78L101.18 224.624L103.336 224.738L105.207 223.603L107.76 224.171L108.157 222.752L109.008 221.902L110.596 222.639L111.901 224.057L114 224.738L114.737 226.496L115.475 228.368L116.609 227.234L116.439 224.511L115.475 223.66H115.532L114.794 223.036V219.803L116.326 219.406L116.78 218.952L114.681 218.101L113.433 216.683H122.112L134.648 216.569L138.619 215.151V212.712L139.3 206.472H141.966L144.235 204.657V202.218L145.936 201.537V198.304L147.468 198.19L150.758 195.524L152.346 196.262L155.863 189.738L156.09 187.98L158.983 185.087H163.805L165.337 182.421V177.315L168.343 175.784L172.314 173.798L175.037 174.819H176.625L177.93 176.124L179.575 174.989L179.178 176.975L180.766 176.805L183.035 176.918V178.45L183.489 180.151L182.468 179.471L181.39 178.393L180.369 179.414L180.823 181.229V183.044L182.411 183.895L183.659 185.143V187.129L185.02 187.809V190.022L186.609 191.61L187.346 194.276V196.999L186.892 199.381L187.46 200.686L187.516 203.579L189.161 205.224L189.048 207.323L188.651 210.727L187.006 213.62L184.51 216.116H181.844L178.894 216.683L176.341 215.718L173.562 214.13L171.803 212.372V209.819L169.988 208.004L169.137 206.018L168.457 204.146L167.209 202.048L166.528 198.531L165.223 197.963L165.677 195.808L166.755 194.73L165.45 193.425L164.826 195.07L163.919 195.978L164.316 198.077L164.372 200.516L163.351 201.537L164.713 202.898L164.316 204.997L163.011 207.947L160.685 208.684L158.813 210.556L158.076 213.903L156.317 215.662L157.735 220.086L156.374 222.526L160.402 226.553L162.784 224.851L163.238 222.469L161.99 221.221L162.16 219.122V217.534L163.748 215.832H165.337L165.904 220.086L166.414 222.866L168.059 224.511L169.081 226.667L171.803 227.461L172.598 226.667L171.917 225.078L173.505 223.773L173.619 220.483L176.568 220.937L179.291 219.916L181.56 221.164L184.113 220.37H185.871L186.949 221.448L188.537 223.887L187.233 225.192V227.29L188.424 225.816L190.069 224.171L192.338 223.717L194.21 220.994V218.611L194.947 217.137L197.387 215.889V214.357L199.769 212.939V210.556L199.372 208.287H200.96L201.471 209.479L203.626 211.634L205.215 214.073V217.363L204.647 219.065L203.797 219.916L202.378 218.498L200.393 218.044L197.387 219.065V221.504L198.124 223.773V225.645L200.28 226.213L202.378 227.177L204.761 226.043V224.341L207.2 223.773L209.583 224.908L209.186 223.376L212.873 224.057L214.858 223.66L218.432 224.114H220.531L221.552 225.986H222.516V224.284L225.523 223.32H227.168L227.848 225.759H226.033L225.466 227.461L224.048 227.914L226.203 229.9H227.735L230.571 228.652L233.294 229.162L236.244 232.112L237.265 231.091H239.25L241.746 230.297L242.767 231.318L242.483 232.623L240.952 233.644V235.232L242.767 236.764L242.937 235.005L243.731 234.211L245.603 234.665V233.19L247.419 232.906L247.816 230.637L247.532 227.914L249.234 227.064L250.709 226.61L252.467 228.368L253.205 227.631L255.133 230.07L259.161 234.098L259.671 235.005L258.877 236.14L257.402 237.615L258.253 238.465L258.537 239.203L259.161 239.43L259.218 242.663Z" stroke="white" stroke-width="4" mask="url(#path-58-outside-5)"/>
    <path d="M215.028 217.25L216.333 217.761L217.524 216.91L218.942 217.137L219.737 215.321L218.545 213.79L218.432 212.485L216.9 211.975L215.028 212.485L213.894 213.96L213.043 215.095L213.667 216.74L215.028 217.25Z" stroke="white" stroke-width="4" mask="url(#path-58-outside-5)"/>
    <path d="M247.305 219.462L245.887 220.143L244.866 220.483L245.15 222.696L245.32 223.944L246.228 224.171L246.568 225.986L248.383 226.156L249.007 224.681L248.156 223.263L248.213 221.618L247.305 219.462Z" stroke="white" stroke-width="4" mask="url(#path-58-outside-5)"/>
    <path d="M287.07 173.969L284.858 174.876L283.213 175.727L281.795 177.145H279.639L278.108 177.599L277.2 176.748H275.442L274.647 175.614L273.002 175.5L271.584 176.918H269.429L267.954 176.408L265.912 177.315H264.72L263.756 178.45L262.792 179.471L260.92 178.79V180.095H259.615L258.594 179.074L258.027 179.981L258.934 181.116L258.084 181.967L258.197 183.669L257.516 182.988L255.701 183.101L256.779 184.179L254.737 184.293V185.314H253.262L252.184 186.448L249.915 187.015L247.816 187.639V188.32L249.631 188.944L250.369 189.682L248.213 190.135L247.986 191.043L247.022 192.007L246.058 191.043H244.129V192.348L243.675 193.652L242.144 193.028L240.782 193.879L241.803 195.014L240.272 196.659L238.286 197.226L238.003 198.361L237.435 198.077L236.925 197.51L235.28 197.339L233.918 199.211L233.578 201.083L234.599 202.558L235.847 202.672L236.471 204.203L237.095 204.373L236.982 206.416L237.946 207.21L237.435 208.061L236.017 208.458L235.507 210.046L238.683 213.223L239.307 212.882L240.328 214.414H241.293L242.654 215.151V216.286L244.129 215.605L244.64 215.095L244.186 213.563L243.221 212.088L243.959 209.876L243.165 207.607L243.789 206.075V203.92L244.98 202.728L245.491 201.027L246.909 200.403V198.814L248.384 197.566H250.199L251.333 195.694L252.184 194.56H253.262L254.113 193.766L255.077 192.801L255.815 193.539V191.44L256.552 192.177H257.573L257.346 190.476L258.367 189.511V190.986L259.615 190.022L261.204 188.944V187.356L262.735 187.81L262.905 186.845H264.38L265.968 187.015L267.33 186.505L266.763 185.143L268.748 184.009H271.414L272.662 182.648H276.122L278.788 182.761L279.866 181.626L282.192 182.477L284.801 181.286L286.9 181.116L288.545 179.584L290.36 177.939V175.897L289.169 173.969H287.07Z" stroke="white" stroke-width="4" mask="url(#path-58-outside-5)"/>
    <path d="M296.826 135.962L295.692 136.076L295.238 136.87L293.366 137.21L292.175 137.891L293.082 138.288L292.685 139.309L293.423 139.479H295.011L297.167 137.324L296.826 135.962Z" stroke="white" stroke-width="4" mask="url(#path-58-outside-5)"/>
    <path d="M289.452 135.225L289.849 134.828L290.757 134.317H291.551V135.452L290.19 135.962L289.452 135.225Z" stroke="white" stroke-width="4" mask="url(#path-58-outside-5)"/>
    <path d="M288.829 137.04L287.751 135.906L287.014 136.643L286.446 137.777V139.196L287.638 139.423L287.921 140.273L289.396 139.933L291.098 138.231L291.438 137.097H290.417L288.829 137.04Z" stroke="white" stroke-width="4" mask="url(#path-58-outside-5)"/>
    <path d="M285.083 143.337H284.119V142.429L284.573 141.975L285.424 142.202L285.083 143.337Z" stroke="white" stroke-width="4" mask="url(#path-58-outside-5)"/>
    <path d="M281.908 139.933L282.532 140.557L284.006 140.217L284.46 139.196L285.481 139.593L284.914 138.288L284.006 137.324L282.588 138.345L282.078 137.891H280.546V138.912L279.695 139.763L280.206 140.273L281.908 139.933Z" stroke="white" stroke-width="4" mask="url(#path-58-outside-5)"/>
    <path d="M288.998 131.992L290.019 131.481L289.395 130.12L288.885 128.531H287.75V129.779L288.998 130.97V131.992Z" stroke="white" stroke-width="4" mask="url(#path-58-outside-5)"/>
    <path d="M280.828 132.218H281.793L281.452 133.239L280.602 132.389L280.828 132.218Z" stroke="white" stroke-width="4" mask="url(#path-58-outside-5)"/>
    <path d="M282.645 133.807L282.021 134.487L282.645 135.225L283.44 135.168L282.645 133.807Z" stroke="white" stroke-width="4" mask="url(#path-58-outside-5)"/>
    <path d="M283.325 130.687L284.063 130.573L284.29 131.651H283.325V130.687Z" stroke="white" stroke-width="4" mask="url(#path-58-outside-5)"/>
    <path d="M284.687 133.013V133.807H285.481L284.687 133.013Z" stroke="white" stroke-width="4" mask="url(#path-58-outside-5)"/>
    <path d="M286.503 134.601L285.879 135.225L285.481 134.885L286.503 134.601Z" stroke="white" stroke-width="4" mask="url(#path-58-outside-5)"/>
    <path d="M287.354 131.141H286.503V132.105L287.354 132.219V131.141Z" stroke="white" stroke-width="4" mask="url(#path-58-outside-5)"/>
    <path d="M285.708 129.155L286.162 129.609L285.708 130.063L285.197 129.155H285.708Z" stroke="white" stroke-width="4" mask="url(#path-58-outside-5)"/>
    <path d="M276.064 135.111L275.554 135.622L276.461 136.53L277.482 136.586V134.885L276.802 133.977L276.064 135.111Z" stroke="white" stroke-width="4" mask="url(#path-58-outside-5)"/>
    <path d="M279.469 134.941H278.789L278.392 133.977L279.469 134.09V134.941Z" stroke="white" stroke-width="4" mask="url(#path-58-outside-5)"/>
    <path d="M270.28 130.233V131.084L268.749 130.006L267.614 130.403L268.011 132.105L269.032 131.765V132.899L270.167 133.183L271.245 132.162L272.663 131.538L273.854 131.935H275.669L276.917 130.63L275.726 129.439L276.52 128.588L275.159 127.794L274.421 128.304L273.741 128.985V129.779L272.946 130.573L271.472 129.552L270.28 130.233Z" stroke="white" stroke-width="4" mask="url(#path-58-outside-5)"/>
    <path d="M271.81 133.977H271.187L271.413 134.885L272.661 134.941L271.81 133.977Z" stroke="white" stroke-width="4" mask="url(#path-58-outside-5)"/>
    <path d="M272.322 136.53L273.116 137.324L271.868 137.04L271.414 136.53L272.038 135.906L272.322 136.53Z" stroke="white" stroke-width="4" mask="url(#path-58-outside-5)"/>
    <path d="M278.617 126.943L277.199 126.716V127.68H277.937L278.617 126.943Z" stroke="white" stroke-width="4" mask="url(#path-58-outside-5)"/>
    <path d="M61.8122 222.923L62.5497 224.114L63.3438 224.625L63.5707 226.496L62.9467 227.858L59.7701 229.446L55.0051 223.774L52.2256 217.42L53.7005 217.761L55.0051 217.42L55.4589 216.456L56.5935 216.626L57.6712 217.704L57.728 219.179L58.5789 219.463L58.749 220.597L60.1104 220.824L60.3941 219.746L59.6566 219.009L60.2806 218.385L60.7344 218.782L61.9824 219.86V221.505L61.8122 222.923Z" stroke="white" stroke-width="4" mask="url(#path-58-outside-5)"/>
</svg>
