<?xml version="1.0" encoding="UTF-8" standalone="no"?>
<svg>
    <mask id="path-54-outside-3" maskUnits="userSpaceOnUse" x="241.184" y="137.974" width="218" height="278" fill="black">
        <rect fill="white" x="241.184" y="137.974" width="218" height="278"/>
        <path d="M453.104 310.868L452.31 308.769L451.119 308.655V307.237L449.871 305.876L448.85 304.855H447.318V306.273L446.013 307.578L443.971 307.294V305.932L443.064 305.195V303.493L441.248 303.266L439.093 302.245L437.107 302.472L435.122 302.189L433.988 303.55L433.42 305.422L432.116 306.727L432.626 308.542L431.889 310.697L430.13 312.456V315.746L427.634 317.448V319.376L426.556 317.902V316.257L425.309 315.009L424.117 315.519L423.834 317.051L420.714 318.242H419.239L418.672 320L417.707 321.419L415.665 321.589L413.396 319.32L413.169 314.612L413.453 311.775V309.109L413.793 306.727V304.401L412.148 303.663L410.957 303.266L410.787 302.132L410.219 300.827L409.142 299.749V298.501L409.879 297.764L410.106 296.006L409.085 294.984H407.724L406.249 294.247V292.886L406.816 292.318L406.192 291.638L405.681 289.596L404.49 287.44L403.072 286.419L401.484 286.873L399.952 286.986V285.171L401.2 284.831V283.639L399.895 282.335L399.839 281.2L398.421 281.087L397.4 282.108L396.095 281.54L394.393 282.164L393.542 281.143H392.748L392.011 281.881H390.479L389.458 281.427V279.555L390.025 278.988V277.74L389.571 276.322L390.706 274.563L391.387 272.748L389.344 270.933L388.834 268.323L387.189 267.416V265.771L387.87 265.203L387.189 264.523V262.991L385.43 262.254L384.92 262.764L384.409 261.176L385.26 260.325L386.225 258.794L387.643 258.396L387.132 254.709L386.735 252.327V251.079L385.09 248.072L384.92 244.952L383.275 243.818L382.537 242.173L382.027 240.925V240.982V240.187L384.012 239.393L386.054 236.5L387.473 236.047L389.401 236.614L389.968 235.309V233.721L388.891 232.643L389.401 230.771L390.819 230.261V228.786L390.763 226.857L392.351 225.779L394.166 223.964L394.563 222.659H395.357L395.187 220.731H393.712L392.351 218.178V215.852L391.046 214.774L388.494 212.902V211.938L386.565 211.201L385.884 209.783L386.225 207.854L385.43 207.06L384.579 205.812L384.126 204.734L384.806 204.053L384.977 203.146L384.239 202.522L384.012 200.877H382.878L381.46 200.99L381.573 202.522L381.46 203.259L382.594 203.373L383.332 204.11L382.424 205.868L380.892 206.436L379.304 207.74C379.304 207.74 379.02 209.442 378.17 209.442C377.375 209.499 376.581 209.669 375.787 209.896L374.085 210.917L374.482 212.789L372.781 213.526L373.234 211.825L373.631 209.385L375.22 207.797L375.957 205.698L378.226 205.131L378.794 202.181L380.212 200.763L380.779 198.097V197.133L382.651 194.864L383.729 193.786L384.636 191.914L385.601 190.609V188.737L386.678 187.66L385.487 185.617L383.615 184.596L382.878 183.859L384.75 184.256L384.92 182.271L382.594 179.945L381.913 180.682L380.779 179.718L379.815 177.846L378.737 176.768L377.262 177.506L376.184 176.428L374.255 177.789H372.327L370.228 178.924L371.079 179.775L370.625 181.363C369.944 181.079 369.264 180.852 368.526 180.682C367.959 180.682 368.072 179.434 368.072 179.434L369.32 178.186L367.902 176.825H366.087L365.52 177.392L362.513 177.222L363.761 175.634L365.236 174.159L364.782 172.23L363.364 172.4L361.492 171.266L359.961 172.854L358.259 174.102L356.841 177.619L356.387 179.151V181.42L357.124 181.987L357.294 183.575H356.614L354.458 184.256H352.359L352.927 185.277L354.061 186.128L354.912 187.262L353.04 186.865L351.168 187.262L350.884 188.794L347.935 188.681L346.744 189.872V188.681L347.651 186.979L345.949 187.262L345.496 188.284L343.397 188.567L340.958 189.134L339.993 190.042L341.695 190.609L341.128 191.29L338.575 192.027L337.667 192.935L334.094 193.446L333.073 194.467L330.463 195.488L329.442 197.643L326.776 197.53L326.89 198.948L328.194 199.061L326.89 200.082L325.925 201.387L326.719 202.181L326.209 203.373L326.946 204.223L325.812 204.507C325.812 204.507 325.812 203.089 325.074 203.77L323.997 204.847L324.961 205.812L326.095 206.209L327.06 207.627L326.095 208.591H324.28L321.841 209.612H318.154V210.18L315.885 209.329H311.46L309.588 211.031L310.042 213.413L310.779 214.15L309.929 216.022L309.361 218.291L310.099 219.086L311.403 221.241L313.219 221.922L313.105 223.227L314.126 224.645L313.729 226.176H311.177L308.908 223.907L309.588 222.035L307.149 220.731L305.844 219.426L304.256 219.653L302.498 219.256L302.611 220.39H303.519L303.916 221.411L304.653 222.149L305.901 222.489L307.262 223.227L307.603 224.475L306.695 225.382L306.865 226.403L305.05 226.687L303.746 227.991L304.313 229.239L304.767 228.786L305.334 229.92L307.376 231.055L307.206 233.324V236.614H305.391L304.653 237.748L303.235 239.166L301.533 240.471L301.647 242.23L302.498 243.08L302.781 244.102L303.972 245.293L305.788 245.576L306.015 246.824L306.639 247.448L307.66 246.427L308.17 246.995L309.361 245.86L309.305 247.732L310.779 248.016V249.491L311.687 251.703L311.177 253.064H310.439L311.177 254.482L310.553 256.298L309.532 257.319L309.191 258.453L307.886 258.17L307.83 259.701L308.737 260.665L309.021 262.367L308.227 263.558L309.078 264.409V265.714L311.177 266.905L311.971 268.607L310.666 269.798V270.763L311.347 271.897V273.599L310.496 274.28L311.574 276.152H312.708L313.843 277.286L314.694 278.988L314.864 281.143L313.899 282.108L314.353 284.093L316.509 284.547L317.587 285.625L318.664 284.547L319.061 286.816L318.664 288.801L319.345 290.333L318.04 291.638L316.679 293.396L315.715 295.211L317.133 297.197V299.579L315.771 300.941L315.601 303.096L312.595 306.103V308.996L314.977 310.584L317.643 311.719L316.225 314.044L312.822 315.519L310.666 317.675L307.206 315.122L303.462 316.71L302.781 319.036L300.285 317.731L298.47 318.185L296.258 315.973L293.875 316.881L290.869 316.54L290.075 315.292H286.785L284.516 314.271L281.509 314.725L279.297 319.66L279.467 322.61L276.347 323.461L273.794 325.333L273.511 327.318L270.845 328.906L269.994 330.098L268.462 331.629L266.59 332.537H264.321L262.96 332.14L261.315 331.289L260.294 332.196H258.876L257.684 331.402L256.607 330.892L254.905 330.381L253.713 329.984V328.85L254.621 327.942L253.146 326.467L251.728 327.488L250.877 328.906L249.743 330.041L249.573 331.516L250.197 333.444L248.722 334.182V335.26L250.026 335.884L250.934 336.791L251.388 337.869L252.806 338.663V339.968L252.125 340.649L250.31 340.989L247.927 343.371V345.016L247.53 346.038L246.509 347.059L245.715 347.229V348.533L244.751 349.498L244.24 350.576L244.184 351.653L245.602 352.334L246.339 354.717L245.885 356.021V357.836L244.694 359.028L245.205 360.673L247.304 361.24L249.175 360.105L250.537 361.467L249.913 363.679L251.785 364.246L252.806 363.225L254.508 364.246H256.38V365.551L254.111 366.572L253.543 369.125H255.132L257.117 368.161L258.195 369.635L260.464 368.444L263.13 367.707L264.718 366.118L266.193 366.062L268.179 365.948L269.597 364.53H271.298L271.752 365.835L270.618 367.366H269.313V369.068L270.901 369.749L272.093 370.94L273.17 373.266L275.78 375.875L276.914 379.676V382.796L278.446 384.214V386.483L280.034 389.319L280.488 391.758L281.169 393.914L282.417 396.353L284.516 395.956L285.537 393.8L287.068 393.347L288.089 394.595V396.013L290.245 398.168L292.344 397.771L293.308 398.736L295.69 398.339L296.882 397.147H299.321L300.512 398.282L302.271 399.076L303.575 400.324L303.972 402.593L305.561 403.614L306.298 405.316L308.284 406.564V408.833L310.836 409.513L313.105 410.251L315.544 409.287L317.019 407.812L317.53 409.74L318.551 411.612L319.402 413.03L322.125 413.484L323.373 412.236L325.755 410.932L328.591 411.045L330.18 409.457L332.392 408.946L332.789 406.961H334.661L336.533 405.089L339.653 403.103H342.092L342.773 401.118H344.872L346.517 399.473L348.559 400.381L350.147 401.969L352.7 400.948L354.855 401.629L358.202 404.975L360.925 405.94L362.797 406.507L365.463 406.053L368.016 406.734H372.554L374.709 404.578L376.922 403.103V400.834L375.277 399.189V397.091L374.085 395.672L374.482 393.233L375.787 391.929L376.978 389.489L378.453 388.014L378.34 386.256L377.432 385.348L377.092 383.76L378.113 382.739V381.094L383.218 375.989L384.75 377.01L384.296 378.088L386.054 378.938L387.132 379.959L389.458 380.697L390.536 381.775L391.727 382.399L393.088 383.76L396.152 383.136L398.704 385.575H400.179V386.937L401.257 388.638H403.98L404.49 390.34L406.646 389.149H408.234V386.369L410.446 384.157L412.999 381.094L414.304 377.804L417.651 374.457L421.451 369.862L422.018 363.112L423.38 358.631L421.338 358.007L419.352 348.704L420.09 347.342L421.111 346.321L419.466 345.187L417.877 344.676L417.31 342.123L420.317 339.911H421.792V337.982L423.21 337.358L425.252 338.096L427.407 337.302V335.43L428.882 334.352L429.676 335.203H432.116L433.534 334.182L434.441 335.089L437.391 335.713L438.582 334.522L439.887 335.26L441.759 333.388H443.234V329.644L444.936 328.793L446.013 326.581L447.772 327.034L448.623 327.885L446.581 329.814L448.282 329.984L449.701 329.19L451.856 329.757L452.707 328.112L454.182 327.205L454.522 325.333L453.842 324.652V323.461L452.31 324.085L449.587 321.362L450.325 319.433L449.474 318.582L450.211 316.937L449.53 316.257L451.175 314.612L452.707 314.725L453.615 315.633H454.806L455.94 314.782L456.281 313.761L453.104 310.868Z"/>
        <path d="M368.924 173.818L368.129 173.365L367.789 173.875L368.583 174.442L368.924 173.818Z"/>
        <path d="M365.633 167.465L366.597 167.182L366.314 166.104L365.406 166.331L364.442 165.763L363.591 166.274L364.782 166.841L365.633 167.465Z"/>
        <path d="M353.89 169.451L354.855 168.827L356.953 167.749L358.712 167.579L360.868 165.934L361.889 163.948L361.208 162.246L360.414 160.942L359.393 161.396L358.372 159.58L357.577 158.786L356.613 159.921L356.046 161.566V160.318L356.103 158.219L355.535 156.971L354.684 157.084L353.437 158.559L353.55 159.807L353.039 160.715L353.38 162.984L352.359 164.062L352.415 166.331L351.905 168.316L351.508 170.301L352.245 170.699L353.89 169.451Z"/>
        <path d="M346.686 151.015L344.814 151.639C344.814 151.639 343.68 151.922 343.453 151.979L341.921 152.49L341.297 153.794L340.957 154.929L340.163 155.893L340.447 157.028L338.972 158.162L339.652 158.786L340.673 158.446L341.524 159.637L341.638 160.771L342.432 161.736L344.417 161.906L344.701 163.04L346.062 162.19L346.743 163.324L348.615 164.005L350.43 163.154L351.281 161.963L350.6 160.601L349.466 159.07L350.317 158.446L350.657 156.971L350.203 155.326L350.374 153.681L348.331 152.546V152.433L347.537 153.397L346.857 154.702L346.233 154.418L346.686 152.773V151.015Z"/>
        <path d="M323.77 203.089L323.6 201.784L322.579 202.295C322.693 202.692 322.863 203.089 323.033 203.429C323.033 203.259 323.77 203.089 323.77 203.089Z"/>
        <path d="M316.679 195.714L316.225 194.069L315.261 194.807L315.771 195.885L316.679 195.714Z"/>
        <path d="M315.884 205.301L315.714 206.265H317.189L317.926 207.003L318.04 205.755L317.189 205.585L315.884 205.301Z"/>
        <path d="M311.914 155.95L312.198 155.099L310.893 154.418L310.383 154.929L311.007 155.269L311.914 155.95Z"/>
        <path d="M306.014 216.816L306.865 215.852L307.205 214.718L306.468 213.98L305.674 214.207L305.05 215.001L305.39 216.022L306.014 216.816Z"/>
        <path d="M318.607 144.321L319.174 143.754L318.096 143.3L317.416 143.47L316.962 143.924L317.643 144.605L318.607 144.321Z"/>
        <path d="M334.774 143.584L335.852 142.563V141.825L334.377 141.882L333.696 142.563L334.207 143.016L334.774 143.584Z"/>
        <path d="M338.121 151.696L339.766 153.114L341.241 151.696H342.205L343.737 150.845L345.495 150.277L344.985 148.576V146.42L346.063 145.512L345.155 144.605L343.34 142.846L342.716 141.428L341.184 140.974L340.957 142.393L339.653 142.96L337.781 144.264V146.023L338.518 146.817L337.497 147.838L336.816 149.143L337.781 150.391L338.121 151.696Z"/>
        <path d="M337.553 155.61L338.177 156.234L339.142 155.269L339.652 153.908L338.745 153.17L336.986 152.773L335.795 152.603L335.965 154.191V155.156L337.553 155.61Z"/>
        <path d="M319.175 189.758L318.041 189.078L317.587 189.532L318.211 190.042L319.175 189.758Z"/>
        <path d="M346.257 179.926L345.179 180.153L346.2 180.947L347.221 179.926L347.107 178.905L346.257 179.926Z"/>
        <path d="M332.812 178.565L332.358 179.246L332.982 179.756L333.777 178.622L332.812 178.565Z"/>
    </mask>
    <path class="color" d="M453.104 310.868L452.31 308.769L451.119 308.655V307.237L449.871 305.876L448.85 304.855H447.318V306.273L446.013 307.578L443.971 307.294V305.932L443.064 305.195V303.493L441.248 303.266L439.093 302.245L437.107 302.472L435.122 302.189L433.988 303.55L433.42 305.422L432.116 306.727L432.626 308.542L431.889 310.697L430.13 312.456V315.746L427.634 317.448V319.376L426.556 317.902V316.257L425.309 315.009L424.117 315.519L423.834 317.051L420.714 318.242H419.239L418.672 320L417.707 321.419L415.665 321.589L413.396 319.32L413.169 314.612L413.453 311.775V309.109L413.793 306.727V304.401L412.148 303.663L410.957 303.266L410.787 302.132L410.219 300.827L409.142 299.749V298.501L409.879 297.764L410.106 296.006L409.085 294.984H407.724L406.249 294.247V292.886L406.816 292.318L406.192 291.638L405.681 289.596L404.49 287.44L403.072 286.419L401.484 286.873L399.952 286.986V285.171L401.2 284.831V283.639L399.895 282.335L399.839 281.2L398.421 281.087L397.4 282.108L396.095 281.54L394.393 282.164L393.542 281.143H392.748L392.011 281.881H390.479L389.458 281.427V279.555L390.025 278.988V277.74L389.571 276.322L390.706 274.563L391.387 272.748L389.344 270.933L388.834 268.323L387.189 267.416V265.771L387.87 265.203L387.189 264.523V262.991L385.43 262.254L384.92 262.764L384.409 261.176L385.26 260.325L386.225 258.794L387.643 258.396L387.132 254.709L386.735 252.327V251.079L385.09 248.072L384.92 244.952L383.275 243.818L382.537 242.173L382.027 240.925V240.982V240.187L384.012 239.393L386.054 236.5L387.473 236.047L389.401 236.614L389.968 235.309V233.721L388.891 232.643L389.401 230.771L390.819 230.261V228.786L390.763 226.857L392.351 225.779L394.166 223.964L394.563 222.659H395.357L395.187 220.731H393.712L392.351 218.178V215.852L391.046 214.774L388.494 212.902V211.938L386.565 211.201L385.884 209.783L386.225 207.854L385.43 207.06L384.579 205.812L384.126 204.734L384.806 204.053L384.977 203.146L384.239 202.522L384.012 200.877H382.878L381.46 200.99L381.573 202.522L381.46 203.259L382.594 203.373L383.332 204.11L382.424 205.868L380.892 206.436L379.304 207.74C379.304 207.74 379.02 209.442 378.17 209.442C377.375 209.499 376.581 209.669 375.787 209.896L374.085 210.917L374.482 212.789L372.781 213.526L373.234 211.825L373.631 209.385L375.22 207.797L375.957 205.698L378.226 205.131L378.794 202.181L380.212 200.763L380.779 198.097V197.133L382.651 194.864L383.729 193.786L384.636 191.914L385.601 190.609V188.737L386.678 187.66L385.487 185.617L383.615 184.596L382.878 183.859L384.75 184.256L384.92 182.271L382.594 179.945L381.913 180.682L380.779 179.718L379.815 177.846L378.737 176.768L377.262 177.506L376.184 176.428L374.255 177.789H372.327L370.228 178.924L371.079 179.775L370.625 181.363C369.944 181.079 369.264 180.852 368.526 180.682C367.959 180.682 368.072 179.434 368.072 179.434L369.32 178.186L367.902 176.825H366.087L365.52 177.392L362.513 177.222L363.761 175.634L365.236 174.159L364.782 172.23L363.364 172.4L361.492 171.266L359.961 172.854L358.259 174.102L356.841 177.619L356.387 179.151V181.42L357.124 181.987L357.294 183.575H356.614L354.458 184.256H352.359L352.927 185.277L354.061 186.128L354.912 187.262L353.04 186.865L351.168 187.262L350.884 188.794L347.935 188.681L346.744 189.872V188.681L347.651 186.979L345.949 187.262L345.496 188.284L343.397 188.567L340.958 189.134L339.993 190.042L341.695 190.609L341.128 191.29L338.575 192.027L337.667 192.935L334.094 193.446L333.073 194.467L330.463 195.488L329.442 197.643L326.776 197.53L326.89 198.948L328.194 199.061L326.89 200.082L325.925 201.387L326.719 202.181L326.209 203.373L326.946 204.223L325.812 204.507C325.812 204.507 325.812 203.089 325.074 203.77L323.997 204.847L324.961 205.812L326.095 206.209L327.06 207.627L326.095 208.591H324.28L321.841 209.612H318.154V210.18L315.885 209.329H311.46L309.588 211.031L310.042 213.413L310.779 214.15L309.929 216.022L309.361 218.291L310.099 219.086L311.403 221.241L313.219 221.922L313.105 223.227L314.126 224.645L313.729 226.176H311.177L308.908 223.907L309.588 222.035L307.149 220.731L305.844 219.426L304.256 219.653L302.498 219.256L302.611 220.39H303.519L303.916 221.411L304.653 222.149L305.901 222.489L307.262 223.227L307.603 224.475L306.695 225.382L306.865 226.403L305.05 226.687L303.746 227.991L304.313 229.239L304.767 228.786L305.334 229.92L307.376 231.055L307.206 233.324V236.614H305.391L304.653 237.748L303.235 239.166L301.533 240.471L301.647 242.23L302.498 243.08L302.781 244.102L303.972 245.293L305.788 245.576L306.015 246.824L306.639 247.448L307.66 246.427L308.17 246.995L309.361 245.86L309.305 247.732L310.779 248.016V249.491L311.687 251.703L311.177 253.064H310.439L311.177 254.482L310.553 256.298L309.532 257.319L309.191 258.453L307.886 258.17L307.83 259.701L308.737 260.665L309.021 262.367L308.227 263.558L309.078 264.409V265.714L311.177 266.905L311.971 268.607L310.666 269.798V270.763L311.347 271.897V273.599L310.496 274.28L311.574 276.152H312.708L313.843 277.286L314.694 278.988L314.864 281.143L313.899 282.108L314.353 284.093L316.509 284.547L317.587 285.625L318.664 284.547L319.061 286.816L318.664 288.801L319.345 290.333L318.04 291.638L316.679 293.396L315.715 295.211L317.133 297.197V299.579L315.771 300.941L315.601 303.096L312.595 306.103V308.996L314.977 310.584L317.643 311.719L316.225 314.044L312.822 315.519L310.666 317.675L307.206 315.122L303.462 316.71L302.781 319.036L300.285 317.731L298.47 318.185L296.258 315.973L293.875 316.881L290.869 316.54L290.075 315.292H286.785L284.516 314.271L281.509 314.725L279.297 319.66L279.467 322.61L276.347 323.461L273.794 325.333L273.511 327.318L270.845 328.906L269.994 330.098L268.462 331.629L266.59 332.537H264.321L262.96 332.14L261.315 331.289L260.294 332.196H258.876L257.684 331.402L256.607 330.892L254.905 330.381L253.713 329.984V328.85L254.621 327.942L253.146 326.467L251.728 327.488L250.877 328.906L249.743 330.041L249.573 331.516L250.197 333.444L248.722 334.182V335.26L250.026 335.884L250.934 336.791L251.388 337.869L252.806 338.663V339.968L252.125 340.649L250.31 340.989L247.927 343.371V345.016L247.53 346.038L246.509 347.059L245.715 347.229V348.533L244.751 349.498L244.24 350.576L244.184 351.653L245.602 352.334L246.339 354.717L245.885 356.021V357.836L244.694 359.028L245.205 360.673L247.304 361.24L249.175 360.105L250.537 361.467L249.913 363.679L251.785 364.246L252.806 363.225L254.508 364.246H256.38V365.551L254.111 366.572L253.543 369.125H255.132L257.117 368.161L258.195 369.635L260.464 368.444L263.13 367.707L264.718 366.118L266.193 366.062L268.179 365.948L269.597 364.53H271.298L271.752 365.835L270.618 367.366H269.313V369.068L270.901 369.749L272.093 370.94L273.17 373.266L275.78 375.875L276.914 379.676V382.796L278.446 384.214V386.483L280.034 389.319L280.488 391.758L281.169 393.914L282.417 396.353L284.516 395.956L285.537 393.8L287.068 393.347L288.089 394.595V396.013L290.245 398.168L292.344 397.771L293.308 398.736L295.69 398.339L296.882 397.147H299.321L300.512 398.282L302.271 399.076L303.575 400.324L303.972 402.593L305.561 403.614L306.298 405.316L308.284 406.564V408.833L310.836 409.513L313.105 410.251L315.544 409.287L317.019 407.812L317.53 409.74L318.551 411.612L319.402 413.03L322.125 413.484L323.373 412.236L325.755 410.932L328.591 411.045L330.18 409.457L332.392 408.946L332.789 406.961H334.661L336.533 405.089L339.653 403.103H342.092L342.773 401.118H344.872L346.517 399.473L348.559 400.381L350.147 401.969L352.7 400.948L354.855 401.629L358.202 404.975L360.925 405.94L362.797 406.507L365.463 406.053L368.016 406.734H372.554L374.709 404.578L376.922 403.103V400.834L375.277 399.189V397.091L374.085 395.672L374.482 393.233L375.787 391.929L376.978 389.489L378.453 388.014L378.34 386.256L377.432 385.348L377.092 383.76L378.113 382.739V381.094L383.218 375.989L384.75 377.01L384.296 378.088L386.054 378.938L387.132 379.959L389.458 380.697L390.536 381.775L391.727 382.399L393.088 383.76L396.152 383.136L398.704 385.575H400.179V386.937L401.257 388.638H403.98L404.49 390.34L406.646 389.149H408.234V386.369L410.446 384.157L412.999 381.094L414.304 377.804L417.651 374.457L421.451 369.862L422.018 363.112L423.38 358.631L421.338 358.007L419.352 348.704L420.09 347.342L421.111 346.321L419.466 345.187L417.877 344.676L417.31 342.123L420.317 339.911H421.792V337.982L423.21 337.358L425.252 338.096L427.407 337.302V335.43L428.882 334.352L429.676 335.203H432.116L433.534 334.182L434.441 335.089L437.391 335.713L438.582 334.522L439.887 335.26L441.759 333.388H443.234V329.644L444.936 328.793L446.013 326.581L447.772 327.034L448.623 327.885L446.581 329.814L448.282 329.984L449.701 329.19L451.856 329.757L452.707 328.112L454.182 327.205L454.522 325.333L453.842 324.652V323.461L452.31 324.085L449.587 321.362L450.325 319.433L449.474 318.582L450.211 316.937L449.53 316.257L451.175 314.612L452.707 314.725L453.615 315.633H454.806L455.94 314.782L456.281 313.761L453.104 310.868Z" fill="#CB7C44"/>
    <path class="color" d="M368.924 173.818L368.129 173.365L367.789 173.875L368.583 174.442L368.924 173.818Z" fill="#CB7C44"/>
    <path class="color" d="M365.633 167.465L366.597 167.182L366.314 166.104L365.406 166.331L364.442 165.763L363.591 166.274L364.782 166.841L365.633 167.465Z" fill="#CB7C44"/>
    <path class="color" d="M353.89 169.451L354.855 168.827L356.953 167.749L358.712 167.579L360.868 165.934L361.889 163.948L361.208 162.246L360.414 160.942L359.393 161.396L358.372 159.58L357.577 158.786L356.613 159.921L356.046 161.566V160.318L356.103 158.219L355.535 156.971L354.684 157.084L353.437 158.559L353.55 159.807L353.039 160.715L353.38 162.984L352.359 164.062L352.415 166.331L351.905 168.316L351.508 170.301L352.245 170.699L353.89 169.451Z" fill="#CB7C44"/>
    <path class="color" d="M346.686 151.015L344.814 151.639C344.814 151.639 343.68 151.922 343.453 151.979L341.921 152.49L341.297 153.794L340.957 154.929L340.163 155.893L340.447 157.028L338.972 158.162L339.652 158.786L340.673 158.446L341.524 159.637L341.638 160.771L342.432 161.736L344.417 161.906L344.701 163.04L346.062 162.19L346.743 163.324L348.615 164.005L350.43 163.154L351.281 161.963L350.6 160.601L349.466 159.07L350.317 158.446L350.657 156.971L350.203 155.326L350.374 153.681L348.331 152.546V152.433L347.537 153.397L346.857 154.702L346.233 154.418L346.686 152.773V151.015Z" fill="#CB7C44"/>
    <path class="color" d="M323.77 203.089L323.6 201.784L322.579 202.295C322.693 202.692 322.863 203.089 323.033 203.429C323.033 203.259 323.77 203.089 323.77 203.089Z" fill="#CB7C44"/>
    <path class="color" d="M316.679 195.714L316.225 194.069L315.261 194.807L315.771 195.885L316.679 195.714Z" fill="#CB7C44"/>
    <path class="color" d="M315.884 205.301L315.714 206.265H317.189L317.926 207.003L318.04 205.755L317.189 205.585L315.884 205.301Z" fill="#CB7C44"/>
    <path class="color" d="M311.914 155.95L312.198 155.099L310.893 154.418L310.383 154.929L311.007 155.269L311.914 155.95Z" fill="#CB7C44"/>
    <path class="color" d="M306.014 216.816L306.865 215.852L307.205 214.718L306.468 213.98L305.674 214.207L305.05 215.001L305.39 216.022L306.014 216.816Z" fill="#CB7C44"/>
    <path class="color" d="M318.607 144.321L319.174 143.754L318.096 143.3L317.416 143.47L316.962 143.924L317.643 144.605L318.607 144.321Z" fill="#CB7C44"/>
    <path class="color" d="M334.774 143.584L335.852 142.563V141.825L334.377 141.882L333.696 142.563L334.207 143.016L334.774 143.584Z" fill="#CB7C44"/>
    <path class="color" d="M338.121 151.696L339.766 153.114L341.241 151.696H342.205L343.737 150.845L345.495 150.277L344.985 148.576V146.42L346.063 145.512L345.155 144.605L343.34 142.846L342.716 141.428L341.184 140.974L340.957 142.393L339.653 142.96L337.781 144.264V146.023L338.518 146.817L337.497 147.838L336.816 149.143L337.781 150.391L338.121 151.696Z" fill="#CB7C44"/>
    <path class="color" d="M337.553 155.61L338.177 156.234L339.142 155.269L339.652 153.908L338.745 153.17L336.986 152.773L335.795 152.603L335.965 154.191V155.156L337.553 155.61Z" fill="#CB7C44"/>
    <path class="color" d="M319.175 189.758L318.041 189.078L317.587 189.532L318.211 190.042L319.175 189.758Z" fill="#CB7C44"/>
    <path class="color" d="M346.257 179.926L345.179 180.153L346.2 180.947L347.221 179.926L347.107 178.905L346.257 179.926Z" fill="#CB7C44"/>
    <path class="color" d="M332.812 178.565L332.358 179.246L332.982 179.756L333.777 178.622L332.812 178.565Z" fill="#CB7C44"/>
    <path d="M453.104 310.868L452.31 308.769L451.119 308.655V307.237L449.871 305.876L448.85 304.855H447.318V306.273L446.013 307.578L443.971 307.294V305.932L443.064 305.195V303.493L441.248 303.266L439.093 302.245L437.107 302.472L435.122 302.189L433.988 303.55L433.42 305.422L432.116 306.727L432.626 308.542L431.889 310.697L430.13 312.456V315.746L427.634 317.448V319.376L426.556 317.902V316.257L425.309 315.009L424.117 315.519L423.834 317.051L420.714 318.242H419.239L418.672 320L417.707 321.419L415.665 321.589L413.396 319.32L413.169 314.612L413.453 311.775V309.109L413.793 306.727V304.401L412.148 303.663L410.957 303.266L410.787 302.132L410.219 300.827L409.142 299.749V298.501L409.879 297.764L410.106 296.006L409.085 294.984H407.724L406.249 294.247V292.886L406.816 292.318L406.192 291.638L405.681 289.596L404.49 287.44L403.072 286.419L401.484 286.873L399.952 286.986V285.171L401.2 284.831V283.639L399.895 282.335L399.839 281.2L398.421 281.087L397.4 282.108L396.095 281.54L394.393 282.164L393.542 281.143H392.748L392.011 281.881H390.479L389.458 281.427V279.555L390.025 278.988V277.74L389.571 276.322L390.706 274.563L391.387 272.748L389.344 270.933L388.834 268.323L387.189 267.416V265.771L387.87 265.203L387.189 264.523V262.991L385.43 262.254L384.92 262.764L384.409 261.176L385.26 260.325L386.225 258.794L387.643 258.396L387.132 254.709L386.735 252.327V251.079L385.09 248.072L384.92 244.952L383.275 243.818L382.537 242.173L382.027 240.925V240.982V240.187L384.012 239.393L386.054 236.5L387.473 236.047L389.401 236.614L389.968 235.309V233.721L388.891 232.643L389.401 230.771L390.819 230.261V228.786L390.763 226.857L392.351 225.779L394.166 223.964L394.563 222.659H395.357L395.187 220.731H393.712L392.351 218.178V215.852L391.046 214.774L388.494 212.902V211.938L386.565 211.201L385.884 209.783L386.225 207.854L385.43 207.06L384.579 205.812L384.126 204.734L384.806 204.053L384.977 203.146L384.239 202.522L384.012 200.877H382.878L381.46 200.99L381.573 202.522L381.46 203.259L382.594 203.373L383.332 204.11L382.424 205.868L380.892 206.436L379.304 207.74C379.304 207.74 379.02 209.442 378.17 209.442C377.375 209.499 376.581 209.669 375.787 209.896L374.085 210.917L374.482 212.789L372.781 213.526L373.234 211.825L373.631 209.385L375.22 207.797L375.957 205.698L378.226 205.131L378.794 202.181L380.212 200.763L380.779 198.097V197.133L382.651 194.864L383.729 193.786L384.636 191.914L385.601 190.609V188.737L386.678 187.66L385.487 185.617L383.615 184.596L382.878 183.859L384.75 184.256L384.92 182.271L382.594 179.945L381.913 180.682L380.779 179.718L379.815 177.846L378.737 176.768L377.262 177.506L376.184 176.428L374.255 177.789H372.327L370.228 178.924L371.079 179.775L370.625 181.363C369.944 181.079 369.264 180.852 368.526 180.682C367.959 180.682 368.072 179.434 368.072 179.434L369.32 178.186L367.902 176.825H366.087L365.52 177.392L362.513 177.222L363.761 175.634L365.236 174.159L364.782 172.23L363.364 172.4L361.492 171.266L359.961 172.854L358.259 174.102L356.841 177.619L356.387 179.151V181.42L357.124 181.987L357.294 183.575H356.614L354.458 184.256H352.359L352.927 185.277L354.061 186.128L354.912 187.262L353.04 186.865L351.168 187.262L350.884 188.794L347.935 188.681L346.744 189.872V188.681L347.651 186.979L345.949 187.262L345.496 188.284L343.397 188.567L340.958 189.134L339.993 190.042L341.695 190.609L341.128 191.29L338.575 192.027L337.667 192.935L334.094 193.446L333.073 194.467L330.463 195.488L329.442 197.643L326.776 197.53L326.89 198.948L328.194 199.061L326.89 200.082L325.925 201.387L326.719 202.181L326.209 203.373L326.946 204.223L325.812 204.507C325.812 204.507 325.812 203.089 325.074 203.77L323.997 204.847L324.961 205.812L326.095 206.209L327.06 207.627L326.095 208.591H324.28L321.841 209.612H318.154V210.18L315.885 209.329H311.46L309.588 211.031L310.042 213.413L310.779 214.15L309.929 216.022L309.361 218.291L310.099 219.086L311.403 221.241L313.219 221.922L313.105 223.227L314.126 224.645L313.729 226.176H311.177L308.908 223.907L309.588 222.035L307.149 220.731L305.844 219.426L304.256 219.653L302.498 219.256L302.611 220.39H303.519L303.916 221.411L304.653 222.149L305.901 222.489L307.262 223.227L307.603 224.475L306.695 225.382L306.865 226.403L305.05 226.687L303.746 227.991L304.313 229.239L304.767 228.786L305.334 229.92L307.376 231.055L307.206 233.324V236.614H305.391L304.653 237.748L303.235 239.166L301.533 240.471L301.647 242.23L302.498 243.08L302.781 244.102L303.972 245.293L305.788 245.576L306.015 246.824L306.639 247.448L307.66 246.427L308.17 246.995L309.361 245.86L309.305 247.732L310.779 248.016V249.491L311.687 251.703L311.177 253.064H310.439L311.177 254.482L310.553 256.298L309.532 257.319L309.191 258.453L307.886 258.17L307.83 259.701L308.737 260.665L309.021 262.367L308.227 263.558L309.078 264.409V265.714L311.177 266.905L311.971 268.607L310.666 269.798V270.763L311.347 271.897V273.599L310.496 274.28L311.574 276.152H312.708L313.843 277.286L314.694 278.988L314.864 281.143L313.899 282.108L314.353 284.093L316.509 284.547L317.587 285.625L318.664 284.547L319.061 286.816L318.664 288.801L319.345 290.333L318.04 291.638L316.679 293.396L315.715 295.211L317.133 297.197V299.579L315.771 300.941L315.601 303.096L312.595 306.103V308.996L314.977 310.584L317.643 311.719L316.225 314.044L312.822 315.519L310.666 317.675L307.206 315.122L303.462 316.71L302.781 319.036L300.285 317.731L298.47 318.185L296.258 315.973L293.875 316.881L290.869 316.54L290.075 315.292H286.785L284.516 314.271L281.509 314.725L279.297 319.66L279.467 322.61L276.347 323.461L273.794 325.333L273.511 327.318L270.845 328.906L269.994 330.098L268.462 331.629L266.59 332.537H264.321L262.96 332.14L261.315 331.289L260.294 332.196H258.876L257.684 331.402L256.607 330.892L254.905 330.381L253.713 329.984V328.85L254.621 327.942L253.146 326.467L251.728 327.488L250.877 328.906L249.743 330.041L249.573 331.516L250.197 333.444L248.722 334.182V335.26L250.026 335.884L250.934 336.791L251.388 337.869L252.806 338.663V339.968L252.125 340.649L250.31 340.989L247.927 343.371V345.016L247.53 346.038L246.509 347.059L245.715 347.229V348.533L244.751 349.498L244.24 350.576L244.184 351.653L245.602 352.334L246.339 354.717L245.885 356.021V357.836L244.694 359.028L245.205 360.673L247.304 361.24L249.175 360.105L250.537 361.467L249.913 363.679L251.785 364.246L252.806 363.225L254.508 364.246H256.38V365.551L254.111 366.572L253.543 369.125H255.132L257.117 368.161L258.195 369.635L260.464 368.444L263.13 367.707L264.718 366.118L266.193 366.062L268.179 365.948L269.597 364.53H271.298L271.752 365.835L270.618 367.366H269.313V369.068L270.901 369.749L272.093 370.94L273.17 373.266L275.78 375.875L276.914 379.676V382.796L278.446 384.214V386.483L280.034 389.319L280.488 391.758L281.169 393.914L282.417 396.353L284.516 395.956L285.537 393.8L287.068 393.347L288.089 394.595V396.013L290.245 398.168L292.344 397.771L293.308 398.736L295.69 398.339L296.882 397.147H299.321L300.512 398.282L302.271 399.076L303.575 400.324L303.972 402.593L305.561 403.614L306.298 405.316L308.284 406.564V408.833L310.836 409.513L313.105 410.251L315.544 409.287L317.019 407.812L317.53 409.74L318.551 411.612L319.402 413.03L322.125 413.484L323.373 412.236L325.755 410.932L328.591 411.045L330.18 409.457L332.392 408.946L332.789 406.961H334.661L336.533 405.089L339.653 403.103H342.092L342.773 401.118H344.872L346.517 399.473L348.559 400.381L350.147 401.969L352.7 400.948L354.855 401.629L358.202 404.975L360.925 405.94L362.797 406.507L365.463 406.053L368.016 406.734H372.554L374.709 404.578L376.922 403.103V400.834L375.277 399.189V397.091L374.085 395.672L374.482 393.233L375.787 391.929L376.978 389.489L378.453 388.014L378.34 386.256L377.432 385.348L377.092 383.76L378.113 382.739V381.094L383.218 375.989L384.75 377.01L384.296 378.088L386.054 378.938L387.132 379.959L389.458 380.697L390.536 381.775L391.727 382.399L393.088 383.76L396.152 383.136L398.704 385.575H400.179V386.937L401.257 388.638H403.98L404.49 390.34L406.646 389.149H408.234V386.369L410.446 384.157L412.999 381.094L414.304 377.804L417.651 374.457L421.451 369.862L422.018 363.112L423.38 358.631L421.338 358.007L419.352 348.704L420.09 347.342L421.111 346.321L419.466 345.187L417.877 344.676L417.31 342.123L420.317 339.911H421.792V337.982L423.21 337.358L425.252 338.096L427.407 337.302V335.43L428.882 334.352L429.676 335.203H432.116L433.534 334.182L434.441 335.089L437.391 335.713L438.582 334.522L439.887 335.26L441.759 333.388H443.234V329.644L444.936 328.793L446.013 326.581L447.772 327.034L448.623 327.885L446.581 329.814L448.282 329.984L449.701 329.19L451.856 329.757L452.707 328.112L454.182 327.205L454.522 325.333L453.842 324.652V323.461L452.31 324.085L449.587 321.362L450.325 319.433L449.474 318.582L450.211 316.937L449.53 316.257L451.175 314.612L452.707 314.725L453.615 315.633H454.806L455.94 314.782L456.281 313.761L453.104 310.868Z" stroke="white" stroke-width="4" mask="url(#path-54-outside-3)"/>
    <path d="M368.924 173.818L368.129 173.365L367.789 173.875L368.583 174.442L368.924 173.818Z" stroke="white" stroke-width="4" mask="url(#path-54-outside-3)"/>
    <path d="M365.633 167.465L366.597 167.182L366.314 166.104L365.406 166.331L364.442 165.763L363.591 166.274L364.782 166.841L365.633 167.465Z" stroke="white" stroke-width="4" mask="url(#path-54-outside-3)"/>
    <path d="M353.89 169.451L354.855 168.827L356.953 167.749L358.712 167.579L360.868 165.934L361.889 163.948L361.208 162.246L360.414 160.942L359.393 161.396L358.372 159.58L357.577 158.786L356.613 159.921L356.046 161.566V160.318L356.103 158.219L355.535 156.971L354.684 157.084L353.437 158.559L353.55 159.807L353.039 160.715L353.38 162.984L352.359 164.062L352.415 166.331L351.905 168.316L351.508 170.301L352.245 170.699L353.89 169.451Z" stroke="white" stroke-width="4" mask="url(#path-54-outside-3)"/>
    <path d="M346.686 151.015L344.814 151.639C344.814 151.639 343.68 151.922 343.453 151.979L341.921 152.49L341.297 153.794L340.957 154.929L340.163 155.893L340.447 157.028L338.972 158.162L339.652 158.786L340.673 158.446L341.524 159.637L341.638 160.771L342.432 161.736L344.417 161.906L344.701 163.04L346.062 162.19L346.743 163.324L348.615 164.005L350.43 163.154L351.281 161.963L350.6 160.601L349.466 159.07L350.317 158.446L350.657 156.971L350.203 155.326L350.374 153.681L348.331 152.546V152.433L347.537 153.397L346.857 154.702L346.233 154.418L346.686 152.773V151.015Z" stroke="white" stroke-width="4" mask="url(#path-54-outside-3)"/>
    <path d="M323.77 203.089L323.6 201.784L322.579 202.295C322.693 202.692 322.863 203.089 323.033 203.429C323.033 203.259 323.77 203.089 323.77 203.089Z" stroke="white" stroke-width="4" mask="url(#path-54-outside-3)"/>
    <path d="M316.679 195.714L316.225 194.069L315.261 194.807L315.771 195.885L316.679 195.714Z" stroke="white" stroke-width="4" mask="url(#path-54-outside-3)"/>
    <path d="M315.884 205.301L315.714 206.265H317.189L317.926 207.003L318.04 205.755L317.189 205.585L315.884 205.301Z" stroke="white" stroke-width="4" mask="url(#path-54-outside-3)"/>
    <path d="M311.914 155.95L312.198 155.099L310.893 154.418L310.383 154.929L311.007 155.269L311.914 155.95Z" stroke="white" stroke-width="4" mask="url(#path-54-outside-3)"/>
    <path d="M306.014 216.816L306.865 215.852L307.205 214.718L306.468 213.98L305.674 214.207L305.05 215.001L305.39 216.022L306.014 216.816Z" stroke="white" stroke-width="4" mask="url(#path-54-outside-3)"/>
    <path d="M318.607 144.321L319.174 143.754L318.096 143.3L317.416 143.47L316.962 143.924L317.643 144.605L318.607 144.321Z" stroke="white" stroke-width="4" mask="url(#path-54-outside-3)"/>
    <path d="M334.774 143.584L335.852 142.563V141.825L334.377 141.882L333.696 142.563L334.207 143.016L334.774 143.584Z" stroke="white" stroke-width="4" mask="url(#path-54-outside-3)"/>
    <path d="M338.121 151.696L339.766 153.114L341.241 151.696H342.205L343.737 150.845L345.495 150.277L344.985 148.576V146.42L346.063 145.512L345.155 144.605L343.34 142.846L342.716 141.428L341.184 140.974L340.957 142.393L339.653 142.96L337.781 144.264V146.023L338.518 146.817L337.497 147.838L336.816 149.143L337.781 150.391L338.121 151.696Z" stroke="white" stroke-width="4" mask="url(#path-54-outside-3)"/>
    <path d="M337.553 155.61L338.177 156.234L339.142 155.269L339.652 153.908L338.745 153.17L336.986 152.773L335.795 152.603L335.965 154.191V155.156L337.553 155.61Z" stroke="white" stroke-width="4" mask="url(#path-54-outside-3)"/>
    <path d="M319.175 189.758L318.041 189.078L317.587 189.532L318.211 190.042L319.175 189.758Z" stroke="white" stroke-width="4" mask="url(#path-54-outside-3)"/>
    <path d="M346.257 179.926L345.179 180.153L346.2 180.947L347.221 179.926L347.107 178.905L346.257 179.926Z" stroke="white" stroke-width="4" mask="url(#path-54-outside-3)"/>
    <path d="M332.812 178.565L332.358 179.246L332.982 179.756L333.777 178.622L332.812 178.565Z" stroke="white" stroke-width="4" mask="url(#path-54-outside-3)"/>
</svg>
