<?xml version="1.0" encoding="UTF-8" standalone="no"?>
<svg>
    <mask id="path-64-outside-8" maskUnits="userSpaceOnUse" x="29" y="311.496" width="97" height="93" fill="black">
        <rect fill="white" x="29" y="311.496" width="97" height="93"/>
        <path d="M102.17 371.903L100.866 372.47L99.2773 374.342H97.4621L95.4767 374.909L94.3422 374.626L93.3778 375.59V377.178L94.3989 378.199L94.9662 380.014L94.5123 381.83L94.0585 383.475L92.9808 384.553V385.233L92.0164 386.084L89.9176 389.488V392.154L90.4848 395.387L90.0878 397.826L90.2579 400.833L87.9889 401.854L86.4573 401.173L84.3017 401.911L82.2029 401.457L81.9193 399.642L80.8982 396.522L80.728 394.253L79.1964 393.232V391.984L78.459 389.998L77.1543 388.296L78.0052 386.878L78.5724 385.29L77.1543 383.758L76.7005 382.057L75.1122 381.886L74.7718 380.865L73.5806 379.674L71.4817 379.391L70.1771 378.086L69.78 375.079L68.4753 373.831L68.8724 371.959L67.284 370.655L66.4332 368.499L65.015 367.818L62.9162 366.4L62.2355 364.131L60.8173 361.976L60.3635 360.104L59.229 359.877L58.4916 358.913L57.5272 357.608L56.2793 357.778L55.5418 355.509L55.8255 351.141L55.4284 347.908L54.691 346.319L53.7266 344.901L53.8968 342.065L52.7623 341.044L52.0249 339.512L52.5921 337.811L52.1383 335.939L53.1594 334.918L54.2939 334.747L55.8255 336.619L57.2436 337.073L57.9243 335.655L59.5126 334.974L61.6682 334.861H62.8027L64.2209 335.315L64.5045 332.932L63.7671 331.514L64.1641 330.266L65.2987 330.436L66.3197 331.174L67.4542 332.195L68.3051 331.344L69.6098 331.911L71.7654 332.195L73.3537 332.875L73.7508 331.174L72.6163 330.323L71.0279 329.926L70.0069 328.905L68.8724 328.508L70.2905 326.976L72.3894 326.012L74.2046 326.749L75.7929 326.068L77.3245 327.657L79.5935 330.096L81.6924 327.997L83.1105 327.146L82.7134 325.047L84.0181 323.743L85.3228 323.913L85.2094 322.381L88.7263 321.927L89.407 320.339L90.1445 319.375L90.8819 320.112V321.303H92.5269L93.2077 322.211H94.5123L95.3632 321.36H97.8024L100.015 319.148L100.695 316.879H103.418L104.723 315.688L106.084 315.971L106.425 317.049L107.843 317.843H109.772L109.658 319.488L110.225 321.757L112.324 322.041L113.572 322.722V323.856L115.501 323.799L117.713 325.955L117.997 328.564L116.295 330.209L117.543 331.401L118.224 330.72L119.585 331.23L119.982 333.159L120.89 334.067H122.251L122.535 335.485L123.669 336.619L123.726 338.491L123.045 340.023L121.797 340.931H119.925L117.203 343.653V345.355L115.614 346.036L113.913 345.922L112.721 347.114L111.246 348.135L111.87 350.007L113.232 351.425L112.665 353.864L111.417 355.112L112.608 355.849L114.423 357.551L115.558 358.686L115.104 361.125L115.614 364.358V366.968L114.593 367.989L113.629 366.968L112.211 366.797L112.381 368.499L113.175 370.144L114.366 371.335L113.402 372.3L111.814 372.47H108.58C107.9 372.527 107.219 372.583 106.538 372.64C105.631 372.64 105.801 371.903 105.801 371.903L104.383 371.506L103.702 370.825L102 370.541L102.17 371.903Z"/>
        <path d="M51.5703 331.117L51.7405 331.741L53.2721 333.329L51.6838 333.046L50.9464 334.18L49.0177 333.84L47.0323 332.535L46.6919 331.514L45.9545 330.096H42.7779L41.303 329.585L40.679 329.018L40.3387 328.621L39.9983 327.94L38.7503 327.089L37.786 326.863L36.4246 327.487L35.5737 327.94L34.0421 328.054L32.6807 327.146L32.3404 326.125L32 324.764L32.6807 323.629L32.9573 323.595L33.0176 323.499L33.6889 323.415L34.2123 322.892L34.5914 322.719L34.6627 322.648L35.4783 322.264L35.8006 321.19L35.6872 320.055L35.9141 319.205L35.8006 318.127L35.3468 316.765L34.4959 316.482L33.7585 316.141L33.645 315.177L34.3825 314.496L34.893 314.837L35.7439 315.064L36.5948 315.574L37.6158 315.461L39.3743 315.517L39.8281 315.801L40.9627 316.652L41.4732 317.106L42.1539 317.786L43.3451 317.56L44.2527 317.673L44.4229 316.879L45.5574 317.106V318.581L46.5218 319.545L46.1247 321.303L46.2381 321.644L46.7487 322.041L46.9756 322.268L47.2025 323.913L46.8054 325.728L46.0112 326.919L47.3726 329.018L49.2446 330.039L50.9464 330.323L51.2867 330.663L51.5703 331.117Z"/>
    </mask>
    <path class="color" d="M102.17 371.903L100.866 372.47L99.2773 374.342H97.4621L95.4767 374.909L94.3422 374.626L93.3778 375.59V377.178L94.3989 378.199L94.9662 380.014L94.5123 381.83L94.0585 383.475L92.9808 384.553V385.233L92.0164 386.084L89.9176 389.488V392.154L90.4848 395.387L90.0878 397.826L90.2579 400.833L87.9889 401.854L86.4573 401.173L84.3017 401.911L82.2029 401.457L81.9193 399.642L80.8982 396.522L80.728 394.253L79.1964 393.232V391.984L78.459 389.998L77.1543 388.296L78.0052 386.878L78.5724 385.29L77.1543 383.758L76.7005 382.057L75.1122 381.886L74.7718 380.865L73.5806 379.674L71.4817 379.391L70.1771 378.086L69.78 375.079L68.4753 373.831L68.8724 371.959L67.284 370.655L66.4332 368.499L65.015 367.818L62.9162 366.4L62.2355 364.131L60.8173 361.976L60.3635 360.104L59.229 359.877L58.4916 358.913L57.5272 357.608L56.2793 357.778L55.5418 355.509L55.8255 351.141L55.4284 347.908L54.691 346.319L53.7266 344.901L53.8968 342.065L52.7623 341.044L52.0249 339.512L52.5921 337.811L52.1383 335.939L53.1594 334.918L54.2939 334.747L55.8255 336.619L57.2436 337.073L57.9243 335.655L59.5126 334.974L61.6682 334.861H62.8027L64.2209 335.315L64.5045 332.932L63.7671 331.514L64.1641 330.266L65.2987 330.436L66.3197 331.174L67.4542 332.195L68.3051 331.344L69.6098 331.911L71.7654 332.195L73.3537 332.875L73.7508 331.174L72.6163 330.323L71.0279 329.926L70.0069 328.905L68.8724 328.508L70.2905 326.976L72.3894 326.012L74.2046 326.749L75.7929 326.068L77.3245 327.657L79.5935 330.096L81.6924 327.997L83.1105 327.146L82.7134 325.047L84.0181 323.743L85.3228 323.913L85.2094 322.381L88.7263 321.927L89.407 320.339L90.1445 319.375L90.8819 320.112V321.303H92.5269L93.2077 322.211H94.5123L95.3632 321.36H97.8024L100.015 319.148L100.695 316.879H103.418L104.723 315.688L106.084 315.971L106.425 317.049L107.843 317.843H109.772L109.658 319.488L110.225 321.757L112.324 322.041L113.572 322.722V323.856L115.501 323.799L117.713 325.955L117.997 328.564L116.295 330.209L117.543 331.401L118.224 330.72L119.585 331.23L119.982 333.159L120.89 334.067H122.251L122.535 335.485L123.669 336.619L123.726 338.491L123.045 340.023L121.797 340.931H119.925L117.203 343.653V345.355L115.614 346.036L113.913 345.922L112.721 347.114L111.246 348.135L111.87 350.007L113.232 351.425L112.665 353.864L111.417 355.112L112.608 355.849L114.423 357.551L115.558 358.686L115.104 361.125L115.614 364.358V366.968L114.593 367.989L113.629 366.968L112.211 366.797L112.381 368.499L113.175 370.144L114.366 371.335L113.402 372.3L111.814 372.47H108.58C107.9 372.527 107.219 372.583 106.538 372.64C105.631 372.64 105.801 371.903 105.801 371.903L104.383 371.506L103.702 370.825L102 370.541L102.17 371.903Z" fill="#DC8C4D"/>
    <path class="color" d="M51.5703 331.117L51.7405 331.741L53.2721 333.329L51.6838 333.046L50.9464 334.18L49.0177 333.84L47.0323 332.535L46.6919 331.514L45.9545 330.096H42.7779L41.303 329.585L40.679 329.018L40.3387 328.621L39.9983 327.94L38.7503 327.089L37.786 326.863L36.4246 327.487L35.5737 327.94L34.0421 328.054L32.6807 327.146L32.3404 326.125L32 324.764L32.6807 323.629L32.9573 323.595L33.0176 323.499L33.6889 323.415L34.2123 322.892L34.5914 322.719L34.6627 322.648L35.4783 322.264L35.8006 321.19L35.6872 320.055L35.9141 319.205L35.8006 318.127L35.3468 316.765L34.4959 316.482L33.7585 316.141L33.645 315.177L34.3825 314.496L34.893 314.837L35.7439 315.064L36.5948 315.574L37.6158 315.461L39.3743 315.517L39.8281 315.801L40.9627 316.652L41.4732 317.106L42.1539 317.786L43.3451 317.56L44.2527 317.673L44.4229 316.879L45.5574 317.106V318.581L46.5218 319.545L46.1247 321.303L46.2381 321.644L46.7487 322.041L46.9756 322.268L47.2025 323.913L46.8054 325.728L46.0112 326.919L47.3726 329.018L49.2446 330.039L50.9464 330.323L51.2867 330.663L51.5703 331.117Z" fill="#DC8C4D"/>
    <path d="M102.17 371.903L100.866 372.47L99.2773 374.342H97.4621L95.4767 374.909L94.3422 374.626L93.3778 375.59V377.178L94.3989 378.199L94.9662 380.014L94.5123 381.83L94.0585 383.475L92.9808 384.553V385.233L92.0164 386.084L89.9176 389.488V392.154L90.4848 395.387L90.0878 397.826L90.2579 400.833L87.9889 401.854L86.4573 401.173L84.3017 401.911L82.2029 401.457L81.9193 399.642L80.8982 396.522L80.728 394.253L79.1964 393.232V391.984L78.459 389.998L77.1543 388.296L78.0052 386.878L78.5724 385.29L77.1543 383.758L76.7005 382.057L75.1122 381.886L74.7718 380.865L73.5806 379.674L71.4817 379.391L70.1771 378.086L69.78 375.079L68.4753 373.831L68.8724 371.959L67.284 370.655L66.4332 368.499L65.015 367.818L62.9162 366.4L62.2355 364.131L60.8173 361.976L60.3635 360.104L59.229 359.877L58.4916 358.913L57.5272 357.608L56.2793 357.778L55.5418 355.509L55.8255 351.141L55.4284 347.908L54.691 346.319L53.7266 344.901L53.8968 342.065L52.7623 341.044L52.0249 339.512L52.5921 337.811L52.1383 335.939L53.1594 334.918L54.2939 334.747L55.8255 336.619L57.2436 337.073L57.9243 335.655L59.5126 334.974L61.6682 334.861H62.8027L64.2209 335.315L64.5045 332.932L63.7671 331.514L64.1641 330.266L65.2987 330.436L66.3197 331.174L67.4542 332.195L68.3051 331.344L69.6098 331.911L71.7654 332.195L73.3537 332.875L73.7508 331.174L72.6163 330.323L71.0279 329.926L70.0069 328.905L68.8724 328.508L70.2905 326.976L72.3894 326.012L74.2046 326.749L75.7929 326.068L77.3245 327.657L79.5935 330.096L81.6924 327.997L83.1105 327.146L82.7134 325.047L84.0181 323.743L85.3228 323.913L85.2094 322.381L88.7263 321.927L89.407 320.339L90.1445 319.375L90.8819 320.112V321.303H92.5269L93.2077 322.211H94.5123L95.3632 321.36H97.8024L100.015 319.148L100.695 316.879H103.418L104.723 315.688L106.084 315.971L106.425 317.049L107.843 317.843H109.772L109.658 319.488L110.225 321.757L112.324 322.041L113.572 322.722V323.856L115.501 323.799L117.713 325.955L117.997 328.564L116.295 330.209L117.543 331.401L118.224 330.72L119.585 331.23L119.982 333.159L120.89 334.067H122.251L122.535 335.485L123.669 336.619L123.726 338.491L123.045 340.023L121.797 340.931H119.925L117.203 343.653V345.355L115.614 346.036L113.913 345.922L112.721 347.114L111.246 348.135L111.87 350.007L113.232 351.425L112.665 353.864L111.417 355.112L112.608 355.849L114.423 357.551L115.558 358.686L115.104 361.125L115.614 364.358V366.968L114.593 367.989L113.629 366.968L112.211 366.797L112.381 368.499L113.175 370.144L114.366 371.335L113.402 372.3L111.814 372.47H108.58C107.9 372.527 107.219 372.583 106.538 372.64C105.631 372.64 105.801 371.903 105.801 371.903L104.383 371.506L103.702 370.825L102 370.541L102.17 371.903Z" stroke="white" stroke-width="4" mask="url(#path-64-outside-8)"/>
    <path d="M51.5703 331.117L51.7405 331.741L53.2721 333.329L51.6838 333.046L50.9464 334.18L49.0177 333.84L47.0323 332.535L46.6919 331.514L45.9545 330.096H42.7779L41.303 329.585L40.679 329.018L40.3387 328.621L39.9983 327.94L38.7503 327.089L37.786 326.863L36.4246 327.487L35.5737 327.94L34.0421 328.054L32.6807 327.146L32.3404 326.125L32 324.764L32.6807 323.629L32.9573 323.595L33.0176 323.499L33.6889 323.415L34.2123 322.892L34.5914 322.719L34.6627 322.648L35.4783 322.264L35.8006 321.19L35.6872 320.055L35.9141 319.205L35.8006 318.127L35.3468 316.765L34.4959 316.482L33.7585 316.141L33.645 315.177L34.3825 314.496L34.893 314.837L35.7439 315.064L36.5948 315.574L37.6158 315.461L39.3743 315.517L39.8281 315.801L40.9627 316.652L41.4732 317.106L42.1539 317.786L43.3451 317.56L44.2527 317.673L44.4229 316.879L45.5574 317.106V318.581L46.5218 319.545L46.1247 321.303L46.2381 321.644L46.7487 322.041L46.9756 322.268L47.2025 323.913L46.8054 325.728L46.0112 326.919L47.3726 329.018L49.2446 330.039L50.9464 330.323L51.2867 330.663L51.5703 331.117Z" stroke="white" stroke-width="4" mask="url(#path-64-outside-8)"/>
</svg>
