<?xml version="1.0" encoding="UTF-8" standalone="no"?>
<svg>
    <mask id="path-56-outside-4" maskUnits="userSpaceOnUse" x="177.175" y="202.438" width="145" height="166" fill="black">
        <rect fill="white" x="177.175" y="202.438" width="145" height="166"/>
        <path d="M300.469 219.846L301.206 219.108H302.397L303.532 218.087L302.511 217.066L301.49 217.35L300.526 218.257L299.504 219.108L300.469 219.846Z"/>
        <path d="M299.164 208.557L300.468 208.954L300.128 208.16L298.37 207.82L297.632 208.501L298.143 209.295L299.164 208.557Z"/>
        <path d="M295.478 212.018L294.457 211.223L294.003 212.358L294.684 212.982L295.478 212.018Z"/>
        <path d="M284.132 208.671L285.721 209.125L287.139 208.387L287.99 208.501V207.65L286.628 207.309L287.309 206.515L286.572 205.438L285.607 205.778L285.267 205.664L284.303 206.345L284.643 207.139L283.962 208.047L284.132 208.671Z"/>
        <path d="M219.408 282.13L219.068 283.775L218.217 284.683L217.706 285.988V287.463L215.777 288.484V290.412L214.7 293.022L212.771 294.724L211.353 296.879L210.048 298.184H208.403L206.815 299.545V301.984L208.006 303.913L207.382 306.069L206.418 307.033V307.714L207.439 308.791L206.248 309.983L205.056 310.947L203.411 310.607L201.709 311.741L201.766 312.649L202.504 313.386L200.745 315.145L199.611 313.443H198.306L197.285 315.088L196.831 316.847L195.243 317.641H193.371L192.804 317.073L192.18 318.378V320.023L190.194 322.122L191.385 323.824L193.598 325.412H194.959L196.094 327.057L197.285 325.866L197.682 327.454L197.228 328.872L196.094 330.971V332.106L193.938 332.616L192.69 333.864L190.705 333.127V331.822L189.627 330.744L188.095 329.95L186.677 329.496L184.635 331.028L185.032 332.843L185.94 333.751L186.223 336.303L187.415 338.232L189.74 338.459L190.761 337.778L193.087 338.516L193.768 340.558V342.373H192.69L192.009 341.465L190.421 341.636V342.316L188.946 342.827L187.018 344.756V345.833L185.77 347.535V349.18H184.749L183.444 351.506L183.217 352.924L181.742 353.605L181.175 354.626H184.522L185.599 354.172L187.131 354.853H188.095L188.776 356.044L188.322 357.235L186.564 358.086L186.791 359.277H187.812L188.095 360.752L188.833 358.767L190.705 359.221L192.293 358.767L192.974 357.065L192.293 354.682L193.881 354.002L196.321 353.888L197.909 355.477H199.214L200.405 354.285L198.079 351.96L197.058 351.279L198.363 349.974L197.682 348.556L198.363 346.457H200.348L202.504 347.592L204.035 348.896L205.737 348.443L208.119 348.896L211.353 348.783L213.508 349.464H215.097L216.912 350.428L218.784 350.031L219.862 348.953H220.883L223.322 350.258H225.875L227.973 349.861L229.675 350.825L231.774 350.258H234.157L235.291 348.67L237.39 348.84L239.262 349.974L241.588 349.918L242.438 351.619H244.14L244.197 350.542L244.708 349.464L245.672 348.499V347.195L246.466 347.025L247.487 346.003L247.884 344.982V343.337L250.267 340.955L252.082 340.615L252.763 339.934V338.629L251.344 337.835L250.891 336.757L249.983 335.85L248.678 335.226V334.148L250.153 333.41L249.529 331.482L249.699 330.007L250.834 328.872L251.685 327.454L253.103 326.433L254.578 327.908L253.67 328.816V329.95L254.975 330.404L256.62 330.914L257.698 331.425L258.889 332.219H260.477L261.498 331.312L263.143 332.162L264.561 332.616H266.83L268.702 331.709L270.234 330.177L271.085 328.986L273.694 327.397L273.978 325.412L276.531 323.54L279.65 322.689L279.48 319.74L281.693 314.804L284.699 314.351L286.968 315.372H290.258L291.052 316.62L294.059 316.96L296.441 316.052L298.654 318.265L300.469 317.811L302.965 319.116L303.645 316.79L307.389 315.201L310.85 317.754L313.005 315.599L316.409 314.124L317.827 311.798L315.161 310.663L312.778 309.075V306.182L315.785 303.176L315.955 301.02L317.316 299.659V297.219L315.898 295.234L316.862 293.419L318.281 291.604L319.529 290.356L318.848 288.824L319.245 286.839L318.848 284.57L317.77 285.647L316.692 284.57L314.537 284.116L314.083 282.13L315.047 281.166L314.877 279.011L314.026 277.309L312.892 276.174H311.757L310.679 274.302L311.53 273.622V271.92L310.85 270.785V269.821L312.154 268.63L311.36 266.928L309.261 265.737V264.432L308.41 263.751L309.205 262.333L308.921 260.631L308.013 259.667L308.07 258.135L309.375 258.419L309.715 257.285L310.736 256.264L311.36 254.448L310.623 253.03H311.36L311.871 251.669L310.963 249.456V247.982L309.488 247.698L309.545 245.826L308.354 246.961L307.843 246.393L306.822 247.414L306.198 246.79L305.971 245.542L304.156 245.259L302.965 244.068L302.681 243.046L301.83 242.196L301.717 240.437L303.419 239.132L304.837 237.714L305.574 236.58H307.446V233.29L307.616 231.021L305.574 229.886L305.007 228.752L304.553 229.205L303.986 227.957L305.29 226.653L307.106 226.369L306.935 225.348L307.843 224.44L307.503 223.193L306.198 222.455L304.893 222.115L304.156 221.377L303.759 220.356H302.851L302.738 219.222L301.66 220.299L301.773 221.434L302.171 222.682L301.036 223.703L298.54 221.207L296.555 222.512L297.235 224.611L298.654 226.029V226.766L300.355 227.617L301.433 228.695L302.057 230.17V231.304L300.469 229.773L298.994 228.298L297.519 229.205L296.385 228.241L294.399 226.709V222.625L296.101 220.923L296.498 218.484V216.102L296.952 214.116H295.42L294.739 215.535L295.42 217.123L294.683 219.108L293.548 220.923H291.563L287.649 224.838L289.01 226.199L288.783 228.128L289.351 229.943L290.031 232.042L288.159 233.914L287.308 236.353L286.004 238.452L286.287 241.458L285.153 242.593L285.436 244.408H287.138L287.876 245.429L289.294 244.748L290.372 243.67L291.676 244.975L294.002 245.826L294.739 246.563L295.987 247.698L296.952 249.57L296.271 251.102L296.838 252.917L296.271 254.165L294.739 254.618L294.91 256.32V257.455L295.704 258.249L297.859 258.873V260.178L295.704 259.724L293.832 257.852V256.377L293.718 254.108L295.25 252.576L294.116 249.627L293.208 248.719L292.584 246.847L290.428 247.131H288.556L285.947 249.74L286.117 251.555L286.571 253.541L286.004 255.81L282.487 259.327V261.312L280.615 262.333L278.232 263.014L277.665 263.581H276.417C276.417 263.581 275.056 264.205 275.396 264.602C275.793 264.999 275.056 266.247 275.056 266.247H273.354L272.219 264.659L270.631 264.772L268.759 263.468L267.341 262.787L265.923 260.631V258.816L267.341 259.27L268.362 260.291L269.95 261.312L271.369 260.348L273.751 260.802L275.056 260.064L276.474 257.965L278.913 255.526L281.012 254.959L281.409 251.442L283.508 249.854L283.791 248.322L282.146 246.677L281.409 244.181L282.146 242.366L283.167 238.792L283.848 234.651L285.72 231.815L286.174 229.262L286.741 226.029L285.153 224.611L285.89 222.171L288.613 219.449L289.01 216.045L289.918 215.081L289.067 211.847H287.082L285.947 210.713H283.678L282.543 209.125L280.728 210.089L279.707 212.358L278.743 214.627L277.495 217.35L275.169 219.676L273.127 220.697L271.255 221.377L270.234 222.682L269.553 224.554L270.801 224.951V226.369L269.95 227.504L269.497 229.773V231.304L267.625 232.269L266.717 233.176L267.681 235.275L269.497 236.523L269.1 239.189L270.121 241.628L271.652 242.082L269.497 244.068V246.053L267.625 247.187L266.32 245.089V243.16L264.732 241.004L263.2 238.622L260.988 236.41L260.25 234.878L259.456 236.012L257.981 237.487L258.832 238.338L259.116 239.076L259.74 239.303L259.797 242.536H259.059L258.605 243.557L257.868 243.954L257.584 245.713L259.456 246.677V247.925L257.698 248.662L259.173 250.137L256.904 251.272L255.202 252.973H253.273L252.592 255.072H249.472L246.353 255.696L243.346 257.398V259.497L240.907 259.383L239.092 259.667L238.071 260.802L236.312 261.709L234.554 263.468L232.909 263.695V262.22L231.717 261.766L228.314 265.169L227.463 266.815L227.803 268.857L225.534 270.275L225.307 271.977L223.379 273.168L222.074 275.607L222.414 277.252L221.62 278.727V280.032L219.408 282.13Z"/>
    </mask>
    <path class="color" d="M300.469 219.846L301.206 219.108H302.397L303.532 218.087L302.511 217.066L301.49 217.35L300.526 218.257L299.504 219.108L300.469 219.846Z" fill="#FDAE61"/>
    <path class="color" d="M299.164 208.557L300.468 208.954L300.128 208.16L298.37 207.82L297.632 208.501L298.143 209.295L299.164 208.557Z" fill="#FDAE61"/>
    <path class="color" d="M295.478 212.018L294.457 211.223L294.003 212.358L294.684 212.982L295.478 212.018Z" fill="#FDAE61"/>
    <path class="color" d="M284.132 208.671L285.721 209.125L287.139 208.387L287.99 208.501V207.65L286.628 207.309L287.309 206.515L286.572 205.438L285.607 205.778L285.267 205.664L284.303 206.345L284.643 207.139L283.962 208.047L284.132 208.671Z" fill="#FDAE61"/>
    <path class="color" d="M219.408 282.13L219.068 283.775L218.217 284.683L217.706 285.988V287.463L215.777 288.484V290.412L214.7 293.022L212.771 294.724L211.353 296.879L210.048 298.184H208.403L206.815 299.545V301.984L208.006 303.913L207.382 306.069L206.418 307.033V307.714L207.439 308.791L206.248 309.983L205.056 310.947L203.411 310.607L201.709 311.741L201.766 312.649L202.504 313.386L200.745 315.145L199.611 313.443H198.306L197.285 315.088L196.831 316.847L195.243 317.641H193.371L192.804 317.073L192.18 318.378V320.023L190.194 322.122L191.385 323.824L193.598 325.412H194.959L196.094 327.057L197.285 325.866L197.682 327.454L197.228 328.872L196.094 330.971V332.106L193.938 332.616L192.69 333.864L190.705 333.127V331.822L189.627 330.744L188.095 329.95L186.677 329.496L184.635 331.028L185.032 332.843L185.94 333.751L186.223 336.303L187.415 338.232L189.74 338.459L190.761 337.778L193.087 338.516L193.768 340.558V342.373H192.69L192.009 341.465L190.421 341.636V342.316L188.946 342.827L187.018 344.756V345.833L185.77 347.535V349.18H184.749L183.444 351.506L183.217 352.924L181.742 353.605L181.175 354.626H184.522L185.599 354.172L187.131 354.853H188.095L188.776 356.044L188.322 357.235L186.564 358.086L186.791 359.277H187.812L188.095 360.752L188.833 358.767L190.705 359.221L192.293 358.767L192.974 357.065L192.293 354.682L193.881 354.002L196.321 353.888L197.909 355.477H199.214L200.405 354.285L198.079 351.96L197.058 351.279L198.363 349.974L197.682 348.556L198.363 346.457H200.348L202.504 347.592L204.035 348.896L205.737 348.443L208.119 348.896L211.353 348.783L213.508 349.464H215.097L216.912 350.428L218.784 350.031L219.862 348.953H220.883L223.322 350.258H225.875L227.973 349.861L229.675 350.825L231.774 350.258H234.157L235.291 348.67L237.39 348.84L239.262 349.974L241.588 349.918L242.438 351.619H244.14L244.197 350.542L244.708 349.464L245.672 348.499V347.195L246.466 347.025L247.487 346.003L247.884 344.982V343.337L250.267 340.955L252.082 340.615L252.763 339.934V338.629L251.344 337.835L250.891 336.757L249.983 335.85L248.678 335.226V334.148L250.153 333.41L249.529 331.482L249.699 330.007L250.834 328.872L251.685 327.454L253.103 326.433L254.578 327.908L253.67 328.816V329.95L254.975 330.404L256.62 330.914L257.698 331.425L258.889 332.219H260.477L261.498 331.312L263.143 332.162L264.561 332.616H266.83L268.702 331.709L270.234 330.177L271.085 328.986L273.694 327.397L273.978 325.412L276.531 323.54L279.65 322.689L279.48 319.74L281.693 314.804L284.699 314.351L286.968 315.372H290.258L291.052 316.62L294.059 316.96L296.441 316.052L298.654 318.265L300.469 317.811L302.965 319.116L303.645 316.79L307.389 315.201L310.85 317.754L313.005 315.599L316.409 314.124L317.827 311.798L315.161 310.663L312.778 309.075V306.182L315.785 303.176L315.955 301.02L317.316 299.659V297.219L315.898 295.234L316.862 293.419L318.281 291.604L319.529 290.356L318.848 288.824L319.245 286.839L318.848 284.57L317.77 285.647L316.692 284.57L314.537 284.116L314.083 282.13L315.047 281.166L314.877 279.011L314.026 277.309L312.892 276.174H311.757L310.679 274.302L311.53 273.622V271.92L310.85 270.785V269.821L312.154 268.63L311.36 266.928L309.261 265.737V264.432L308.41 263.751L309.205 262.333L308.921 260.631L308.013 259.667L308.07 258.135L309.375 258.419L309.715 257.285L310.736 256.264L311.36 254.448L310.623 253.03H311.36L311.871 251.669L310.963 249.456V247.982L309.488 247.698L309.545 245.826L308.354 246.961L307.843 246.393L306.822 247.414L306.198 246.79L305.971 245.542L304.156 245.259L302.965 244.068L302.681 243.046L301.83 242.196L301.717 240.437L303.419 239.132L304.837 237.714L305.574 236.58H307.446V233.29L307.616 231.021L305.574 229.886L305.007 228.752L304.553 229.205L303.986 227.957L305.29 226.653L307.106 226.369L306.935 225.348L307.843 224.44L307.503 223.193L306.198 222.455L304.893 222.115L304.156 221.377L303.759 220.356H302.851L302.738 219.222L301.66 220.299L301.773 221.434L302.171 222.682L301.036 223.703L298.54 221.207L296.555 222.512L297.235 224.611L298.654 226.029V226.766L300.355 227.617L301.433 228.695L302.057 230.17V231.304L300.469 229.773L298.994 228.298L297.519 229.205L296.385 228.241L294.399 226.709V222.625L296.101 220.923L296.498 218.484V216.102L296.952 214.116H295.42L294.739 215.535L295.42 217.123L294.683 219.108L293.548 220.923H291.563L287.649 224.838L289.01 226.199L288.783 228.128L289.351 229.943L290.031 232.042L288.159 233.914L287.308 236.353L286.004 238.452L286.287 241.458L285.153 242.593L285.436 244.408H287.138L287.876 245.429L289.294 244.748L290.372 243.67L291.676 244.975L294.002 245.826L294.739 246.563L295.987 247.698L296.952 249.57L296.271 251.102L296.838 252.917L296.271 254.165L294.739 254.618L294.91 256.32V257.455L295.704 258.249L297.859 258.873V260.178L295.704 259.724L293.832 257.852V256.377L293.718 254.108L295.25 252.576L294.116 249.627L293.208 248.719L292.584 246.847L290.428 247.131H288.556L285.947 249.74L286.117 251.555L286.571 253.541L286.004 255.81L282.487 259.327V261.312L280.615 262.333L278.232 263.014L277.665 263.581H276.417C276.417 263.581 275.056 264.205 275.396 264.602C275.793 264.999 275.056 266.247 275.056 266.247H273.354L272.219 264.659L270.631 264.772L268.759 263.468L267.341 262.787L265.923 260.631V258.816L267.341 259.27L268.362 260.291L269.95 261.312L271.369 260.348L273.751 260.802L275.056 260.064L276.474 257.965L278.913 255.526L281.012 254.959L281.409 251.442L283.508 249.854L283.791 248.322L282.146 246.677L281.409 244.181L282.146 242.366L283.167 238.792L283.848 234.651L285.72 231.815L286.174 229.262L286.741 226.029L285.153 224.611L285.89 222.171L288.613 219.449L289.01 216.045L289.918 215.081L289.067 211.847H287.082L285.947 210.713H283.678L282.543 209.125L280.728 210.089L279.707 212.358L278.743 214.627L277.495 217.35L275.169 219.676L273.127 220.697L271.255 221.377L270.234 222.682L269.553 224.554L270.801 224.951V226.369L269.95 227.504L269.497 229.773V231.304L267.625 232.269L266.717 233.176L267.681 235.275L269.497 236.523L269.1 239.189L270.121 241.628L271.652 242.082L269.497 244.068V246.053L267.625 247.187L266.32 245.089V243.16L264.732 241.004L263.2 238.622L260.988 236.41L260.25 234.878L259.456 236.012L257.981 237.487L258.832 238.338L259.116 239.076L259.74 239.303L259.797 242.536H259.059L258.605 243.557L257.868 243.954L257.584 245.713L259.456 246.677V247.925L257.698 248.662L259.173 250.137L256.904 251.272L255.202 252.973H253.273L252.592 255.072H249.472L246.353 255.696L243.346 257.398V259.497L240.907 259.383L239.092 259.667L238.071 260.802L236.312 261.709L234.554 263.468L232.909 263.695V262.22L231.717 261.766L228.314 265.169L227.463 266.815L227.803 268.857L225.534 270.275L225.307 271.977L223.379 273.168L222.074 275.607L222.414 277.252L221.62 278.727V280.032L219.408 282.13Z" fill="#FDAE61"/>
    <path d="M300.469 219.846L301.206 219.108H302.397L303.532 218.087L302.511 217.066L301.49 217.35L300.526 218.257L299.504 219.108L300.469 219.846Z" stroke="white" stroke-width="4" mask="url(#path-56-outside-4)"/>
    <path d="M299.164 208.557L300.468 208.954L300.128 208.16L298.37 207.82L297.632 208.501L298.143 209.295L299.164 208.557Z" stroke="white" stroke-width="4" mask="url(#path-56-outside-4)"/>
    <path d="M295.478 212.018L294.457 211.223L294.003 212.358L294.684 212.982L295.478 212.018Z" stroke="white" stroke-width="4" mask="url(#path-56-outside-4)"/>
    <path d="M284.132 208.671L285.721 209.125L287.139 208.387L287.99 208.501V207.65L286.628 207.309L287.309 206.515L286.572 205.438L285.607 205.778L285.267 205.664L284.303 206.345L284.643 207.139L283.962 208.047L284.132 208.671Z" stroke="white" stroke-width="4" mask="url(#path-56-outside-4)"/>
    <path d="M219.408 282.13L219.068 283.775L218.217 284.683L217.706 285.988V287.463L215.777 288.484V290.412L214.7 293.022L212.771 294.724L211.353 296.879L210.048 298.184H208.403L206.815 299.545V301.984L208.006 303.913L207.382 306.069L206.418 307.033V307.714L207.439 308.791L206.248 309.983L205.056 310.947L203.411 310.607L201.709 311.741L201.766 312.649L202.504 313.386L200.745 315.145L199.611 313.443H198.306L197.285 315.088L196.831 316.847L195.243 317.641H193.371L192.804 317.073L192.18 318.378V320.023L190.194 322.122L191.385 323.824L193.598 325.412H194.959L196.094 327.057L197.285 325.866L197.682 327.454L197.228 328.872L196.094 330.971V332.106L193.938 332.616L192.69 333.864L190.705 333.127V331.822L189.627 330.744L188.095 329.95L186.677 329.496L184.635 331.028L185.032 332.843L185.94 333.751L186.223 336.303L187.415 338.232L189.74 338.459L190.761 337.778L193.087 338.516L193.768 340.558V342.373H192.69L192.009 341.465L190.421 341.636V342.316L188.946 342.827L187.018 344.756V345.833L185.77 347.535V349.18H184.749L183.444 351.506L183.217 352.924L181.742 353.605L181.175 354.626H184.522L185.599 354.172L187.131 354.853H188.095L188.776 356.044L188.322 357.235L186.564 358.086L186.791 359.277H187.812L188.095 360.752L188.833 358.767L190.705 359.221L192.293 358.767L192.974 357.065L192.293 354.682L193.881 354.002L196.321 353.888L197.909 355.477H199.214L200.405 354.285L198.079 351.96L197.058 351.279L198.363 349.974L197.682 348.556L198.363 346.457H200.348L202.504 347.592L204.035 348.896L205.737 348.443L208.119 348.896L211.353 348.783L213.508 349.464H215.097L216.912 350.428L218.784 350.031L219.862 348.953H220.883L223.322 350.258H225.875L227.973 349.861L229.675 350.825L231.774 350.258H234.157L235.291 348.67L237.39 348.84L239.262 349.974L241.588 349.918L242.438 351.619H244.14L244.197 350.542L244.708 349.464L245.672 348.499V347.195L246.466 347.025L247.487 346.003L247.884 344.982V343.337L250.267 340.955L252.082 340.615L252.763 339.934V338.629L251.344 337.835L250.891 336.757L249.983 335.85L248.678 335.226V334.148L250.153 333.41L249.529 331.482L249.699 330.007L250.834 328.872L251.685 327.454L253.103 326.433L254.578 327.908L253.67 328.816V329.95L254.975 330.404L256.62 330.914L257.698 331.425L258.889 332.219H260.477L261.498 331.312L263.143 332.162L264.561 332.616H266.83L268.702 331.709L270.234 330.177L271.085 328.986L273.694 327.397L273.978 325.412L276.531 323.54L279.65 322.689L279.48 319.74L281.693 314.804L284.699 314.351L286.968 315.372H290.258L291.052 316.62L294.059 316.96L296.441 316.052L298.654 318.265L300.469 317.811L302.965 319.116L303.645 316.79L307.389 315.201L310.85 317.754L313.005 315.599L316.409 314.124L317.827 311.798L315.161 310.663L312.778 309.075V306.182L315.785 303.176L315.955 301.02L317.316 299.659V297.219L315.898 295.234L316.862 293.419L318.281 291.604L319.529 290.356L318.848 288.824L319.245 286.839L318.848 284.57L317.77 285.647L316.692 284.57L314.537 284.116L314.083 282.13L315.047 281.166L314.877 279.011L314.026 277.309L312.892 276.174H311.757L310.679 274.302L311.53 273.622V271.92L310.85 270.785V269.821L312.154 268.63L311.36 266.928L309.261 265.737V264.432L308.41 263.751L309.205 262.333L308.921 260.631L308.013 259.667L308.07 258.135L309.375 258.419L309.715 257.285L310.736 256.264L311.36 254.448L310.623 253.03H311.36L311.871 251.669L310.963 249.456V247.982L309.488 247.698L309.545 245.826L308.354 246.961L307.843 246.393L306.822 247.414L306.198 246.79L305.971 245.542L304.156 245.259L302.965 244.068L302.681 243.046L301.83 242.196L301.717 240.437L303.419 239.132L304.837 237.714L305.574 236.58H307.446V233.29L307.616 231.021L305.574 229.886L305.007 228.752L304.553 229.205L303.986 227.957L305.29 226.653L307.106 226.369L306.935 225.348L307.843 224.44L307.503 223.193L306.198 222.455L304.893 222.115L304.156 221.377L303.759 220.356H302.851L302.738 219.222L301.66 220.299L301.773 221.434L302.171 222.682L301.036 223.703L298.54 221.207L296.555 222.512L297.235 224.611L298.654 226.029V226.766L300.355 227.617L301.433 228.695L302.057 230.17V231.304L300.469 229.773L298.994 228.298L297.519 229.205L296.385 228.241L294.399 226.709V222.625L296.101 220.923L296.498 218.484V216.102L296.952 214.116H295.42L294.739 215.535L295.42 217.123L294.683 219.108L293.548 220.923H291.563L287.649 224.838L289.01 226.199L288.783 228.128L289.351 229.943L290.031 232.042L288.159 233.914L287.308 236.353L286.004 238.452L286.287 241.458L285.153 242.593L285.436 244.408H287.138L287.876 245.429L289.294 244.748L290.372 243.67L291.676 244.975L294.002 245.826L294.739 246.563L295.987 247.698L296.952 249.57L296.271 251.102L296.838 252.917L296.271 254.165L294.739 254.618L294.91 256.32V257.455L295.704 258.249L297.859 258.873V260.178L295.704 259.724L293.832 257.852V256.377L293.718 254.108L295.25 252.576L294.116 249.627L293.208 248.719L292.584 246.847L290.428 247.131H288.556L285.947 249.74L286.117 251.555L286.571 253.541L286.004 255.81L282.487 259.327V261.312L280.615 262.333L278.232 263.014L277.665 263.581H276.417C276.417 263.581 275.056 264.205 275.396 264.602C275.793 264.999 275.056 266.247 275.056 266.247H273.354L272.219 264.659L270.631 264.772L268.759 263.468L267.341 262.787L265.923 260.631V258.816L267.341 259.27L268.362 260.291L269.95 261.312L271.369 260.348L273.751 260.802L275.056 260.064L276.474 257.965L278.913 255.526L281.012 254.959L281.409 251.442L283.508 249.854L283.791 248.322L282.146 246.677L281.409 244.181L282.146 242.366L283.167 238.792L283.848 234.651L285.72 231.815L286.174 229.262L286.741 226.029L285.153 224.611L285.89 222.171L288.613 219.449L289.01 216.045L289.918 215.081L289.067 211.847H287.082L285.947 210.713H283.678L282.543 209.125L280.728 210.089L279.707 212.358L278.743 214.627L277.495 217.35L275.169 219.676L273.127 220.697L271.255 221.377L270.234 222.682L269.553 224.554L270.801 224.951V226.369L269.95 227.504L269.497 229.773V231.304L267.625 232.269L266.717 233.176L267.681 235.275L269.497 236.523L269.1 239.189L270.121 241.628L271.652 242.082L269.497 244.068V246.053L267.625 247.187L266.32 245.089V243.16L264.732 241.004L263.2 238.622L260.988 236.41L260.25 234.878L259.456 236.012L257.981 237.487L258.832 238.338L259.116 239.076L259.74 239.303L259.797 242.536H259.059L258.605 243.557L257.868 243.954L257.584 245.713L259.456 246.677V247.925L257.698 248.662L259.173 250.137L256.904 251.272L255.202 252.973H253.273L252.592 255.072H249.472L246.353 255.696L243.346 257.398V259.497L240.907 259.383L239.092 259.667L238.071 260.802L236.312 261.709L234.554 263.468L232.909 263.695V262.22L231.717 261.766L228.314 265.169L227.463 266.815L227.803 268.857L225.534 270.275L225.307 271.977L223.379 273.168L222.074 275.607L222.414 277.252L221.62 278.727V280.032L219.408 282.13Z" stroke="white" stroke-width="4" mask="url(#path-56-outside-4)"/>
</svg>
