<?xml version="1.0" encoding="UTF-8" standalone="no"?>
<svg>
    <mask id="path-60-outside-6" maskUnits="userSpaceOnUse" x="106.586" y="263.327" width="114" height="110" fill="black">
        <rect fill="white" x="106.586" y="263.327" width="114" height="110"/>
        <path d="M214.131 285.67L211.692 284.762L209.536 283.628L207.324 282.153H206.303L205.736 283.344L204.772 283.685L204.091 283.004L203.126 282.664L202.162 283.628L200.46 283.004L198.986 283.798L197.624 282.437L195.582 281.529L194.391 281.983L193.37 280.792L193.597 279.6L193.086 278.806L191.895 278.353L190.987 279.26L190.306 278.579L189.626 279.26L187.697 278.182L186.79 279.941L187.754 280.905V282.04L186.336 282.607H184.804L183.953 283.458L182.535 283.628L182.081 282.607L181.287 281.813L179.869 283.174L178.791 282.096L177.033 281.246L175.388 281.643L174.707 283.571L173.629 284.876L172.948 284.195L173.516 282.891L173.119 281.416V279.998L172.098 278.976V277.558L173.346 276.31V275.062L175.161 274.665V272.737L176.295 271.602L176.125 270.184L175.274 269.73L175.615 268.709L173.799 266.554L173.062 266.327L172.041 267.178L168.694 270.524L166.879 269.73L165.858 270.638L167.957 272.793L166.652 273.474V275.233L166.028 275.857L164.893 277.161L164.553 281.643H161.887L160.752 282.834L159.788 281.869L157.519 282.664L156.044 284.139L155.42 283.515H153.775L152.754 282.493L152.073 280.905H150.428L149.351 281.983L146.458 282.72L144.189 282.21H142.26L141.522 284.139H139.594L138.289 282.834L137.211 283.912L136.701 285.897L135.51 287.088L133.07 287.372L130.971 288.053L129.043 288.393L127.908 289.527L126.32 289.868L125.242 290.946V292.647L126.774 293.895V294.803L127.114 295.654L126.207 296.561L125.072 296.845L123.597 298.32H122.576V299.057L121.725 299.908L120.647 300.646L119.74 300.192L117.754 302.291L118.095 303.766L117.754 306.262L118.549 307.623L118.378 310.573H116.79L116.28 311.537L114.408 312.672L112.763 313.579L111.855 314.543L110.947 314.6L109.643 315.224L110.38 317.153L109.699 317.834L109.586 319.479L110.153 321.748L112.252 322.031L113.5 322.712V323.846L115.429 323.79L117.641 325.945L117.925 328.555L116.223 330.2L117.471 331.391L118.152 330.71L119.513 331.221L119.91 333.149L120.818 334.057H122.179L122.463 335.475L123.597 336.61L123.654 338.482H125.242L126.263 339.503L125.639 341.318V343.19L127.001 344.551L129.326 344.948L129.497 343.133L130.745 341.885L131.198 340.864H133.354H135.339L136.304 339.446H138.289L140.161 340.467L142.317 339.73L143.508 338.538L145.834 338.992L146.514 340.864V342.679H147.819L150.088 342.282L151.336 343.53L152.017 345.119L154.286 345.969L155.704 347.671L156.101 350.224L157.065 352.663L157.803 354.251L156.668 355.386V356.917H157.916L159.051 355.046L160.639 356.464L161.774 358.619L163.362 359.073L165.347 358.789L167.503 357.768L169.091 358.619L170.906 360.037L171.587 361.456L173.402 360.775H175.558L176.749 361.966V364.405L178.167 365.823L178.508 366.901L180.38 368.773H182.025L183.046 367.752H184.067L184.804 369.284L185.882 370.361L188.037 370.191H190.136L191.384 368.943L192.689 367.185L191.384 365.88L190.987 364.292L188.775 362.08L188.208 360.718L187.924 359.243H186.903L186.676 358.052L188.435 357.201L188.888 356.01L188.208 354.819H187.243L185.712 354.138L184.634 354.592H182.819H181.287L181.854 353.571L183.329 352.89L183.556 351.472L184.861 349.146H185.882V347.501L187.13 345.799V344.721L189.059 342.793L190.533 342.282V341.602L192.122 341.431L192.802 342.339H193.88V340.524L193.2 338.482L190.874 337.744L189.853 338.425L187.527 338.198L186.336 336.269L186.052 333.717L185.144 332.809L184.747 330.994L186.79 329.462L188.208 329.916L189.739 330.71L190.817 331.788V333.093L192.802 333.83L194.05 332.582L196.206 332.072V330.937L197.34 328.838L197.794 327.42L197.397 325.832L196.206 327.023L195.071 325.378H193.71L191.498 323.79L190.306 322.088L192.292 319.989V318.344L192.916 317.039L193.483 317.607H195.355L196.943 316.812L197.397 315.054L198.418 313.409H199.723L200.857 315.111L201.595 314.373L202.616 313.352L201.879 312.615L201.822 311.707L203.524 310.573L205.169 310.913L206.36 309.949L207.551 308.757L206.53 307.68V306.999L207.494 306.035L208.118 303.879L206.927 301.95V299.625L208.515 298.263H210.16L211.465 296.958L212.883 294.803L214.812 293.101L215.89 290.492V288.563L217.818 287.542V286.067L214.131 285.67Z"/>
    </mask>
    <path class="color" d="M214.131 285.67L211.692 284.762L209.536 283.628L207.324 282.153H206.303L205.736 283.344L204.772 283.685L204.091 283.004L203.126 282.664L202.162 283.628L200.46 283.004L198.986 283.798L197.624 282.437L195.582 281.529L194.391 281.983L193.37 280.792L193.597 279.6L193.086 278.806L191.895 278.353L190.987 279.26L190.306 278.579L189.626 279.26L187.697 278.182L186.79 279.941L187.754 280.905V282.04L186.336 282.607H184.804L183.953 283.458L182.535 283.628L182.081 282.607L181.287 281.813L179.869 283.174L178.791 282.096L177.033 281.246L175.388 281.643L174.707 283.571L173.629 284.876L172.948 284.195L173.516 282.891L173.119 281.416V279.998L172.098 278.976V277.558L173.346 276.31V275.062L175.161 274.665V272.737L176.295 271.602L176.125 270.184L175.274 269.73L175.615 268.709L173.799 266.554L173.062 266.327L172.041 267.178L168.694 270.524L166.879 269.73L165.858 270.638L167.957 272.793L166.652 273.474V275.233L166.028 275.857L164.893 277.161L164.553 281.643H161.887L160.752 282.834L159.788 281.869L157.519 282.664L156.044 284.139L155.42 283.515H153.775L152.754 282.493L152.073 280.905H150.428L149.351 281.983L146.458 282.72L144.189 282.21H142.26L141.522 284.139H139.594L138.289 282.834L137.211 283.912L136.701 285.897L135.51 287.088L133.07 287.372L130.971 288.053L129.043 288.393L127.908 289.527L126.32 289.868L125.242 290.946V292.647L126.774 293.895V294.803L127.114 295.654L126.207 296.561L125.072 296.845L123.597 298.32H122.576V299.057L121.725 299.908L120.647 300.646L119.74 300.192L117.754 302.291L118.095 303.766L117.754 306.262L118.549 307.623L118.378 310.573H116.79L116.28 311.537L114.408 312.672L112.763 313.579L111.855 314.543L110.947 314.6L109.643 315.224L110.38 317.153L109.699 317.834L109.586 319.479L110.153 321.748L112.252 322.031L113.5 322.712V323.846L115.429 323.79L117.641 325.945L117.925 328.555L116.223 330.2L117.471 331.391L118.152 330.71L119.513 331.221L119.91 333.149L120.818 334.057H122.179L122.463 335.475L123.597 336.61L123.654 338.482H125.242L126.263 339.503L125.639 341.318V343.19L127.001 344.551L129.326 344.948L129.497 343.133L130.745 341.885L131.198 340.864H133.354H135.339L136.304 339.446H138.289L140.161 340.467L142.317 339.73L143.508 338.538L145.834 338.992L146.514 340.864V342.679H147.819L150.088 342.282L151.336 343.53L152.017 345.119L154.286 345.969L155.704 347.671L156.101 350.224L157.065 352.663L157.803 354.251L156.668 355.386V356.917H157.916L159.051 355.046L160.639 356.464L161.774 358.619L163.362 359.073L165.347 358.789L167.503 357.768L169.091 358.619L170.906 360.037L171.587 361.456L173.402 360.775H175.558L176.749 361.966V364.405L178.167 365.823L178.508 366.901L180.38 368.773H182.025L183.046 367.752H184.067L184.804 369.284L185.882 370.361L188.037 370.191H190.136L191.384 368.943L192.689 367.185L191.384 365.88L190.987 364.292L188.775 362.08L188.208 360.718L187.924 359.243H186.903L186.676 358.052L188.435 357.201L188.888 356.01L188.208 354.819H187.243L185.712 354.138L184.634 354.592H182.819H181.287L181.854 353.571L183.329 352.89L183.556 351.472L184.861 349.146H185.882V347.501L187.13 345.799V344.721L189.059 342.793L190.533 342.282V341.602L192.122 341.431L192.802 342.339H193.88V340.524L193.2 338.482L190.874 337.744L189.853 338.425L187.527 338.198L186.336 336.269L186.052 333.717L185.144 332.809L184.747 330.994L186.79 329.462L188.208 329.916L189.739 330.71L190.817 331.788V333.093L192.802 333.83L194.05 332.582L196.206 332.072V330.937L197.34 328.838L197.794 327.42L197.397 325.832L196.206 327.023L195.071 325.378H193.71L191.498 323.79L190.306 322.088L192.292 319.989V318.344L192.916 317.039L193.483 317.607H195.355L196.943 316.812L197.397 315.054L198.418 313.409H199.723L200.857 315.111L201.595 314.373L202.616 313.352L201.879 312.615L201.822 311.707L203.524 310.573L205.169 310.913L206.36 309.949L207.551 308.757L206.53 307.68V306.999L207.494 306.035L208.118 303.879L206.927 301.95V299.625L208.515 298.263H210.16L211.465 296.958L212.883 294.803L214.812 293.101L215.89 290.492V288.563L217.818 287.542V286.067L214.131 285.67Z" fill="#EE9D57"/>
    <path d="M214.131 285.67L211.692 284.762L209.536 283.628L207.324 282.153H206.303L205.736 283.344L204.772 283.685L204.091 283.004L203.126 282.664L202.162 283.628L200.46 283.004L198.986 283.798L197.624 282.437L195.582 281.529L194.391 281.983L193.37 280.792L193.597 279.6L193.086 278.806L191.895 278.353L190.987 279.26L190.306 278.579L189.626 279.26L187.697 278.182L186.79 279.941L187.754 280.905V282.04L186.336 282.607H184.804L183.953 283.458L182.535 283.628L182.081 282.607L181.287 281.813L179.869 283.174L178.791 282.096L177.033 281.246L175.388 281.643L174.707 283.571L173.629 284.876L172.948 284.195L173.516 282.891L173.119 281.416V279.998L172.098 278.976V277.558L173.346 276.31V275.062L175.161 274.665V272.737L176.295 271.602L176.125 270.184L175.274 269.73L175.615 268.709L173.799 266.554L173.062 266.327L172.041 267.178L168.694 270.524L166.879 269.73L165.858 270.638L167.957 272.793L166.652 273.474V275.233L166.028 275.857L164.893 277.161L164.553 281.643H161.887L160.752 282.834L159.788 281.869L157.519 282.664L156.044 284.139L155.42 283.515H153.775L152.754 282.493L152.073 280.905H150.428L149.351 281.983L146.458 282.72L144.189 282.21H142.26L141.522 284.139H139.594L138.289 282.834L137.211 283.912L136.701 285.897L135.51 287.088L133.07 287.372L130.971 288.053L129.043 288.393L127.908 289.527L126.32 289.868L125.242 290.946V292.647L126.774 293.895V294.803L127.114 295.654L126.207 296.561L125.072 296.845L123.597 298.32H122.576V299.057L121.725 299.908L120.647 300.646L119.74 300.192L117.754 302.291L118.095 303.766L117.754 306.262L118.549 307.623L118.378 310.573H116.79L116.28 311.537L114.408 312.672L112.763 313.579L111.855 314.543L110.947 314.6L109.643 315.224L110.38 317.153L109.699 317.834L109.586 319.479L110.153 321.748L112.252 322.031L113.5 322.712V323.846L115.429 323.79L117.641 325.945L117.925 328.555L116.223 330.2L117.471 331.391L118.152 330.71L119.513 331.221L119.91 333.149L120.818 334.057H122.179L122.463 335.475L123.597 336.61L123.654 338.482H125.242L126.263 339.503L125.639 341.318V343.19L127.001 344.551L129.326 344.948L129.497 343.133L130.745 341.885L131.198 340.864H133.354H135.339L136.304 339.446H138.289L140.161 340.467L142.317 339.73L143.508 338.538L145.834 338.992L146.514 340.864V342.679H147.819L150.088 342.282L151.336 343.53L152.017 345.119L154.286 345.969L155.704 347.671L156.101 350.224L157.065 352.663L157.803 354.251L156.668 355.386V356.917H157.916L159.051 355.046L160.639 356.464L161.774 358.619L163.362 359.073L165.347 358.789L167.503 357.768L169.091 358.619L170.906 360.037L171.587 361.456L173.402 360.775H175.558L176.749 361.966V364.405L178.167 365.823L178.508 366.901L180.38 368.773H182.025L183.046 367.752H184.067L184.804 369.284L185.882 370.361L188.037 370.191H190.136L191.384 368.943L192.689 367.185L191.384 365.88L190.987 364.292L188.775 362.08L188.208 360.718L187.924 359.243H186.903L186.676 358.052L188.435 357.201L188.888 356.01L188.208 354.819H187.243L185.712 354.138L184.634 354.592H182.819H181.287L181.854 353.571L183.329 352.89L183.556 351.472L184.861 349.146H185.882V347.501L187.13 345.799V344.721L189.059 342.793L190.533 342.282V341.602L192.122 341.431L192.802 342.339H193.88V340.524L193.2 338.482L190.874 337.744L189.853 338.425L187.527 338.198L186.336 336.269L186.052 333.717L185.144 332.809L184.747 330.994L186.79 329.462L188.208 329.916L189.739 330.71L190.817 331.788V333.093L192.802 333.83L194.05 332.582L196.206 332.072V330.937L197.34 328.838L197.794 327.42L197.397 325.832L196.206 327.023L195.071 325.378H193.71L191.498 323.79L190.306 322.088L192.292 319.989V318.344L192.916 317.039L193.483 317.607H195.355L196.943 316.812L197.397 315.054L198.418 313.409H199.723L200.857 315.111L201.595 314.373L202.616 313.352L201.879 312.615L201.822 311.707L203.524 310.573L205.169 310.913L206.36 309.949L207.551 308.757L206.53 307.68V306.999L207.494 306.035L208.118 303.879L206.927 301.95V299.625L208.515 298.263H210.16L211.465 296.958L212.883 294.803L214.812 293.101L215.89 290.492V288.563L217.818 287.542V286.067L214.131 285.67Z" stroke="white" stroke-width="4" mask="url(#path-60-outside-6)"/>
</svg>
